<svg width="295" height="200" fill="none" xmlns="http://www.w3.org/2000/svg"><path d="M292.12 136.767c-.111 0-.111-.114-.222-.114.222-.227.554-.454.111-.795-.221-.114 0-.227.111-.341a.33.33 0 00.443 0c.111-.113.111-.227 0-.227-.554-.114-1.218-.227-1.772-.341-.111 0-.222 0-.222.114v.113c-.221 0-.443-.341-.775-.113h-.443c-.222 0-.443-.114-.554-.114-.222-.227-.443-.114-.665 0-.443.568-.997.227-1.44.227-.11 0-.332-.113-.443-.113-.886.113-1.883.341-2.769.113v-.227c.222-.227.111-.454 0-.568-.111 0-.221-.114-.332-.114.221-.227.443-.341.664-.454.222-.114.443-.114.665-.114h.111v.341c.443.795 1.107.682 1.883.341.221-.227.443-.455.664-.795.111.227.333.113.554.113l.111-.113c.111.113.222.227.332.227 0 .227.111.454.333.568.332 0 .664-.114.997-.114.443 0 .886.114 1.329.114.111 0 .221.114.221.114.333-.228.886 0 1.219-.455v-.227c0-.114-.111-.114-.111-.227-.111-.114-.332-.228-.443-.341 0-.114 0-.228.111-.228 0-.113.111-.227 0-.34-.554-.796-1.329-.569-1.994-.455-.443.114-.886.114-1.219.227-.553-.454-.997-.227-1.329.228-.111 0-.111 0-.111.113-.221 0-.443.341-.664.227-1.108-1.022-2.437-.34-3.766-.454-.222 0-.333-.568-.665-.114-.775.341-1.551 0-2.326.228-.111 0-.222-.114-.222-.114-1.218 0-2.437-.114-3.655 0-.554.114-1.218-.227-1.772.341h.11-.11c-.665.113-1.219-.568-1.883-.227h-.222c-.332-.228-.775 0-1.108 0h-.221c-.332 0-.554-.341-.886-.228-.333.114-.776 0-.997.341a9.618 9.618 0 00-2.548 0c-.554-.227-1.108 0-1.772 0-.665-.113-.111.455-.111.568l-.222.228c-.11 0-.221 0-.332.113-.221-.113-.554-.227-.664-.227-1.108.454-2.105.227-2.88-.568-.443.227-.887-.227-1.33.113-.553.228-.886-.34-1.329-.34h-.443c-.665.454-.886-.682-1.551-.341-.554.113-1.107-.114-1.661.113-.111-.113-.333-.113-.443-.113h-.222a.687.687 0 00-.664 0h-.111c-.222-.114-.333 0-.554.113-.332 0-.554.114-.886.114 0-.341-1.108-.682-.222-1.136.111 0 .111.113.222.113.332.114.664.228.997 0 .221-.113.332-.227.554-.341.221-.113.664.228.664-.113s.111-.796-.443-1.023c-.332-.113-.554-.113-.665.227v.228h-.11s0-.114-.111-.114-.332-.114-.443 0c-.333 0-.665.114-.886.341l-.111.114v-.114c-.111-.227-.222-.455-.443-.682-.332-.227-.554-.341-.886-.227h-.111c-.222-.114-.332-.227-.554-.114 0-.113 0-.227-.111-.454v-.227c.111 0 .111-.114.222-.114.332.114.554.341.886.341.111.113.111.113.222.113h.11c.111-.113.111-.113.111-.227.111 0 .332-.113.443-.113 0-.114.111-.114.111-.228-.222-.227-.443-.227-.665-.113 0-.228-.111-.455.333-.341.332 0 .553 0 .775-.227 0 .34-.222.681.111.909h.111c.553 0 1.107-.114 1.661-.341v-.228c-.111-.454-.665-.454-.665-.909v-.227c.444-.568-.443-.454-.443-.795l.111-.455c.332-.454.222-1.022.332-1.591-.443-.568.222-1.022.222-1.477.332-.113.775.114.997-.227.111 0 .111.114.221.114v.341c.111-.114.222-.114.443-.228v-.227l.111-.114c0-.113 0-.227-.111-.34.111 0 .222 0 .333-.114v.114c.111-.114.554-.228.443-.455-.111-.227-.332.114-.554.114l-.222-.114c-.221 0-.443.114-.664.114-.222 0-.222.113-.222.227-.221 0-.332 0-.443.114-.221-.114-.443-.228-.775-.228-.222.114-.332.228-.332.455-.222 0-.333.113-.554.227a.88.88 0 01-.222-.568c.111-.227.332-.568.443-.795v.113c.222 0 .333-.113.554-.227.111-.114.111-.114.222-.114 0 0 .11 0 .11.114-.553.454-.553.568-.11.682.11-.114.221-.228.221-.455h.111c.111 0 .222 0 .332-.113.111.227.222.34.554.227-.111-.455 0-.682.554-.682 0-.114.111-.227.111-.227.111-.114.111-.341.221-.455.111-.113.222-.454 0-.454-.332-.114-.332.341-.554.454l-.221.228c-.222 0-.443 0-.554.113-.332-.227-.665 0-.886 0-.554.114-.997 0-1.108-.568l.222-.227c.775-.227 1.661-.114 2.437-.682.664-.114.997-.909 1.772-.909.886 0 1.772 0 2.215-.909.333-.114.665 0 .776-.341.221-.454.221-.795-.333-.795 0-.568.333-.227.554-.227.333.568.997.113 1.551.34.222.114.665 0 .886-.34.222-.341-.111-.569-.332-.796-.443-.227-.665.227-.997.455-.332 0-.554-.228-.554-.568.332-.228.443-.569.111-.796 0-.341-.665-.568-.443-1.022l.221-.228.443-.454c.111 0 .111 0 .222-.114.221-.113.443-.568.665.114 0 .682.332.454.664.113.222-.227.222-.568.554-.795.886-.454-.332-.455-.222-.795.111-.228-.553-.228-.664 0-.222.681-.997.795-1.44 1.136l-.443.454c-.443-.34-.886-.909-1.551-.681-.221 0-.332 0-.443.227-.665 0-.443-.568-.554-.909.554-.455 1.219-.796.443-1.591-.221-.227-.221-.795.111-1.136.111-.114.222 0 .222.227-.222.114-.444.341-.333.682.111.227.443.113.554 0 .443-.114.554-.455.554-.796.111 0 .221-.113.332-.113.111.227.111.568.222.909.554-.568 1.107-1.023 1.329-1.705.443-.454-.665-.909 0-1.477.332.114.665.796.886.228.222-.341.443-1.25-.554-1.364.111-.227.111-.568.443-.909-.997.341-.775-.341-.775-.909-.554.455-1.108.795-1.551 1.25 0 .341.222.227.443.227 0 .114 0 .227.111.341a1.544 1.544 0 01-.443.341c-.222.114-.332.227-.554.341 0-.227 0-.568.111-.796-.222.114-.332.341-.554.228v.113-.113c0-.228-.111-.455-.111-.682.443-.341.333-.682.222-1.136 0-.341-.111-.568-.111-.909l-.111-.568c.443-.341.886.568 1.33-.114.11.114.221.227.332.454.221.341.554.682.886.228.221-.341-.332-.568-.554-.796 0-.681.554-1.25.775-1.818 0-.113.111-.113.111-.227.222-.114.443-.227.443-.568-.443.114-.997 0-1.329.34-.443-.681-1.218-.113-1.772-.34.111-.341.664-.341.664-.795 0-.114.111-.114.111-.228.222-.113.222-.34 0-.454-.221-.114-.443 0-.554.113-.11 0-.221.114-.332.114-.443 0-.886.455-1.44.227.222-.227.332-.568.332-.909.111-.113.222-.34.333-.454.221-.228.775-.228.775-.796.111 0 .332 0 .443-.113v-.227c0-.455.554-.796.554-1.137.111-.795-.886.227-.997-.454 0-.114 0-.114-.111-.228.111-.113.222-.227.333-.227.775-.454 1.44-1.022 1.772-1.818-.222-1.477-.886-.227-1.329-.113-.554 0-1.108.113-1.219.795-.111 0-.111 0-.221.114v.227c-.443.227-.887.568-1.219.795h-.221c-.111 0-.333.114-.443.114l-.111.113-.665.341c-.443-.113-.332-.568-.443-.909-.221 0-.443 0-.554.341l-.332.341c-.222-.227-.443 0-.665.114-.553 0-.997.568-1.661.454-.111-.34-.111-.568.332-.682.222.228.332 0 .443-.113.333-.114.333-.455.333-.682.332 0 .664-.114.886-.34v.113c.664.795.997 0 1.329-.341.221-.227.443-.454.775-.568.333-.568.886-.796 1.44-1.136.111-.455-.221-.682-.554-.796h-.11c.11-.227.11-.34-.111-.454-.111.113-.222.34-.111.454a.608.608 0 01-.554-.34v-.228c.111-.568 0-1.136.665-1.477.221.114.443.227.111.568-.111.227-.222.454.221.454l.333-.34c.553-.114 1.107-.228 1.661-.569v-.113c.332-.114.554-.114.886-.227.776-.228.333-.455 0-.682-.221.114-.332.568-.775.34-.222-.227-.443.114-.665.114-.221-.227-.111-.454-.111-.681h.111c.554-.228 1.108 0 1.44-.682 0-.455 1.662-1.023 0-1.477.443-.682.886-1.25 1.772-.568.444.34.887 0 1.219-.341.332-.227.443-.568.886-.568.111 0 .332.113.443.113.222.341.554.341.886.228.443-.114.776-.114 1.219-.228h.221c.443.341.776.228 1.108-.227h.222c.332 0 .553-.114.886-.114.997.228 1.107-.227.886-1.022 0-.114-.111-.114-.111-.227.332-.114.775-.114 1.108-.228 0 .114-.111.114 0 .341.332 1.023.997.568 1.551.341.332 0 .664-.114.996-.114.222 0 .554.114.444-.34-.111-.228-.222-.455-.554-.114-.333.34-.554 0-.776-.114 0-.681-.332-.681-.886-.454 0 0 0-.114-.111-.114-.997.114-1.772.341-2.658.796.111.113.332.113.443.227-.222.113-.554.113-.775.34-.111 0-.222.114-.333.114a.608.608 0 01-.554-.34c.111-.228.222-.455.111-.682v-.455h-.111.111c.333-.227.776-.454 1.219-.454.886.113 1.883-.114 2.769-.341.886-.455.111-.796 0-1.25h-.111.111c.443-.568 1.44.227 1.772-.796-.111-.113-.221-.227-.221-.34h-.886c-.333-.228-.554 0-.776.113 0-.113-.111-.227-.111-.34v-.114c.333-.114.665-.228.997-.228h.222c.111 0 .111.114.221.114.443.227.887 0 1.219-.227-.443-.568-.111-.796.443-.796.111-.227.332-.227.554 0 .443.569.554.569 1.218 0 .222 0 .443-.113.665.114.221 0 .221-.114.221-.227v-.227c.333 0 .333-.341.554-.569.222 0 .333-.113.443-.227.222.114.554.455.554-.114v-.34c.554-.455-.111-.569-.111-.796 0 0-.11-.113 0-.227.111-.114.111-.227 0-.454-.11-.114-.221-.114-.443-.228-.443-.227-.886-.795-1.218.114-.111.114-.222.114-.332.114.11-.114.221-.228.332-.455 0-.114 0-.227-.111-.34-.332.226-.665.454-.997.567 0 .227.111.227.222.341-.222 0-.554.114-.776.114a.352.352 0 000-.455c-.11-.113-.11-.113-.221-.113h-.111c0-.114-.111-.341-.111-.455-.443.114-.332.455-.332.682h-.111a1.564 1.564 0 00-.332.454s0 .114.111.114c.332 0 .332.34.443.568 0 0 0 .114-.111.114 0 .227 0 .454.111.681-.111 0-.222 0-.333.114v-.34c-.11-.569-.332-.91-.997-.455-.332.227-.443.113-.664.113.221-.113.221-.34.111-.454 0-.114-.111-.114-.111-.227.221-.455.111-.796-.332-1.023h-.111c0-.227-.111-.568.332-.682.332-.227.665-.34.443-.909h-.111.111c.111 0 .332-.113.443-.227.111.114.222.114.443.114v.227c-.221.227-.11.454-.11.682.11.227.221.34.332.568.332-.114.221-.568.554-.682.111.114.221.114.443.114.111-.341.332-.796-.333-.796 0-.113.001-.227-.11-.34.332-.114.443-.455.775-.569.222 0 .332-.113.554-.113 0 .113.111.113.111.113.221.114.554.114.664.227.443 1.137.886.455 1.33 0 .11.114.11.228.332.228h.111c.221.34.443.113.775.113 0 0 .111 0 .111.114h.221c.333-.114.333-.455.443-.682.111-.227.111-.568.111-.909.443-.227.554.682.997.228.332-.341 0-.682-.332-.91-.222 0-.222 0-.333.114a1.547 1.547 0 00-.332-.454c-.111 0-.332-.114-.443-.114.111-.682-.332-1.136-.665-1.59.444-.683-.553-.796-.553-1.364-.111 0-.333.113-.443.113-.444.569-.333 1.023.11 1.477.111.114.333.228.443.228a.56.56 0 000 .795c-.11 0-.11 0-.11.114-.111 0-.111-.114-.222-.114-.111-.795-.443.114-.665-.114-.11 0-.221-.113-.221-.113-.554-.341-1.329-.227-1.772-.796.221-.113.332-.227.553-.34.111.34.443.568.887.34.664-.568-.333-1.25.11-1.931 0 0 .111 0 .111-.114.222 0 .443.114.665.114 0-.114 0-.227-.111-.455-.111-.454-.222-.909-.222-1.363.222 0 .554 0 .554-.341-.11-.114-.332-.227-.443-.341.222-.227.111-.454.111-.682v-1.136c.665.114 1.329.114 1.883.682 0 .568.222 1.022.997.681 1.108-.454.111-.795 0-1.25.443-.113.886-.113 1.218-.454.111 0 .222.114.333.114.221 0 .554.227.664-.114.111-.454-.332-.227-.553-.34-.444-.114-.997 0-1.44.113h-.444c-.332-.227-.553-.114-.886 0-.221 0-.443.113-.664.113-.222.228-.554-.113-.776.114 0-.114 0-.114-.11-.114-.997.114-1.994.455-2.991.228-.554.113-1.108.227-1.662.227-.443.34-.886.34-1.329.114-.443-.228-.997-.682-1.551-.114-.111.114-.443-.114-.664-.227-.222-.341-.443-.227-.665 0h-.111c-.332-.114-.664 0-.664-.455.443.114.886.227.997-.454v-.114c.11-.114.221-.454.332-.34 1.218.113.664-.569.554-1.023.554-.91-.776-1.25-.554-1.932l.332-.34c.111 0 .332.113.443.113.222 0 .443.113.665.113h.221c.554.228 1.33-.113 1.551.228.665.795.554-.114.776-.228.443-.568.775.114 1.107 0 .332 0 .665.114.776-.34.221-.455.11-.796-.222-1.023l-.111-.114c-.221-.227-.554-.227-.775-.34.111 0 .221 0 .332-.114.111 0 .222 0 .333-.114-.333-.909-.887-1.136-1.773-.682-.221.114-.554.228-.775.341v-.113c-.332-.341-.665-.682-1.219-.569l-.11.114c-.333 0-.554 0-.665.455h-.222c-.11-.114-.221-.228-.443-.114-.11-.114-.11-.34-.332-.227-.221.227-.111.454 0 .681-.111 0-.221-.113-.332-.113-.222 0-.443 0-.554.113h-.111c-.111-.113-.332-.113-.332-.227.221-.795-.222-.795-.886-.681-.222 0-.333 0-.443-.114-.776-.227-1.44-.796-2.437-.682 0-.114 0-.227-.111-.34l-.111-.114.111-.114c.554.227 1.218.114 1.772 0 .443 0 .554-.227.443-.455.333.114.665.114.997.114.554 0 .997 0 1.551.227.554.114 1.218.114 1.772-.227.111-.114.111-.114.111-.227 0 .113.222.113.222.113.221 0 .443.114.664.114.333.91.886 1.25 1.883.91.333-.115.776 0 1.108 0 .222-.228.665-.115.554-.57-.222-.226-.443-.113-.665-.226h.222c.775-.341.775-.682.111-1.137-.554 0-1.108 0-1.662.114-.554-.227-1.218-.34-1.772-.227-.222 0-.443-.114-.665-.114-.886-.568-1.772-.227-2.658-.114-.222-.113-.333-.113-.443.114-.333-.114-.776-.114-1.108-.227-.997 0-1.994 0-2.991-.114-.443-.227-.886.114-1.329-.113-1.108-.341-2.105-.455-3.212-.228-.333.114-.443-.227-.665-.227-.775-.227-1.662-.454-2.437 0 .332.796 1.44.455 1.883 1.023.222.227.443.34.776.454.11.114.221.228.443.114.886 0 1.44-1.023 2.436-.682.111 1.023 1.219.682 1.773 1.136-.222.569-1.662 1.25-1.994.91-.997-1.023-1.994-.455-2.991 0-.221-.682-.775-.228-1.107-.228-.333-.113-.776-.113-1.108-.227-.222 0-.443.114-.665.114-.111 0-.221 0-.332.113 0 .114 0 .227.111.341-.111.114-.111.34-.222.455h-.443c-.111 0-.111-.114-.221-.114 0-.114.332-.34.221-.455-.443-.113-.886-.227-1.329-.454-.333-.227-.554.114-.886 0 0 0 0-.114-.111-.114-.332-.113-.332-.227 0-.454l.221-.227c.222 0 .443-.114.554-.114.222 0 .665 0 .776-.227.11-.341-.333-.455-.443-.569-.222-.227-.443-.34-.776-.568l-.221-.227c-.111-.568-1.108 0-1.108-.568 0-1.477-.997-1.023-1.772-.909-.665-.114-1.33-.114-1.994-.227-.111 0-.222 0-.332.113-.444-.227-.776-.113-1.108.228-.222 0-.443-.114-.554.113-.775.227-1.551-.34-2.326-.113-1.551-.569-3.212-.114-4.763-.114-.443 0-.997 0-1.44.114-.443-.228-.886 0-1.329 0-.111-.114-.444-.228-.444-.341-.221-.568-.664-.341-.886-.114-.332.227-.11.568.111.795.997.228 1.994.455 2.991.91.554 0 .997-.114 1.44-.455.554 0 .997 0 1.44-.114.443.228.886.114 1.329.228.332.227.775.113 1.108 0 .886-.114 1.772-.228 2.658-.114.333.227.776-.114 1.108.227.332.341.554.114.886-.113.111 0 .222-.114.443-.114.443 0 .886-.227 1.329 0 .222.114.443.227.665.227.332.682-.554.341-.665.682h1.33c.553.227 1.107-.227 1.55.114 0 .113-.11.34-.11.454-.333.227-.776.341-1.219.341-.221-.227-.443-.114-.664.114h-.222v.34s-.111 0-.111.114c-.554.455-1.218.455-1.772.91 0 .113 0 .113-.111.226-.443 0-.886 0-1.218.114 0 0 0-.114-.111-.114v-.227c-.665-.454-1.329-.568-2.105-.454-.443 0-.886.113-1.218.454-.443.114-.997.114-1.44.227-.332-.113-.665-.113-.997-.227-.554 0-1.219 0-1.662.455 0 .113-.11.227-.11.454-.111 0-.111 0-.222.114-.665.114-.775-.227-.775-.682-.111-.34-.222-.454-.665-.34v-.114c-.554-.228-.997-.341-.443-1.023.111-.114 0-.227 0-.227-.665.227-1.329-.228-1.883-.114-.665.114-1.219.227-1.883.34-.332 0-.554-.454-.886-.454-.443-.34-.776-.227-1.108.228-.111.113-.222.227-.332.227-.443.114-.776.227-.997.568-.776.227-1.994.114-1.219 1.59 0 .114-.11.228-.11.342-.443 0-.665 0-.997-.455-.333-.568-.997-.681-1.551-.34-.111 0-.111 0-.111.113-.664 0-1.329.454-1.994 0-.221 0-.554-.114-.775-.114-.443.114-.775 0-.886-.34-.111-.455.11-.796.443-1.023a1.837 1.837 0 011.107-.341c.997-.227 1.994-.568 2.881-1.136.221 0 .553-.114.775-.114.332.227.554.114.886 0 .222-.114.111-.34.111-.568.886 0 1.883.227 2.215-1.023 1.662-.568 3.213-1.022 4.874-1.59h.443c.111 0 .222-.114.443-.114.222-.114.443-.227.554-.341.886-.114 1.662-.227 2.548-.34.554-.228.886-.91 1.55-1.137.776-.227.333-1.023.776-1.364a.339.339 0 00.221.114c.222 0 .443-.227.333-.454.332.113.664.113.886.34-.111 0-.332.114-.332.228.221 0 .443.227.664-.114.665-.568 1.662-.795 2.216-.909.996-.114.553-.568.775-.909.443-.227.221-.568.221-.909.222-.114.333-.227.554-.227.111 0 .333.113.443.113 0 .114.111.341.111.455.111.454.554.682.886.682.222 0 .554-.114.554-.341.111-.455-.111-.796-.554-1.023.333-.227.554-.568.886-.568.111.114.333.227.444.34.11.114.221.228.221.342 0 .454.222.568.554.568.111 0 .332-.114.443-.227.222-.455-.222-.341-.443-.569-.111-.113-.222-.34-.332-.454 0-.455-.222-.91.443-1.136.11 0 .332.113.443.113.11.228.443.114.664.114l.222.227c.554-.568 1.329-.454 1.883-.909.221 0 .443-.113.332-.34-.221-.455-.11-.796-.221-1.25.111-.114.221-.228.443-.114.332-.227.111-.568.332-.796.222-.227.443-.454.222-.681l-.333.34v.114c-.11 0-.221.114-.332.114-.111.34-.886.113-.665.795.222.455-.11.796-.332 1.136-.111.228-.111.341 0 .569h-.332v-.114c-.333-.114-.554-.455-.776-.795.111-.341.665-.114.665-.569-.443.114-.775-.227-1.218-.113 0-.227-.111-.455 0-.682.775-.114 1.55-.227 1.55-1.25h-.221c-.443 0-.222.341-.332.568-.444.455-.887.455-1.44.227 0-.227-.001-.34-.111-.568.443-.227.443-.568.443-.909-.222 0-.443-.454-.554 0-.222.682-.332-.113-.554 0-.221-.34.111-.681 0-1.022v-.227c.111 0 .222 0 .443.113.222 0 .443.114.776.114.11-.114.221-.227.332-.227 0 .34.111.568.443.681.221.227.443 0 .665.114.221-.227.11-.568.332-.91.221-.454.332-1.135-.554-1.249-.221.34-.554.568-.221 1.023l-.222.227c-.111 0-.222.114-.443.114a3.445 3.445 0 01-.554-.796c-.111-.113-.221-.34-.443-.227-.222.114-.111.34-.111.568-.221.34-.664.227-.997.454h-.221v-.227c0-.113 0-.34-.111-.454.222-.341.665-.227.886-.568.111 0 .222-.114.332-.114.222-.114.665-.34.665-.455 0-.34-.443-.113-.665-.34-.11 0-.332.113-.332.227l-.332.34c-.222.228-.554.342-.776.569h-.221s0-.114-.111-.114c.111-.34.665-.34.554-.795.332-.341.997-.455 1.108-1.023h.775c.332 0 .443-.227.443-.454 0-.114.111-.341-.111-.455-.221-.113-.443 0-.553.227-.222.228-.444 0-.665.114-.776-.227-.775-.227-.222-.795.443 0 .776-.114.997-.568v-.228c.443.228.776 0 1.219-.113v-.227c.221-.114.443-.341.554-.569.332-.227.664-.454.886-.681.332.227.664.34.886 0 .221-.228-.111-.455-.332-.455-.111-.227-.222-.34-.443-.34-.111.226-.333.227-.554.34-.111 0-.111.114-.222.114s-.221 0-.221-.114l.553-.568c-.11-.114-.221-.114-.443-.114-.221 0-.221-.227-.332-.34.111 0 .222-.114.443-.114.332 0 .554-.227.443-.455-.111-.227-.221.114-.332.114-.222 0-.443 0-.554.114 0-.455.222-.796.443-1.137h.554c.554-.568.222-.909-.222-1.136-.11-.114-.11-.114-.221 0 0 0-.111.114-.111.227v.114c0 .113-.111.227-.221.227h-.443c-.111-.113-.222-.34-.222-.454.221-.341.665-.341.886-.569-.332-.34-.775 0-1.108 0-.553-.568.444-.34.333-.681 0 0-.111-.114 0-.228 0-.113.111-.34.111-.454 0-.34-.111-.682-.111-1.023.332.114 0 .455.111.682 0 .114.11.114.221.227h.222c.332.228.11.796.553.91.776-.569 0-.796-.221-1.25.554-.114 1.218-.114 1.329-.796.443-.795.886-.227 1.219.114 0-.227.11-.455.11-.568.997-.228 2.105-.341 3.102-.682.443-.341.221-.568 0-.91-.332-.34-.554-.454-.997-.113-.111-.227-.222-.34-.443-.34-.222.113-.443.113-.665.227-.554 0-.997.227-1.44.454-.332.114-.554.114-.886.227h-.221c-.111 0-.111-.113-.222-.113.332-.227.775-.568 1.108-.796.221-.227.664-.227.332-.681-.332-.341-.775-.796-1.218-.455-.665.568-1.44.568-2.216.455h-.111c-.11-.114-.11-.114-.11-.228v-.113c.221-.228.332-.568.775-.341.222.114.332.114.554 0 .665-.227 1.329-.682 1.994-.795 0 0 .11 0 .11.113h.111c-.221.227 0 .34.222.568-.222.568.554.114.554.455-.111.227-.222.34-.111.568.111-.114.221-.114.332-.227.222-.114.554-.114.776-.114 0-.114-.111-.34-.222-.34 0-.114.111-.342.111-.455h.443c.221-.228.111-.455.111-.682h-.111c-.111-.227.665-.682-.222-.796-.443 0-.553 0-.553.455 0 .114-.111.34-.111.455-.111.113-.222.113-.333.227v-.114l-.332-.34c-.332-.455.111-.683.222-1.137-.333-.34-.776 0-1.108 0-.554.114-.443.795-.886 1.023l-.332-.341c.221-.227.11-.455.11-.682.222 0 .333-.114.443-.227 0-.114-.332-.228-.11-.455.664.114 1.218 0 1.44-.682 0-.113 0-.227-.111-.454v-.227c.554-.228.443-.568 0-.91-.111-.34.221-.454.332-.681h.222c.11 0 .221-.114.332-.114-.554-.454-.997.114-1.44.114-.222 0-.222-.227-.332-.341-.222.227-.333.455-.333.682 0 .34-.11.34-.332.227v.114-.114c0-.227-.111-.454-.111-.568-.332-.227-.775-.455-.775-.91-.332.115-.443.683-.997.569-.775.34-1.662-.227-2.326.682h-.443c-.111-.227-.222-.341-.333-.568l.222-1.023v-.114c.443-.227.332.796.554.341.332-.568.775-.34 1.108-.454.664.34 1.107-.455 1.661-.341.222-.341 0-.455-.221-.341-.333 0-.554.114-.887.227h-.221v-.113c-.443.113-.776.34-1.219.227-.332-.227-.664-.114-.886-.114-.443-.34-.886.114-1.329 0 0 0 0 .114-.111.114h-.332c-.111-.114-.222-.114-.332-.227-.111-.228 0-.455 0-.568h.11a.607.607 0 00.554-.341c.443-.114.776-.228 1.219-.228h1.55c.111 0 .222-.113.333-.113.443-.114.997-.227 1.44-.227.221-.114.443 0 .664-.341-.997.34-1.44 0-1.44-.91 0-.34-.11-.681-.332-1.022.111-.114.222-.227.332-.227.222 0 .443-.114.665-.114.332.114.665.114.886-.227V2.12s.111 0 .111-.113c.111.227.221.568.443.795.221 0 .443 0 .554.34.332-.113.554-.34.775-.567h-.111c.444-.682 0-.568-.443-.568 0-.455.554-.455.997-.91-.443 0-.775-.113-.886-.454V.075c-.221 0-.443.114-.664.114-.887-.114-1.773-.228-2.659-.114-.665-.227-1.108.114-1.661.34h-.222l-.111.114c-.332.114-.221.455-.443.682-.111 0-.332 0-.443-.113 0-.114.111-.114.111-.228.221-.113.221-.227 0-.454-.222 0-.443.113-.665.113-.332 0-.554.114-.886.114-.221 0-.443.114-.554.114-.886-.114-1.772-.228-2.658-.114-.333.114-.665.114-1.219.227.333.114.554.228.665.341 0 .227-.111.568-.111.796-.111 0-.221-.114-.443-.114-.554-1.023-.775-1.136-1.994-.455h-2.215c-.443-.113-.443.114-.443.455-.332.114-.333-.227-.443-.34-.443-.455-.997-.228-1.44 0-.443.226.111.34.221.454l-.332.34c-.222.341-.554.569-.775 0-.111-.34-.222-.568-.665-.454-.443.114-.886.114-1.218.227-.333-.113-.665-.113-1.108 0h-.332c-1.884-.454-3.656.341-5.539.682h-3.655c-.111 0-.222.114-.443.114-.222 0-.444.113-.665.113-.111 0-.222.114-.443.114-.886.113-1.662.34-2.548.454h-.443c-.332-.113-.775 0-1.108 0-.886 0-1.661-.227-2.547 0-1.551.455-3.213.682-4.874.796-.665 0-1.329-.228-1.994 0-.443.113-.775.34-1.218.454-.776.114-1.551.227-2.327.455h-.221c-.332-.114-.665-.114-1.108 0a1.5 1.5 0 00-.997 0c-.332-.114-.664-.114-.886 0h-.221c-1.33.227-2.659.568-3.988.795-.332 0-.665.114-.997.114-.886 0-1.772-.341-2.658.113-1.44.228-2.77.569-4.21.796h-1.107a.691.691 0 00-.665 0c-.665-.227-1.218.227-1.883.34-.775.114-1.551.342-2.326.455-.886.114-1.662.114-2.548.227-.886-.34-1.772.114-2.548.341-.664.114-1.218.228-1.883.341-.332 0-.664.114-.996.114h-1.994c-.776-.227-1.44 0-2.105.34h-.222c-.664.114-1.218.228-1.883.342-.332.113-.664.113-.996.227-.333-.227-.776 0-1.108 0 0 0 .111 0 .111.113 0 0-.111 0-.111-.113-.554-.114-.997-.114-1.551.113-.332.114-.775.114-.997.341-.775.227-1.661.341-2.437.568-.111 0-.332 0-.443.114-.111 0-.221 0-.443.114a1.844 1.844 0 00-1.108 0h.222-.443a1.844 1.844 0 00-1.108 0c-.332 0-.775.113-.997.34-1.883.569-3.877.796-5.871.91-.221-.114-.443 0-.664.113-.332.114-.776.114-.997.341-.222 0-.443.114-.554.114-.665.113-1.44.227-2.105.454-.221 0-.443.114-.664.114h-.111c-1.551-.341-3.101.227-4.541.909-.222 0-.444.114-.554.114-.443.113-.886.113-1.219.227h-.111c-1.329.113-2.658-.455-3.876.568-.665.114-1.33.227-1.884.568h-.221c-.111 0-.222 0-.443.114h-.222c-.664-.114-1.329.113-1.993.227-.665 0-1.44-.455-1.884.34-.775.114-1.55.342-2.215.683-.111 0-.221.113-.443.113-.332 0-.554.114-.886.114h-.222c-.554-.114-1.107.113-1.772.113-.443-.113-.775 0-1.108.228-.332 0-.775.113-.997.34-.553.114-1.218.114-1.661.569h-.111c-.886.113-1.661.227-2.548.34-1.218-.227-2.215.682-3.323 1.023-2.769.568-5.649.796-8.307 2.045-1.108.114-2.216.341-3.323.455-.554 0-.997.34-1.44.568-.222 0-.444.114-.665.227-.11 0-.222.114-.332.114-1.219.227-2.548.454-3.766.682-.554-.114-1.219 0-1.662.34a112.39 112.39 0 00-3.212 1.023c-1.662.227-3.323.114-4.763 1.136-.333.114-.886 0-.997.569-.997-.228-1.883.227-2.88.34a.69.69 0 00-.665 0c-.443 0-.775 0-1.108.341-.443.114-.775.341-1.218.455-.332 0-.554.114-.886.34-.11 0-.222.114-.332.114-.997.228-2.105.341-3.102.569h-.222c-.996-.114-1.661.568-2.547.909h-.111c-.554.113-.997.113-1.44.454-.11 0-.332-.114-.443.114l-2.326.34c-.333 0-.554 0-.886.114-.333 0-.554.114-.776.341-.332 0-.554.114-.775.34-.665.228-1.219.455-1.883.569-1.219.227-2.548.227-3.656.682-1.55.568-2.99 1.25-4.541 1.59-.443.114-.997.114-1.44.228-.443-.114-.776-.114-1.108.227-.221.114-.554.227-.775.34-.886.342-1.773.569-2.659.91-.443.114-.775.227-1.218.227h-.11c-.776 0-1.552-.114-2.216.455-.111 0-.222.113-.333.113-.221 0-.332 0-.443.227-.332.114-.664.341-.997.455-.664.114-1.44.227-2.104.568l-2.326.341c-1.108 0-1.994.682-2.991 1.023-.11 0-.332.113-.443.227-.776.114-1.44.34-2.216.454h-.443c-1.107-.113-2.215.114-3.101.796-.554.227-1.108.34-1.662.568-.997.227-2.104.34-3.101.568-.665-.113-1.33-.113-1.994.341-.443.114-.886.227-1.218.455 0 0-.111.113-.222.113-1.883.568-3.766.568-5.65.91-1.329.34-2.769.908-4.209 1.022-.332 0-.664 0-.775.34h-.11c-.111-.113-.222-.34-.554-.227-.997.114-1.994-.113-2.991-.113-.333-.114-.554-.227-.886-.227-.222-.114-.443-.228-.665-.114-.665-.227-1.33.114-1.883.227-.443 0-.775 0-.997.455-.222.568-.554 1.25-.775 1.818-.554.795-.997 1.704-1.219 2.613-.664.455-.775.795 0 1.25-.221.34-.775.795 0 1.25.11.114.11.454.222.682-.111.113-.111.34-.222.454-.221.341-.664.682-.443 1.136-.11.114-.11.228-.11.455-.111.34.22.568.332.795.11.341-.111.682-.222 1.136 0 .796 0 1.591-.11 2.273.11.454.22.795.22 1.25v.34c-.442 1.25.222 2.273.776 3.296.333 1.25.554 2.386 1.773 3.181.443.341.332 1.137 1.218 1.137.222.227.554.454.775.681 0 .228.222.455.333.569.332.34.553-.341.775-.114.11.114.222.227.222.34 0 .114 0 .114.11.228 0 .227 0 .455-.11.682-.443 1.023.11 1.477.997 1.704.553.568 1.218.91 2.104.568h.443c0 .341.333.228.554.228.332.227.665.34 1.108.227.664.227 1.44.114 2.215.114.332.113.554.227.886 0h.221c.222 0 .444 0 .665.113.444.227.111.455-.11.682-.554.114-.997.34-1.33.682-.221.113-.553.227-.11.454l.443.455c-.111.34.11.568.221.795 0 .682.776.682.997 1.023.665.454 1.551.227 2.216.454v-.113h.11v.113c.443.227 1.219-.34 1.33.455-.222.454-.554-.228-.776.113.11.341.443.228.665.341.332.227 0 .228-.111.341-.222 0-.443.114-.665.114-.332 0-.775 0-.664.454.11.341.554.227.775 0 .11 0 .222 0 .443-.113.554.34.776-.114 1.108-.455 0-.227-.11-.34-.11-.568h.11c.775-.227 1.662-.34 1.883-1.364.222 0 .443 0 .665.114.221-.114.443-.227.553-.454.665-.341 1.33-.569 2.105-.341.222.227 0 .454-.11.568-.222.113-.555.227-.776.454-.665-.113-1.108.114-1.219.796.444-.114.997 0 1.44-.455v-.113.113c.111.227.554.682-.11.796-.554.113-.111.454-.222.681 0 .114-.11.114-.11.228-.333.113-.887 0-.998.568l-.553.568c-.222.227-.444.34-.776.568a.607.607 0 00-.554.34c-.332.114-.886.114-.997.569 0 0-.11 0-.11.114h-.443c-.443 0-.887.113-1.219.454-.443 0-.554.341-.775.568h-.886c-.333.227-.665.341-1.108.568-.222.114-.332.228-.554.341-.221 0-.554 0-.665.341-.11 0-.11 0-.11.114-.554.113-1.108.227-1.662.454-.11 0-.221.114-.332.114h-.11c-.444-.114-.776.114-1.109.454-.443.114-.886.228-1.44.228-.332-.228-.553-.114-.775.227-.11.114 0 .34.11.454.222.228.333 0 .444-.113.443-.114.886-.341 1.218-.114.443.227.776 0 .997-.34 0 0 .111 0 .111.113.11.114.443-.114.443.227l-.11.114c-.444-.114-.776-.114-1.22.227l-.553.568c-.332.114-.997.114-.443.682.332.114.554 0 .775-.227l.111.113c-.11.114-.332.227-.332.455-.111.113-.222.34-.332.454-.333.114-.665 0-.776.341-.332.114-.775.114-1.218.227.443.455 1.107.91.554 1.705-.333.227-.554.568-.887.795-.221.114-.332.341-.553.455h-.997c-.554-.228-.997 0-1.44.227-.222.114-.443.227-.554.568-.665.114-1.108.341-.997 1.136 0 .455-.332.682-.776.796-.221-.227-.443-.114-.664 0v.227c.221.114.443.34.664-.114.554 0 .887-.34 1.44-.454v.34c-.332.455.333.342.333.569-.443.227-.997.454-.665 1.136-.332.455-.11.568.332.568.111 0 .333.114.443.114 0 .114 0 .114.111.227 0 .796.333.91.886.455.111 0 .222 0 .444-.114.553.34.886.454 1.661.114.665-.341 1.219-.796 1.994-.796.221-.227.886-.113.775-.795.665 0 .665-.682 1.108-.796.332-.227.775-.227.886-.681.332-.227.886-.227 1.219-.682.221 0 .443-.114.664-.114.111 0 .11 0 .222-.113.221-.114.332-.228.554-.341.221 0 .553-.114.775.114-.11.113-.11.227-.222.34-.221.114-.553.114-.775.455-.332.909-1.44.568-1.994 1.25-.332.227-.775.227-.886.568-.443.34-1.108.114-1.44.682l-.11.113c-.111.114-.111.228-.222.341-.443 0-.776.227-.776.796-.11.113-.221.113-.221.227-.332-.682-.665-.114-.886 0-.554.34-.997.795-1.551 1.136-.11 0-.222-.114-.222-.114-.221-.227-.553 0-.886 0h-.443c-.11-.227-.332-.34-.554-.227-.11 0-.11.227-.11.227.11.341.443.228.775.228.221.568.554 1.136 1.108 1.477.11.227.221.454.221.682 0 .681.222.909.886.568.222-.114.554-.114.776-.341.221-.114.554-.114.775-.455.554 0 .886-.341 1.44-.341 0-.113.11-.113.11-.227h.112c.664 0 .443.455.332.796l-.332-.114-.111-.114c-.222.682-1.219.341-1.33 1.137.111.227.665 0 .444.454-.111.227-.443.341-.665.455h-.11c-.112-.114-.333-.228-.444-.228 0-.113-.11-.113-.221-.113s-.333 0-.443.113c0 .341.443.682.221 1.023 0 .568.554.795.886 1.136.111.682 0 1.364.886 1.591.111 0 .111.114.222.114.332.227.886 0 .665.681-.111.228.332.228.553.228.222.227.444.227.665.113.332-.113.332.114.222.341-.222.341-.554.455-.997.455-.111-.114-.333-.341-.333-.114-.221.455 0 .682.443.795 0 .114 0 .114.111.228.111.34.111.681.222 1.022-.222.568.221.568.554.796 0 .227 0 .454.332.454.664.341.997 0 1.44-.454.554.568 1.108 0 1.661-.114.222.114.444.114.665-.114h-.11l.11.114c.554-.454 1.219-.454 1.883-.682.222 0 .443-.113.554-.113.221 0 .554-.114.775-.114l.997.682 1.33.341h.442c.111 0 .333.113.444.113.443.114.775.228 1.218.341.222.227.554.114.886.227.222.114.443.114.665-.113h.443c.665.341 1.218.341 2.105 0-.554-.341-1.108-.341-1.662-.455-.554-.227-.886-.681-1.55-.795-.333-.114-.887-.568-.222-1.023.332.228.554 0 .886 0 .664.228 1.33 0 1.883-.341.221.114.443.114.665.114.221.114.443.227.664.227.332.341.554.682.886 1.137.111.568.665.795.997 1.136.222.454.665.682.997.909.222.227.554.341.886.454.222.114.443.228.665.228 1.108.795 2.326 1.022 3.544 1.477.222.227.444.113.665.227.443.227.997.341 1.55.454.333.228.665.114 1.109 0 .443.114.775.341 1.218.455 1.108.227 2.215.341 3.323.568.11 0 .332.114.443.114.333.227.776.227 1.108.227.554.341 1.218.114 1.772.227.222.227.443.114.665.114.443.341.886.341 1.329.227.332.227.665 0 1.108 0 .221.227.443.341.775.341.886.114 1.772.341 2.659.454l2.215.455c0 .568-.554.568-.886.795a7.425 7.425 0 00-2.659.909h.111v-.113c-.775.113-1.55.341-2.215.909-.886.113-1.662.568-2.437 1.136-.443 0-.776.341-1.108.682-.443.341-.332 1.022.332 1.136 1.33-.227 2.327-1.25 3.656-1.136l.221.341a10.488 10.488 0 01-.775 1.59c-.443.341-1.108.455-1.55 1.023-1.108.341-2.327.682-3.213 1.477-.443.227-.997.341-1.33.796-1.218.454-2.547.681-3.544 1.59l-1.662.341c-.664.114-1.218.455-1.772.909-.443.227-1.55-.113-.886 1.023-.11.113-.11.341-.221.454-.333.228-.776 0-.997.341 0 .114-.111.227-.111.227-.111 1.023.554.909 1.218.796-.221.341-.332.682-.554 1.022-.997.114-1.993.228-2.769 1.023.997-.114 1.33.455 1.662 1.136.221.228-.111.796.554.569.11.227.11.568-.111.795l-.333.341c-1.44.113-.664 1.136-.775 1.818 0 .113-.11.113-.11.227-.444.227-.665.568-.444 1.023.333 1.136 1.33.681 2.105.909-.11.113-.222.341-.332.454-.776.114-.886.455-.554 1.023.443.682.886.682 1.55.454.887 0 .887.455.665 1.137-.11.34-.554.568-.775.795h-.222c-.11-.114 0-.455-.332-.341-.222.114-.222.341-.11.455-.222.568-.444.909-1.22.568-.442-.228-1.107-.228-1.55-.228-.222-.227-.332-.113-.554-.113-.554.113-.997.454-1.55.113-.111-.34 0-.795-.444-.909-.11 0-.332.114-.332.114 0 .227.11.568.332.682 0 .113-.11.341-.11.454-.776.114-1.662.228-2.438.455-.221-.227-.664.227-.775-.227.443-.682-.221-.455-.554-.682-.221-.114-.443-.341-.443 0 .111.568-.554.682-.664 1.136-.444 0-.997-.227-.997.568-.222.114-.665-.341-.776.455-.221 1.022-.332 2.5-2.104 2.5-.111 0-.111.227-.222.34-.332.114-.554.455-.443.796-.886.227-.997 1.363-1.883 1.477-.443-.341-1.108.227-1.55-.114-.333-.454-.887-.341-1.33-.454-.886.113-.997.113-.665.795.111.114.222.114.333.227.332.569 1.661 1.137.11 1.818 0 .114.111.114.111.228 0 .113.111.113.111.227.11.682-.11.909-.775.568-.111 0-.222.114-.443.114-.554-.114-1.108-.341-1.773-.341-.443 0-.997.227-1.329-.227-.332-.228-.554-.114-.886 0h-.222c-.553.681.333.909.554 1.363 0 .114-.11.341-.11.455-.222.227-.222.454-.333.681-.221.228-.443.228-.554.568-.221.341-.11.455.222.455.11 0 .11.114.221.114v.795c-.221.114-.443.227-.332.454.11.455-1.218 1.023.11 1.364 0 0 0 .114.112.114-.111.909-.887 1.59-.776 2.499-.11.455.111.682.554.796.443.227.997.341 1.33.795.22.341.442.568.553.909 0 .341.222.796-.11.909-.887.341-.222.568 0 .796.11.795.332 1.477.996 1.931.443.341.776.682 1.219 1.023.221.341.554.454.775.682.554.568.775 1.59 1.772 1.818l.554.568c.333.909 1.108 1.363 1.773 1.931.332.341.664.568.997.909.11.114.332.114.443.114l.221.227v-.568.568c.222.114.554.228.776.455.332.113.553.227.886.341l1.329.341c.11.113.332.227.443.34.11.228.221.341.443.341.222.114.443.341.775.455.222.227.443.454.776.454.221.228.554 0 .775-.113.665-.228 1.33-.228 1.883.227-.11.454 0 .682.443.909 0 .227-.221.568.111.795.222.228.665.341.886.455.443.227.886.341 1.33.227.553-.114 1.107-.341 1.661-.227.221.113.443.113.665.227.221.114.553.114.775.227.443.341.886.568 1.44.568 0 .114.11.341.332.341.443.568 1.108.909 1.773 1.137.11.113.332.113.443.227l.221.227c.111.227.222.341.443.341l.997.341.222.227c.554.341.997 1.023 1.883.682h.221c.111.113.333.114.443.227.554.227.776 1.023 1.551.909.776.114 1.219.909 2.105.909.664.114 1.44.341 2.104.341.444.227.887.227 1.44.114.222 0 .444.113.665.113.11.114.332.114.443.114.886.227 1.772.341 2.659.568.332.114.775.227 1.107.341.222.227.554.341.665.682-.222.909-.997.681-1.55 1.022-1.109.228-2.216.455-3.324.568-2.105.228-4.21.341-6.314.796h-.221c-.887-.114-1.773.227-2.659.568-.332.114-.775 0-.886.454 0 .341.332.455.554.682.221.341.443.455.775.568 1.883.568 3.877.455 5.871.114h.554c.665.114 1.218.227 1.772-.227.776.113 1.551-.114 2.326-.228.443 0 .997 0 1.44-.227h.554c1.773-.113 3.434-.568 5.096-1.022.443 0 .664-.341 1.107-.455 1.219-.341 2.548-.341 3.656-1.136.221 0 .443.113.664-.114.443-.227.997-.113 1.44-.454.222 0 .443-.114.554-.114.332 0 .775.114 1.108-.227.221-.114.443-.114.554-.341.443-.114.996.114 1.44-.114.221 0 .553 0 .664-.341.222-.113.332-.227.554-.34.11 0 .332.113.443 0 .997 0 1.772-1.023 2.88-1.023h.222c.443.341.775.113 1.107-.114.443-.227.997-.454 1.551-.454.443 0 .222-1.023.997-.682.222 0 .554.114.775.114.997.113 1.773-.796 2.77-.796.553-.113 1.218-.113 1.661-.454.443-.228 1.33-.114 1.33-1.023a1.505 1.505 0 011.218-.227c0 .227-.443.795.332.568.443-.114.886-.114 1.219-.455.221.228.443 0 .664-.113.776.113 1.44 0 1.883-.568.111 0 .222-.114.443-.114.222 0 .443-.114.665-.114h.221c.444.114.887.569 1.44.228.554-.114.997.227 1.551 0 .554.113.997.341 1.551.113 4.431-.113 8.751-1.25 13.071-1.818.554.228 1.108-.113 1.661-.113 2.77-.682 5.65-.568 8.419-1.137 1.44-.113 2.991-.113 4.431-.568.775.228 1.329-.341 1.993-.341 1.33 0 2.659-.34 3.988-.568.332.114.554.114.886 0l6.314-.681c.111 0 .222.113.332.113 2.88-.454 5.76-.682 8.751-.909 2.548-.227 5.095-.454 7.532-.682 1.551-.113 3.213-.113 4.763-.454.665.114 1.33-.114 1.884-.341 1.883-.227 3.766-.227 5.538-.682.886.114 1.772.114 2.769-.113.665.113 1.329-.114 1.994-.228.886-.113 1.662-.113 2.548-.227h.554c1.44-.113 2.769-.227 4.209-.454.111 0 .221-.114.443-.114.221.114.554.114.775.114.443.227.886 0 1.329-.114h.222c.997.114 1.994 0 2.991-.114.221.228.554.114.886 0 .332.228.775 0 1.108 0 .443.228.886.114 1.329 0 1.44-.227 2.769-.341 4.209-.113h.332c.665.227 1.33-.114 1.883-.227.222 0 .554-.114.776-.114.221.114.443.114.664.114 1.219.113 2.437-.455 3.656-.455h.664c.111.114.222.227.444.114.332.227.775 0 1.107 0 .997-.228 1.994-.569 3.102-.569.443.228.997.341 1.551.114a4.633 4.633 0 001.772 0c.221.114.443.227.664.114a3.59 3.59 0 001.551 0 1.2 1.2 0 00.886 0h1.33c.775-.114 1.661-.228 2.436-.341 1.108.682 2.327.227 3.434.113.443.228.776 0 1.219-.113.554-.114.997-.568 1.55-.341.111.114.333.114.444.114.553.227 1.107-.114 1.772-.114h.221c.887.227 1.773-.227 2.659-.341.221 0 .443 0 .665.114.221.227.553.113.886.113 1.329.114 2.547.228 3.877-.341.664-.227 1.218-.454 1.883-.34 1.55.568 2.99.113 4.43-.455.997-.454 1.994-.568 2.88.227.111 0 .111.114.222.114v.227c.221 0 .554-.113.775-.113.443-.114.997-.341 1.44-.228 1.219.228 2.437 0 3.656-.341.443-.113.997-.227 1.44-.34.443.227.886.113 1.218 0 .111-.228.554 0 .332-.455-.221 0-.553.114-.775.114-.222-.114-.443-.114-.665-.114-.221 0-.664.114-.775-.114-.111-.34.222-.568.443-.795.111-.114.332-.341.554-.341.775 0 1.218-.341 1.329-1.136.776-.455 1.551-.568 2.437-.341.665.227.997 0 1.108-.568h.886c.222.114.332.227.775.114.554-.228.997-.796 1.662-.569.332.228.775.569.886.455.554-.909 1.44-1.023 2.326-.909l.111-.114c1.44-.454 3.101 0 4.32-1.25l.332.341c.222.341.443.228.665-.113.332-.114.775-.341.554-.796a.662.662 0 00-1.108 0c-.111 0-.222 0-.332.114-.222-.227-.443-.455-.554-.682-.222 0-.222.114-.222.227 0 .228 0 .341-.221.341-.222.114-.443.114-.665.341-.111.114-.111.114-.111 0 0 0-.11 0-.11-.113h-.222c-.221 0-.443-.114 0-.455.222-.114.665 0 .776-.341.221-.113.332-.227.553-.341l.222-.227c.111 0 .221 0 .443-.114-.111-.681.554-.909.886-1.249.222-.228.332-.341.332-.569 0-.113.111-.227.111-.227.111 0 .222 0 .332-.113.111 0 .111.113.222.113.443.114.886.114 1.218-.113.333-.228.554-.114.887 0 .332-.682.997-.796 1.55-1.25h.222c.443 0 .665-.455.886-.796.332-.341 1.108-.454.665-1.136.886-.568 1.329-1.704 2.326-2.045.332-.114.332-.455.443-.796.332-.113.554-.568.665-.795.775-.341.332-.795.221-1.25 0-.114.111-.114.111-.227.332-.568.111-1.25.775-1.591.111-.114.111-.227.111-.454.886.34.665-.341.775-.796.665-.113.776-.682 1.219-1.022.111 0 .221-.114.332-.114.332-.455.443-1.023 1.108-1.023.221-.227.554-.454.332-.795.222-.114.443-.227.776-.227h.11c.111.113.222.113.333.113.11-.113.11-.227.221-.454.665-.228.111-.796.332-1.137.111-.227-.221-.568.111-.795.554 0 .997 0 .776.909.443-.682.886-1.25 1.661-1.363.332-.114.886.227 1.219-.228-.443-.227-.887 0-1.219.114-.554 0-1.44.341-1.218-.795.11 0 .332.113.443-.114.886-.568 1.661-1.136 2.547-1.704.111 0 .222-.114.333-.114.664.114 1.107-.341 1.661-.682h-1.107c-.443 0-.333-.227-.222-.454.332-.114.775-.114.997-.455l.332-.682c.222-.568 0-1.363.886-1.818-1.329.228-1.329.228-1.883.114 0-.114.111-.227.111-.341.111 0 .222-.113.443-.113.332-.114.665-.228.997-.455.665-.341.554-1.25 1.219-1.704.443-.114.886 0 1.218-.455.222 0 .443.114.665.114 1.218-.568 2.547-.568 3.655-1.477-.222-.114-.332-.228-.554-.455-1.661-1.136-2.104-.909-2.326-.909z" fill="#FD0"/></svg>