<svg width="666" height="292" fill="none" xmlns="http://www.w3.org/2000/svg"><path d="M659.498 199.68c-.25 0-.25-.166-.5-.166.5-.332 1.25-.664.25-1.161-.5-.166 0-.332.25-.498.25.166.75.166 1 0 .251-.166.251-.332 0-.332-1.25-.166-2.75-.331-4.001-.497-.25 0-.5 0-.5.166v.165c-.5 0-1-.497-1.75-.165h-1.001c-.5 0-1-.166-1.25-.166-.5-.332-1-.166-1.501 0-1 .829-2.25.331-3.251.331-.25 0-.75-.165-1-.165-2 .165-4.251.497-6.252.165v-.331c.5-.332.25-.664 0-.83-.25 0-.5-.166-.75-.166.5-.331 1-.497 1.5-.663.501-.166 1.001-.166 1.501-.166h.25v.498c1 1.161 2.501.995 4.251.497.501-.332 1.001-.663 1.501-1.161.25.332.75.166 1.25.166l.25-.166c.25.166.5.332.75.332 0 .332.251.663.751.829.75 0 1.5-.166 2.25-.166 1.001 0 2.001.166 3.001.166.25 0 .5.166.5.166.751-.332 2.001 0 2.751-.663v-.332c0-.166-.25-.166-.25-.332-.25-.166-.75-.332-1-.498 0-.166 0-.332.25-.332 0-.165.25-.331 0-.497-1.25-1.161-3.001-.83-4.501-.664-1.001.166-2.001.166-2.751.332-1.251-.664-2.251-.332-3.001.332-.25 0-.25 0-.25.166-.5 0-1 .497-1.501.331-2.5-1.493-5.501-.497-8.502-.663-.5 0-.75-.83-1.501-.166-1.75.498-3.501 0-5.251.332-.25 0-.5-.166-.5-.166-2.751 0-5.502-.166-8.253 0-1.25.166-2.751-.332-4.001.498h.25-.25c-1.501.165-2.751-.83-4.251-.332h-.501c-.75-.332-1.75 0-2.5 0h-.501c-.75 0-1.25-.498-2-.332-.75.166-1.751 0-2.251.498a33.28 33.28 0 00-5.752 0c-1.25-.332-2.5 0-4.001 0-1.5-.166-.25.663-.25.829l-.5.332c-.25 0-.5 0-.75.166-.5-.166-1.25-.332-1.501-.332-2.5.664-4.751.332-6.501-.829-1.001.331-2.001-.332-3.001.165-1.251.332-2.001-.497-3.001-.497h-1.001c-1.5.663-2-.996-3.501-.498-1.25.166-2.5-.166-3.751.166-.25-.166-.75-.166-1-.166h-.5a2.324 2.324 0 00-1.501 0h-.25c-.5-.166-.75 0-1.25.166-.75 0-1.25.166-2.001.166 0-.498-2.5-.995-.5-1.659.25 0 .25.166.5.166.751.166 1.501.332 2.251 0 .5-.166.75-.332 1.25-.498.5-.166 1.501.332 1.501-.166 0-.497.25-1.161-1.001-1.493-.75-.166-1.25-.166-1.5.332v.332h-.25s0-.166-.25-.166-.75-.166-1 0c-.751 0-1.501.166-2.001.498l-.25.165v-.165c-.25-.332-.5-.664-1-.996-.751-.332-1.251-.497-2.001-.332h-.25c-.5-.165-.75-.331-1.25-.165 0-.166 0-.332-.251-.664v-.332c.251 0 .251-.166.501-.166.75.166 1.25.498 2 .498.25.166.25.166.5.166h.25c.25-.166.251-.166.251-.332.25 0 .75-.166 1-.166 0-.166.25-.166.25-.332-.5-.331-1-.331-1.501-.166 0-.331-.25-.663.751-.497.75 0 1.25 0 1.75-.332 0 .498-.5.995.25 1.327h.25c1.251 0 2.501-.166 3.751-.498v-.331c-.25-.664-1.5-.664-1.5-1.327v-.332c1-.83-1-.664-1-1.161l.25-.664c.75-.664.5-1.493.75-2.323-1-.829.5-1.493.5-2.156.75-.166 1.751.166 2.251-.332.25 0 .25.166.5.166v.498c.25-.166.5-.166 1-.332v-.332l.25-.166c0-.166 0-.332-.25-.498.25 0 .501 0 .751-.165v.165c.25-.165 1.25-.331 1-.663s-.75.166-1.251.166l-.5-.166c-.5 0-1 .166-1.5.166s-.5.166-.5.332c-.501 0-.75 0-1.001.165-.5-.165-1-.331-1.75-.331-.5.166-.75.331-.75.663-.5 0-.751.166-1.251.332-.25-.166-.5-.498-.5-.829.25-.332.75-.83 1-1.162v.166c.501 0 .751-.166 1.251-.332.25-.166.25-.166.5-.166 0 0 .25 0 .25.166-1.25.664-1.25.83-.25.996.25-.166.5-.332.5-.664h.25c.25 0 .5 0 .75-.166.251.332.501.498 1.251.332-.25-.664 0-.995 1.25-.995 0-.166.25-.332.25-.332.25-.166.25-.498.5-.664.25-.166.501-.663 0-.663-.75-.166-.75.497-1.25.663l-.5.332c-.5 0-1 0-1.251.166-.75-.332-1.5 0-2 0-1.25.166-2.251 0-2.501-.829l.5-.332c1.751-.332 3.751-.166 5.502-.996 1.5-.165 2.251-1.327 4.001-1.327 2.001 0 4.001 0 5.002-1.327.75-.166 1.5 0 1.75-.498.5-.663.5-1.161-.75-1.161 0-.829.75-.332 1.25-.332.75.83 2.251.166 3.501.498.501.166 1.501 0 2.001-.498.5-.497-.25-.829-.75-1.161-1.001-.332-1.501.332-2.251.664-.75 0-1.25-.332-1.25-.83.75-.332 1-.829.25-1.161 0-.498-1.501-.83-1.001-1.493l.501-.332 1-.663c.25 0 .25 0 .5-.166.5-.166 1-.83 1.501.166 0 .995.75.663 1.5.165.5-.331.5-.829 1.25-1.161 2.001-.663-.75-.663-.5-1.161.25-.332-1.25-.332-1.5 0-.5.995-2.251 1.161-3.251 1.659l-1.001.663c-1-.497-2-1.327-3.501-.995-.5 0-.75 0-1 .332-1.5 0-1-.83-1.25-1.327 1.25-.664 2.751-1.162 1-2.323-.5-.332-.5-1.161.25-1.659.25-.166.5 0 .5.332-.5.166-1 .498-.75.995.25.332 1 .166 1.25 0 1.001-.165 1.251-.663 1.251-1.161.25 0 .5-.166.75-.166.25.332.25.83.5 1.327 1.251-.829 2.501-1.493 3.001-2.488 1-.664-1.5-1.327 0-2.157.75.166 1.501 1.162 2.001.332.5-.498 1-1.825-1.251-1.991.25-.331.25-.829 1.001-1.327-2.251.498-1.751-.497-1.751-1.327-1.25.664-2.501 1.161-3.501 1.825 0 .498.5.332 1 .332 0 .166 0 .332.25.497-.25.166-.5.332-1 .498-.5.166-.75.332-1.25.498 0-.332 0-.83.25-1.161-.5.165-.75.497-1.251.331v.166-.166c0-.331-.25-.663-.25-.995 1.001-.498.751-.995.5-1.659 0-.498-.25-.829-.25-1.327l-.25-.83c1.001-.497 2.001.83 3.001-.166.25.166.5.332.75.664.501.498 1.251.995 2.001.332.5-.498-.75-.83-1.25-1.161 0-.996 1.25-1.825 1.75-2.655 0-.166.25-.166.25-.331.501-.166 1.001-.332 1.001-.83-1.001.166-2.251 0-3.001.498-1.001-.996-2.751-.166-4.002-.498.251-.498 1.501-.498 1.501-1.161 0-.166.25-.166.25-.332.5-.166.5-.498 0-.664-.5-.165-1 0-1.25.166-.25 0-.5.166-.751.166-1 0-2 .664-3.251.332.501-.332.751-.829.751-1.327.25-.166.5-.498.75-.664.5-.332 1.75-.331 1.75-1.161.251 0 .751 0 1.001-.166v-.332c0-.663 1.25-1.161 1.25-1.659.25-1.161-2 .332-2.251-.663 0-.166 0-.166-.25-.332.25-.166.5-.332.75-.332 1.751-.663 3.252-1.493 4.002-2.654-.5-2.157-2.001-.332-3.001-.166-1.251 0-2.501.166-2.751 1.161-.25 0-.25 0-.5.166v.332c-1 .332-2.001.829-2.751 1.161h-.5c-.25 0-.75.166-1 .166l-.25.166-1.501.498c-1-.166-.75-.83-1-1.327-.5 0-1 0-1.251.497l-.75.498c-.5-.332-1 0-1.5.166-1.251 0-2.251.829-3.751.663-.25-.497-.251-.829.75-.995.5.332.75 0 1-.166.75-.166.75-.663.75-.995.751 0 1.501-.166 2.001-.498v.166c1.5 1.161 2.251 0 3.001-.498.5-.331 1-.663 1.75-.829.751-.83 2.001-1.161 3.251-1.659.25-.664-.5-.995-1.25-1.161h-.25c.25-.332.25-.498-.25-.664-.25.166-.5.498-.25.664-.5 0-1.001-.166-1.251-.498v-.332c.25-.829 0-1.659 1.501-2.156.5.165 1 .331.25.829-.25.332-.5.664.5.664l.75-.498c1.251-.166 2.501-.332 3.751-.83v-.165c.751-.166 1.251-.166 2.001-.332 1.751-.332.75-.664 0-.996-.5.166-.75.83-1.751.498-.5-.332-1 .166-1.5.166-.5-.332-.25-.664-.25-.995h.25c1.25-.332 2.501 0 3.251-.996 0-.663 3.751-1.493 0-2.156 1-.996 2.001-1.825 4.001-.83 1 .498 2.001 0 2.751-.498.75-.331 1-.829 2.001-.829.25 0 .75.166 1 .166.5.498 1.25.498 2.001.332 1-.166 1.75-.166 2.75-.332h.501c1 .498 1.75.332 2.5-.332h.5c.751 0 1.251-.166 2.001-.166 2.251.332 2.501-.332 2.001-1.493 0-.166-.25-.166-.25-.332.75-.166 1.75-.166 2.5-.331 0 .165-.25.165 0 .497.751 1.493 2.251.83 3.501.498.751 0 1.501-.166 2.251-.166.5 0 1.25.166 1-.498-.25-.331-.5-.663-1.25-.166-.75.498-1.25 0-1.751-.165 0-.996-.75-.996-2-.664 0 0 0-.166-.25-.166-2.251.166-4.002.498-6.002 1.161.25.166.75.166 1 .332-.5.166-1.25.166-1.75.498-.25 0-.5.166-.751.166-.5 0-1-.166-1.25-.498.25-.332.5-.664.25-.995v-.664h-.25.25c.75-.332 1.751-.663 2.751-.663 2.001.165 4.251-.166 6.252-.498 2.001-.664.25-1.161 0-1.825h-.25.25c1-.829 3.251.332 4.001-1.161-.25-.166-.5-.332-.5-.498h-2.001c-.75-.332-1.25 0-1.75.166 0-.166-.25-.332-.25-.498v-.166c.75-.166 1.5-.331 2.25-.331h.5c.251 0 .251.166.501.166 1 .331 2-.001 2.751-.332-1.001-.83-.251-1.162 1-1.162.25-.331.75-.331 1.25 0 1 .83 1.251.83 2.751 0 .5 0 1-.165 1.5.166.501 0 .501-.166.501-.331v-.332c.75 0 .75-.498 1.25-.83.5 0 .75-.166 1-.332.5.166 1.251.664 1.251-.165v-.498c1.25-.664-.25-.83-.25-1.161 0 0-.251-.166 0-.332.25-.166.25-.332 0-.664-.251-.166-.501-.166-1.001-.331-1-.332-2-1.162-2.751.165-.25.166-.5.166-.75.166.25-.166.5-.331.75-.663 0-.166.001-.332-.25-.498-.75.332-1.5.664-2.25.83 0 .331.25.331.5.497-.5 0-1.251.166-1.751.166a.387.387 0 000-.663c-.25-.166-.25-.166-.5-.166h-.25c0-.166-.25-.498-.25-.664-1 .166-.75.664-.75.995h-.25c-.25.166-.5.332-.75.664 0 0-.001.166.25.166.75 0 .75.498 1 .829 0 0 0 .166-.25.166 0 .332 0 .664.25.996-.25 0-.5 0-.75.165v-.497c-.25-.83-.751-1.327-2.251-.664-.75.332-1 .166-1.501.166.501-.166.501-.498.251-.663 0-.166-.251-.166-.251-.332.501-.664.251-1.161-.75-1.493h-.25c0-.332-.25-.83.75-.996.751-.331 1.501-.497 1.001-1.327h-.25.25c.25 0 .75-.166 1-.332.25.166.5.166 1 .166v.332c-.5.332-.25.664-.25.995.25.332.5.498.751.83.75-.166.5-.83 1.25-.995.25.165.5.165 1 .165.25-.497.75-1.161-.75-1.161 0-.166 0-.332-.25-.497.75-.166 1-.664 1.75-.83.501 0 .751-.166 1.251-.166 0 .166.25.166.25.166.5.166 1.25.166 1.5.332 1.001 1.659 2.001.663 3.001 0 .25.166.25.332.75.332h.251c.5.497 1 .166 1.75.166 0 0 .25 0 .25.165h.5c.751-.165.75-.663 1.001-.995.25-.332.25-.829.25-1.327 1-.332 1.25.995 2.25.332.751-.498 0-.996-.75-1.327-.5 0-.5 0-.75.165-.25-.331-.5-.497-.75-.663-.25 0-.751-.166-1.001-.166.25-.995-.75-1.659-1.5-2.323 1-.995-1.25-1.16-1.25-1.99-.251 0-.751.166-1.001.166-1 .83-.75 1.493.25 2.156.25.166.75.332 1.001.332-.501.332-.501.83 0 1.161-.251 0-.25 0-.25.166-.251 0-.251-.166-.501-.166-.25-1.161-1 .166-1.5-.166-.25 0-.5-.166-.5-.166-1.251-.497-3.001-.331-4.001-1.16.5-.167.75-.332 1.25-.498.25.497 1 .829 2.001.497 1.5-.83-.751-1.825.25-2.82 0 0 .25 0 .25-.166.5 0 1 .166 1.5.166 0-.166 0-.332-.25-.664-.25-.663-.5-1.327-.5-1.99.5 0 1.25 0 1.25-.498-.25-.166-.75-.332-1-.498.5-.331.25-.663.25-.995v-1.659c1.5.166 3.001.166 4.251.995 0 .83.501 1.493 2.251.996 2.501-.664.25-1.161 0-1.825 1-.166 2.001-.166 2.751-.664.25 0 .5.166.75.166.5 0 1.25.332 1.501-.166.25-.663-.751-.331-1.251-.497-1-.166-2.251 0-3.251.166h-1c-.75-.332-1.25-.166-2.001 0-.5 0-1 .165-1.5.165-.5.332-1.251-.165-1.751.166 0-.166 0-.166-.25-.166-2.25.166-4.501.664-6.752.332-1.25.166-2.501.332-3.751.332-1 .498-2.001.498-3.001.166-1-.332-2.25-.995-3.501-.166-.25.166-1-.166-1.5-.332-.501-.497-1.001-.332-1.501 0h-.25c-.75-.166-1.5 0-1.5-.663 1 .166 2 .331 2.25-.664v-.166c.25-.166.501-.663.751-.497 2.75.165 1.5-.83 1.25-1.494 1.25-1.327-1.751-1.824-1.25-2.82l.75-.497c.25 0 .75.165 1 .165.5 0 1 .166 1.501.166h.5c1.25.332 3.001-.166 3.501.332 1.5 1.162 1.25-.166 1.75-.332 1.001-.83 1.751.166 2.501 0 .75 0 1.5.166 1.751-.497.5-.664.25-1.162-.501-1.493l-.25-.166c-.5-.332-1.25-.332-1.75-.498.25 0 .5 0 .75-.166.25 0 .5 0 .75-.166-.75-1.327-2-1.659-4.001-.995-.5.166-1.25.332-1.751.498v-.166c-.75-.498-1.5-.996-2.75-.83l-.25.166c-.751 0-1.251 0-1.501.664h-.5c-.25-.166-.5-.332-1-.166-.25-.166-.25-.498-.75-.332-.501.332-.25.664 0 .995-.25 0-.501-.165-.751-.165-.5 0-1 0-1.25.165h-.25c-.25-.165-.75-.165-.75-.331.5-1.162-.5-1.162-2.001-.996-.5 0-.75 0-1-.166-1.751-.331-3.251-1.16-5.502-.995 0-.166 0-.332-.25-.498l-.25-.166.25-.165c1.25.331 2.751.165 4.001 0 1 0 1.251-.332 1.001-.664.75.166 1.5.166 2.25.166 1.25 0 2.251 0 3.501.332 1.251.166 2.751.166 4.001-.332.25-.166.251-.166.251-.332 0 .166.5.166.5.166.5 0 1 .166 1.5.166.75 1.327 2.001 1.825 4.251 1.327.751-.166 1.751 0 2.501 0 .5-.332 1.501-.166 1.251-.83-.501-.331-1.001-.165-1.501-.331h.5c1.751-.498 1.751-.996.25-1.66-1.25 0-2.5 0-3.751.167-1.25-.332-2.751-.498-4.001-.332-.5 0-1-.166-1.5-.166-2.001-.83-4.002-.332-6.002-.166-.5-.166-.75-.166-1.001.166-.75-.166-1.75-.166-2.5-.332-2.251 0-4.502 0-6.752-.166-1.001-.331-2.001.166-3.001-.165-2.501-.498-4.752-.664-7.253-.332-.75.166-1-.332-1.5-.332-1.75-.332-3.751-.664-5.502 0 .751 1.161 3.251.663 4.252 1.493.5.332 1 .498 1.75.663.25.166.5.332 1 .166 2.001 0 3.251-1.493 5.502-.995.25 1.493 2.751.995 4.001 1.659-.5.83-3.751 1.825-4.501 1.327-2.251-1.493-4.501-.663-6.752 0-.5-.995-1.75-.332-2.501-.332-.75-.165-1.75-.166-2.5-.331-.501 0-1.001.165-1.501.165-.25 0-.5 0-.75.166 0 .166 0 .332.25.498-.25.166-.25.498-.5.664h-1.001c-.25 0-.25-.166-.5-.166 0-.166.751-.498.5-.664-1-.166-2-.332-3-.663-.751-.332-1.251.165-2.001 0 0 0 0-.166-.25-.166-.75-.166-.75-.332 0-.664l.5-.332c.5 0 1-.166 1.25-.166.501 0 1.501 0 1.751-.331.25-.498-.75-.664-1-.83-.5-.332-1.001-.498-1.751-.83l-.5-.331c-.25-.83-2.501 0-2.501-.83 0-2.156-2.25-1.493-4.001-1.327-1.5-.166-3.001-.166-4.501-.332-.25 0-.501 0-.751.166-1-.331-1.75-.165-2.5.332-.5 0-1.001-.166-1.251.166-1.75.332-3.501-.498-5.251-.166-3.501-.83-7.252-.166-10.753-.166-1.001 0-2.251 0-3.252.166-1-.332-2 0-3 0-.25-.166-1.001-.332-1.001-.498-.5-.829-1.5-.497-2-.165-.75.331-.25.829.25 1.16 2.25.333 4.501.664 6.752 1.328 1.25 0 2.251-.166 3.251-.664 1.25 0 2.25 0 3.251-.166 1 .332 2 .166 3.001.332.75.332 1.75.166 2.5 0 2.001-.166 4.002-.332 6.002-.166.751.332 1.751-.166 2.501.332s1.25.166 2.001-.166c.25 0 .5-.166 1-.166 1 0 2-.331 3.001 0 .5.166 1 .332 1.5.332.751.996-1.25.498-1.5.996h3.001c1.25.331 2.5-.332 3.501.166 0 .165-.25.497-.25.663-.751.332-1.751.498-2.751.498-.5-.332-1-.166-1.501.166h-.5v.497s-.25 0-.25.166c-1.25.664-2.751.664-4.001 1.327 0 .166 0 .166-.25.332-1 0-2.001 0-2.751.166 0 0 0-.166-.25-.166v-.332c-1.5-.663-3.001-.83-4.751-.663-1.001 0-2.001.166-2.751.663-1 .166-2.251.166-3.251.332-.75-.166-1.501-.166-2.251-.332-1.25 0-2.751 0-3.751.664 0 .166-.25.332-.25.663-.25 0-.25 0-.5.166-1.501.166-1.751-.331-1.751-.995-.25-.498-.5-.663-1.5-.498v-.166c-1.251-.331-2.251-.497-1.001-1.493.251-.166 0-.331 0-.331-1.5.331-3-.332-4.251-.166-1.5.166-2.751.331-4.251.497-.75 0-1.25-.663-2.001-.663-1-.498-1.75-.332-2.5.332-.251.165-.501.331-.751.331-1 .166-1.75.332-2.25.83-1.751.332-4.502.166-2.751 2.322 0 .166-.25.332-.25.498-1 0-1.501 0-2.251-.663-.75-.83-2.251-.996-3.501-.498-.25 0-.25 0-.25.166-1.5 0-3.001.663-4.501 0-.5 0-1.251-.166-1.751-.166-1 .166-1.75 0-2-.498-.251-.663.25-1.161 1-1.493.75-.332 1.5-.498 2.501-.498 2.25-.331 4.501-.83 6.502-1.659.5 0 1.25-.165 1.75-.165.75.331 1.25.166 2.001 0 .5-.166.25-.498.25-.83 2 0 4.251.332 5.001-1.493 3.751-.83 7.252-1.493 11.004-2.323h1c.25 0 .5-.165 1-.165.5-.166 1-.332 1.25-.498 2.001-.166 3.752-.332 5.752-.498 1.251-.332 2.001-1.327 3.501-1.659 1.751-.332.751-1.493 1.751-1.99.25.166.5.166.5.166.5 0 1-.332.75-.664.75.166 1.501.166 2.001.498-.25 0-.75.166-.75.331.5 0 1 .332 1.5-.166 1.5-.829 3.751-1.16 5.001-1.327 2.251-.166 1.251-.83 1.751-1.327 1-.332.5-.83.5-1.327.5-.166.75-.332 1.251-.332.25 0 .75.166 1 .166 0 .166.25.498.25.664.25.663 1.25.995 2.001.995.5 0 1.25-.166 1.25-.498.25-.663-.25-1.16-1.25-1.493.75-.331 1.25-.83 2-.83.25.167.75.333 1 .499.251.166.501.331.501.497 0 .664.5.83 1.25.83.25 0 .75-.166 1-.332.5-.664-.5-.498-1-.83-.25-.165-.5-.497-.75-.663 0-.664-.5-1.327 1-1.66.25 0 .75.167 1 .167.25.332 1.001.166 1.501.166l.5.331c1.25-.829 3.001-.663 4.251-1.327.5 0 1.001-.166.75-.497-.5-.664-.25-1.162-.5-1.825.25-.166.5-.332 1-.166.751-.332.251-.83.751-1.161.5-.332 1-.664.5-.996l-.75.498v.166c-.25 0-.5.166-.751.166-.25.498-2 .166-1.5 1.161.5.664-.25 1.161-.75 1.659-.25.332-.25.498 0 .83h-.75v-.166c-.751-.166-1.251-.664-1.751-1.162.25-.497 1.501-.166 1.501-.83-1.001.167-1.751-.331-2.751-.165 0-.332-.25-.664 0-.995 1.75-.166 3.501-.332 3.501-1.825h-.5c-1.001 0-.501.497-.751.83-1 .663-2 .663-3.251.331 0-.332 0-.498-.25-.83 1.001-.331 1.001-.829 1.001-1.327-.501 0-1.001-.663-1.251 0-.5.996-.75-.166-1.25 0-.5-.497.25-.995 0-1.493v-.331c.25 0 .5 0 1 .165.5 0 1 .166 1.751.166.25-.166.5-.331.75-.331 0 .497.25.829 1 .995.5.332 1.001 0 1.501.166.5-.332.25-.83.75-1.327.5-.664.75-1.66-1.25-1.825-.501.497-1.251.83-.501 1.493l-.5.332c-.25 0-.5.166-1 .166a5.7 5.7 0 01-1.25-1.162c-.251-.166-.501-.497-1.001-.331-.5.165-.25.497-.25.829-.5.498-1.5.332-2.251.664h-.5v-.332c0-.166 0-.498-.25-.664.5-.498 1.501-.332 2.001-.83.25 0 .5-.165.75-.165.5-.166 1.501-.498 1.501-.664 0-.497-1.001-.166-1.501-.497-.25 0-.75.165-.75.331l-.75.498c-.5.332-1.251.498-1.751.83h-.5s0-.166-.25-.166c.25-.498 1.5-.498 1.25-1.162.751-.497 2.251-.663 2.501-1.493h1.751c.75 0 1-.332 1-.663 0-.166.25-.498-.25-.664-.5-.166-1.001 0-1.251.332-.5.332-1 0-1.5.166-1.751-.332-1.751-.332-.5-1.161 1 0 1.75-.166 2.25-.83v-.332c1.001.332 1.751 0 2.751-.166v-.331c.5-.166 1.001-.498 1.251-.83.75-.332 1.5-.663 2-.995.75.332 1.501.498 2.001 0 .5-.332-.25-.664-.75-.664-.25-.331-.501-.497-1.001-.497-.25.331-.75.331-1.25.497-.25 0-.25.166-.5.166s-.5 0-.5-.166l1.25-.83c-.25-.165-.5-.165-1-.165s-.5-.332-.75-.498c.25 0 .5-.166 1-.166.75 0 1.25-.331 1-.663s-.5.166-.75.166c-.5 0-1 0-1.25.166 0-.664.5-1.162 1-1.66h1.25c1.25-.829.5-1.327-.5-1.658-.25-.166-.25-.166-.5 0 0 0-.25.165-.25.331v.166c0 .166-.25.332-.5.332h-1.001c-.25-.166-.5-.498-.5-.663.5-.498 1.501-.498 2.001-.83-.75-.498-1.751 0-2.501 0-1.25-.83 1-.498.75-.995 0 0-.25-.166 0-.332 0-.166.25-.498.25-.664 0-.497-.25-.995-.25-1.493.751.166 0 .664.25.996 0 .165.25.165.501.331h.5c.75.332.25 1.162 1.25 1.328 1.751-.83 0-1.162-.5-1.825 1.25-.166 2.751-.166 3.001-1.162 1-1.16 2-.331 2.751.166 0-.331.25-.663.25-.83 2.25-.33 4.751-.497 7.002-.994 1-.498.5-.83 0-1.328-.75-.497-1.251-.663-2.251-.166-.25-.331-.5-.497-1-.497-.5.166-1 .166-1.501.332-1.25 0-2.25.331-3.251.663-.75.166-1.25.166-2 .332h-.5c-.25 0-.25-.166-.501-.166.751-.332 1.751-.83 2.501-1.161.5-.332 1.501-.332.75-.996-.75-.497-1.75-1.16-2.75-.663-1.501.83-3.251.83-5.002.663h-.25c-.25-.165-.25-.166-.25-.331v-.166c.5-.332.75-.83 1.751-.498.5.166.75.166 1.25 0 1.5-.332 3.001-.995 4.501-1.161 0 0 .25 0 .25.166h.25c-.5.332 0 .497.501.83-.501.829 1.25.165 1.25.663-.25.332-.5.497-.25.83.25-.167.5-.167.75-.333.5-.165 1.25-.166 1.751-.166 0-.165-.251-.497-.501-.497 0-.166.251-.498.251-.664h1c.5-.331.25-.663.25-.995h-.25c-.25-.332 1.5-.995-.5-1.161-1.001 0-1.251 0-1.251.663 0 .166-.25.498-.25.664-.25.166-.5.166-.75.332v-.166l-.75-.498c-.75-.663.25-.995.5-1.659-.75-.498-1.751 0-2.501 0-1.25.166-1 1.161-2.001 1.493l-.75-.498c.5-.331.25-.663.25-.995.501 0 .751-.166 1.001-.332 0-.166-.751-.331-.25-.663 1.5.166 2.75 0 3.251-.996 0-.165 0-.331-.25-.663v-.332c1.25-.332 1-.83 0-1.327-.25-.498.5-.664.75-.995h.5c.25 0 .5-.166.75-.166-1.25-.664-2.25.166-3.251.166-.5 0-.5-.332-.75-.498-.5.332-.75.663-.75.995 0 .498-.25.498-.751.332v.166-.166c0-.332-.25-.664-.25-.83-.75-.331-1.75-.663-1.75-1.327-.75.166-1 .996-2.251.83-1.75.498-3.751-.332-5.251.995h-1.001c-.25-.332-.5-.497-.75-.83l.5-1.492v-.166c1.001-.332.751 1.161 1.251.497.75-.829 1.75-.497 2.5-.663 1.501.498 2.501-.664 3.752-.498.5-.497 0-.663-.501-.498-.75 0-1.25.166-2 .332h-.5v-.166c-1.001.166-1.751.498-2.751.332-.75-.332-1.501-.166-2.001-.166-1-.497-2 .166-3.001 0 0 0 0 .166-.25.166h-.75c-.25-.166-.5-.166-.75-.332-.25-.331 0-.663 0-.83h.25c.5 0 1-.165 1.25-.497 1-.166 1.751-.332 2.751-.332h3.501c.25 0 .5-.165.75-.165 1.001-.166 2.251-.332 3.251-.332.5-.166 1.001 0 1.501-.498-2.251.498-3.251 0-3.251-1.327 0-.498-.25-.995-.75-1.493.25-.166.5-.332.75-.332.5 0 1-.166 1.5-.166.75.166 1.501.166 2.001-.332v-.165s.25 0 .25-.166c.25.331.5.83 1 1.16.5 0 1 0 1.25.499.751-.166 1.251-.498 1.751-.83h-.25c1-.995 0-.83-1-.83 0-.663 1.25-.663 2.25-1.326-1 0-1.75-.166-2-.664v-.83c-.5 0-1.001.166-1.501.166-2-.166-4.001-.331-6.001-.166-1.501-.331-2.501.166-3.752.498h-.5l-.25.166c-.75.166-.5.664-1 .995-.25 0-.75 0-1-.165 0-.166.25-.166.25-.332.5-.166.5-.332 0-.664-.5 0-1.001.166-1.501.166-.75 0-1.25.166-2 .166-.501 0-1.001.166-1.251.166-2-.166-4.001-.332-6.002-.166-.75.166-1.5.166-2.75.332.75.166 1.25.331 1.5.497 0 .332-.25.83-.25 1.162-.25 0-.5-.166-1-.166-1.251-1.493-1.751-1.66-4.502-.664h-5.001c-1-.166-1 .166-1 .664-.751.166-.751-.332-1.001-.498-1-.664-2.25-.332-3.251 0-1 .332.25.498.5.664l-.75.497c-.5.498-1.25.83-1.75 0-.25-.497-.501-.83-1.501-.663-1 .166-2 .166-2.751.332-.75-.166-1.5-.166-2.5 0h-.751c-4.251-.664-8.252.497-12.503.995H499.7c-.25 0-.5.166-1 .166s-1 .166-1.501.166c-.25 0-.5.166-1 .166-2 .165-3.751.497-5.752.663h-1c-.75-.166-1.75 0-2.501 0-2 0-3.751-.332-5.751 0-3.501.664-7.253.996-11.004 1.161-1.5 0-3.001-.331-4.501 0-1 .166-1.75.498-2.751.664-1.75.166-3.501.332-5.251.664h-.501c-.75-.166-1.5-.166-2.5 0a5.153 5.153 0 00-2.251 0c-.75-.166-1.5-.166-2.001 0h-.5c-3.001.331-6.002.829-9.003 1.16-.75 0-1.5.167-2.25.167-2.001 0-4.001-.498-6.002.166-3.251.331-6.252.83-9.503 1.16h-2.501c-.5-.165-1-.165-1.5 0-1.5-.33-2.751.333-4.251.498-1.751.166-3.501.498-5.252.664-2 .166-3.751.166-5.752.332-2-.498-4.001.166-5.751.498-1.501.166-2.751.331-4.252.497-.75 0-1.5.166-2.25.166h-4.502c-1.75-.332-3.251 0-4.751.498h-.5c-1.501.166-2.751.332-4.251.498-.751.165-1.501.165-2.251.331-.75-.332-1.751 0-2.501 0 0 0 .25 0 .25.166 0 0-.25 0-.25-.166-1.25-.166-2.251-.166-3.501.166-.75.166-1.75.166-2.251.498-1.75.332-3.751.498-5.501.83-.25 0-.75 0-1.001.165-.25 0-.5 0-1 .166a6.346 6.346 0 00-2.501 0h.501-1.001a6.341 6.341 0 00-2.5 0c-.751 0-1.751.166-2.251.498-4.251.83-8.753 1.161-13.254 1.327-.5-.166-1 0-1.501.166-.75.166-1.75.166-2.25.498-.5 0-1.001.165-1.251.165-1.5.166-3.251.332-4.751.664-.5 0-1 .166-1.5.166h-.251c-3.501-.498-7.002.332-10.253 1.327-.5 0-1 .166-1.25.166-1 .166-2.001.166-2.751.332h-.25c-3.001.166-6.002-.664-8.753.83-1.5.165-3 .331-4.251.829h-.5c-.25 0-.5 0-1 .166h-.5c-1.501-.166-3.001.165-4.502.331-1.5 0-3.251-.663-4.251.498-1.751.166-3.501.498-5.002.995-.25 0-.5.166-1 .166-.75 0-1.25.166-2.001.166h-.5c-1.25-.166-2.5.166-4.001.166-1-.166-1.75 0-2.501.332-.75 0-1.75.166-2.25.498-1.251.166-2.751.166-3.751.83h-.25c-2.001.165-3.752.33-5.752.497-2.751-.332-5.002.995-7.502 1.493-6.252.83-12.754 1.161-18.756 2.986-2.501.166-5.002.498-7.502.663-1.251 0-2.251.498-3.251.83-.5 0-1.001.166-1.501.332-.25 0-.5.166-.75.166-2.751.331-5.752.663-8.502.995-1.251-.166-2.751 0-3.752.498-2.5.497-5.001.995-7.252 1.493-3.751.331-7.502.166-10.753 1.659-.75.166-2.001 0-2.251.83-2.25-.333-4.251.33-6.502.497-.5-.166-1-.166-1.5 0-1 0-1.751 0-2.501.498-1 .165-1.75.497-2.751.663-.75 0-1.25.166-2 .498-.25 0-.5.166-.75.166-2.251.331-4.752.497-7.003.83h-.5c-2.25-.167-3.751.829-5.751 1.326h-.251c-1.25.166-2.25.166-3.25.664-.251 0-.751-.166-1.001.166l-5.251.497c-.751 0-1.251 0-2.001.166-.75 0-1.25.166-1.75.498-.751 0-1.251.166-1.751.498-1.5.331-2.751.663-4.251.83-2.751.33-5.752.33-8.253.995-3.501.829-6.752 1.824-10.253 2.322-1 .166-2.251.166-3.251.332-1-.166-1.75-.166-2.501.332-.5.166-1.25.331-1.75.497-2.001.498-4.001.83-6.002 1.327-1 .166-1.75.332-2.751.332h-.25c-1.75 0-3.501-.166-5.001.664-.25 0-.5.166-.75.166-.501 0-.75 0-1 .331-.751.166-1.501.498-2.251.664-1.5.166-3.251.332-4.752.83l-5.251.497c-2.501 0-4.502.995-6.752 1.493-.25 0-.75.166-1 .332-1.751.166-3.252.498-5.002.664h-1c-2.501-.166-5.002.165-7.003 1.16-1.25.333-2.5.499-3.75.83-2.251.332-4.752.498-7.003.83-1.5-.166-3-.166-4.501.497-1 .166-2 .332-2.751.664 0 0-.25.166-.5.166-4.252.83-8.503.83-12.754 1.327-3 .498-6.252 1.327-9.503 1.493-.75 0-1.5 0-1.75.498h-.25c-.25-.166-.5-.498-1.25-.332-2.252.166-4.502-.166-6.753-.166-.75-.166-1.25-.332-2-.332-.5-.165-1-.331-1.5-.165-1.501-.332-3.002.165-4.252.331-1 0-1.75 0-2.251.664-.5.83-1.25 1.825-1.75 2.654C2.802 70.614 1.8 71.942 1.3 73.27c-1.5.663-1.75 1.161 0 1.825-.5.497-1.75 1.16 0 1.824.25.166.25.664.5.996-.25.166-.25.497-.5.663-.5.498-1.5.996-1 1.66-.25.165-.25.331-.25.663-.25.497.5.83.75 1.161.25.498-.25.995-.5 1.659 0 1.161 0 2.323-.25 3.318.25.663.5 1.161.5 1.825v.497c-1 1.825.5 3.318 1.75 4.811.75 1.825 1.25 3.484 4.001 4.645 1 .498.75 1.659 2.751 1.659.5.332 1.25.664 1.75.996 0 .331.5.663.75.829.751.498 1.251-.498 1.751-.166.25.166.5.332.5.498 0 .166 0 .166.25.332 0 .332 0 .663-.25.995-1 1.493.25 2.157 2.251 2.489 1.25.829 2.75 1.327 4.752.829h1c0 .498.75.332 1.25.332.75.332 1.5.497 2.501.332 1.5.331 3.251.165 5.002.165.75.166 1.25.332 2 0h.5c.5 0 1 0 1.5.166 1.001.332.25.664-.25.996-1.25.166-2.25.497-3 .995-.5.166-1.25.332-.25.664l1 .663c-.25.498.25.83.5 1.162 0 .995 1.75.995 2.25 1.493 1.501.663 3.502.331 5.002.663v-.166h.25v.166c1 .332 2.751-.498 3.001.664-.5.663-1.25-.332-1.75.166.25.497 1 .331 1.5.497.75.332 0 .332-.25.498-.5 0-1 .166-1.5.166-.75 0-1.75 0-1.5.663.25.498 1.25.332 1.75 0 .25 0 .5 0 1-.165 1.25.497 1.75-.166 2.5-.664 0-.332-.25-.498-.25-.83h.25c1.751-.331 3.752-.497 4.252-1.99.5 0 1 0 1.5.166.5-.166 1-.332 1.25-.664 1.501-.498 3.002-.829 4.752-.498.5.332 0 .664-.25.83-.5.166-1.25.332-1.75.663-1.5-.165-2.501.166-2.751 1.162 1-.166 2.25 0 3.25-.664v-.166.166c.25.332 1.251.996-.25 1.161-1.25.166-.25.664-.5.996 0 .166-.25.166-.25.332-.75.165-2 0-2.25.829l-1.25.829c-.5.332-1 .498-1.751.83-.5 0-1 .166-1.25.498-.75.165-2 .165-2.251.829 0 0-.25 0-.25.166h-1c-1 0-2.001.166-2.751.664-1 0-1.25.497-1.75.829h-2.001c-.75.332-1.5.498-2.501.829-.5.166-.75.332-1.25.498-.5 0-1.25 0-1.5.498-.251 0-.251 0-.251.166-1.25.166-2.5.332-3.751.663-.25 0-.5.166-.75.166h-.25c-1-.166-1.751.166-2.501.664-1 .166-2 .332-3.251.332-.75-.332-1.25-.166-1.75.331-.25.166 0 .498.25.664.5.332.75 0 1-.166 1-.166 2-.498 2.75-.166 1 .332 1.751 0 2.251-.497 0 0 .25-.001.25.165.25.166 1-.166 1 .332l-.25.166c-1-.166-1.75-.166-2.75.332l-1.25.829c-.751.166-2.252.166-1.001.996.75.166 1.25 0 1.75-.332l.25.166c-.25.166-.75.332-.75.663-.25.166-.5.498-.75.664-.75.166-1.5 0-1.75.498-.75.166-1.75.166-2.751.331 1 .664 2.5 1.328 1.25 2.489-.75.332-1.25.829-2 1.161-.5.166-.75.498-1.25.664h-2.252c-1.25-.332-2.25 0-3.25.331-.5.166-1 .332-1.25.83-1.501.166-2.502.498-2.252 1.659 0 .663-.75.995-1.75 1.161-.5-.332-1-.166-1.5 0v.332c.5.166 1 .498 1.5-.166 1.25 0 2-.498 3.25-.664v.498c-.75.664.751.498.751.83-1 .331-2.25.663-1.5 1.659-.75.663-.25.829.75.829.25 0 .75.166 1 .166 0 .166 0 .166.25.332 0 1.161.75 1.327 2 .663.251 0 .501 0 1.001-.166 1.25.498 2 .664 3.751.166 1.5-.497 2.751-1.161 4.502-1.161.5-.332 2-.166 1.75-1.161 1.5 0 1.5-.996 2.501-1.161.75-.332 1.75-.332 2-.996.75-.332 2.001-.332 2.751-.995.5 0 1-.166 1.5-.166.25 0 .25 0 .5-.166.501-.166.751-.332 1.251-.498.5 0 1.25-.166 1.75.166-.25.166-.25.332-.5.498-.5.166-1.25.166-1.75.663-.75 1.328-3.25.83-4.501 1.825-.75.332-1.75.332-2 .83-1.001.497-2.502.166-3.252.995l-.25.166c-.25.166-.25.332-.5.498-1 0-1.75.331-1.75 1.161-.25.166-.5.166-.5.332-.75-.996-1.501-.166-2.001 0-1.25.497-2.251 1.161-3.501 1.659-.25 0-.5-.166-.5-.166-.5-.332-1.25 0-2.001 0h-1c-.25-.332-.75-.498-1.25-.332-.25 0-.25.332-.25.332.25.497 1 .332 1.75.332.5.829 1.25 1.659 2.5 2.156.25.332.5.664.5.996 0 .995.5 1.327 2.001.829.5-.166 1.25-.166 1.75-.498.5-.166 1.251-.166 1.751-.663 1.25 0 2-.498 3.251-.498 0-.166.25-.166.25-.332h.25c1.5 0 1 .664.75 1.162l-.75-.166-.25-.166c-.5.995-2.75.497-3 1.659.25.331 1.5 0 1 .663-.25.332-1 .498-1.5.664h-.25c-.25-.166-.751-.332-1.001-.332 0-.166-.25-.166-.5-.166s-.75 0-1 .166c0 .498 1 .995.5 1.493 0 .83 1.25 1.161 2 1.659.25.995 0 1.991 2 2.323.25 0 .25.165.5.165.751.332 2.002 0 1.501.996-.25.332.75.332 1.25.332.501.331 1.001.331 1.501.166.75-.166.75.165.5.497-.5.498-1.25.664-2.25.664-.25-.166-.75-.498-.75-.166-.5.663 0 .995 1 1.161 0 .166 0 .166.25.332.25.498.25.995.5 1.493-.5.829.5.829 1.25 1.161 0 .332 0 .664.75.664 1.501.497 2.251 0 3.252-.664 1.25.83 2.5 0 3.75-.166.5.166 1.001.166 1.501-.166h-.25l.25.166c1.25-.663 2.751-.663 4.252-.995.5 0 1-.166 1.25-.166.5 0 1.25-.166 1.75-.166l2.251.996 3 .497h1.001c.25 0 .75.166 1 .166 1 .166 1.751.332 2.751.498.5.332 1.25.166 2.001.332.5.165 1 .165 1.5-.166h1c1.501.497 2.752.497 4.752 0-1.25-.498-2.5-.498-3.751-.664-1.25-.332-2-.995-3.501-1.161-.75-.166-2-.83-.5-1.493.75.332 1.25 0 2 0 1.5.332 3.001 0 4.252-.498.5.166 1 .166 1.5.166.5.166 1 .332 1.5.332.75.498 1.251.995 2.001 1.659.25.829 1.5 1.161 2.25 1.659.5.663 1.501.995 2.252 1.327.5.332 1.25.498 2 .663.5.166 1 .332 1.5.332 2.501 1.161 5.252 1.493 8.003 2.157.5.332 1 .166 1.5.332 1 .331 2.251.497 3.501.663.75.332 1.5.166 2.501 0 1 .166 1.75.498 2.751.664 2.5.332 5.002.497 7.502.829.25 0 .75.166 1.001.166.75.332 1.75.332 2.5.332 1.251.498 2.751.166 4.002.332.5.331 1 .166 1.5.166 1 .497 2.001.497 3.001.331.75.332 1.5 0 2.501 0 .5.332 1 .498 1.75.498 2.001.166 4.001.498 6.002.664l5.001.663c0 .83-1.25.83-2 1.161-2.001.166-4.251.664-6.002 1.328h.25v-.166c-1.75.166-3.501.497-5.001 1.327-2.001.166-3.752.829-5.502 1.659-1 0-1.751.498-2.501.995-1 .498-.75 1.493.75 1.659 3.001-.332 5.252-1.825 8.253-1.659l.5.498c-.5.829-1 1.493-1.75 2.322-1.001.498-2.501.664-3.501 1.493-2.501.498-5.252.996-7.253 2.157-1 .332-2.25.498-3.001 1.161-2.75.664-5.751.996-8.002 2.323l-3.751.498c-1.5.165-2.751.663-4.001 1.327-1 .331-3.501-.166-2 1.493-.251.166-.251.497-.501.663-.75.332-1.75 0-2.25.498 0 .166-.25.332-.25.332-.25 1.493 1.25 1.327 2.75 1.161-.5.498-.75.995-1.25 1.493-2.251.166-4.502.332-6.252 1.493 2.25-.166 3 .664 3.75 1.659.501.332-.25 1.161 1.251.83.25.331.25.829-.25 1.161l-.75.497c-3.251.166-1.5 1.659-1.75 2.655 0 .166-.25.166-.25.332-1 .331-1.501.829-1.001 1.493.75 1.659 3.001.995 4.752 1.327-.25.166-.5.497-.75.663-1.751.166-2.001.664-1.251 1.493 1 .996 2 .996 3.5.664 2.002 0 2.002.664 1.501 1.659-.25.498-1.25.829-1.75 1.161h-.5c-.25-.166 0-.663-.75-.498-.5.166-.5.498-.25.664-.5.83-1 1.327-2.751.83-1-.332-2.501-.332-3.501-.332-.5-.332-.75-.166-1.25-.166-1.251.166-2.251.663-3.502.166-.25-.498 0-1.162-1-1.327-.25 0-.75.165-.75.165 0 .332.25.83.75.996 0 .166-.25.498-.25.663-1.75.166-3.751.332-5.502.664-.5-.332-1.5.332-1.75-.332 1-.995-.5-.663-1.25-.995-.501-.166-1.001-.498-1.001 0 .25.829-1.25.995-1.5 1.659-1 0-2.251-.332-2.251.829-.5.166-1.5-.497-1.75.664-.5 1.493-.751 3.65-4.752 3.65-.25 0-.25.331-.5.497-.75.166-1.25.664-1 1.161-2.001.332-2.251 1.991-4.252 2.157-1-.498-2.5.332-3.5-.166-.751-.663-2.002-.498-3.002-.663-2 .165-2.25.165-1.5 1.161.25.166.5.166.75.332.75.829 3.751 1.659.25 2.654 0 .166.25.166.25.332s.25.166.25.331c.25.996-.25 1.328-1.75.83-.25 0-.5.166-1 .166-1.251-.166-2.501-.498-4.002-.498-1 0-2.25.332-3-.332-.751-.331-1.251-.165-2.001 0h-.5c-1.25.996.75 1.328 1.25 1.991 0 .166-.25.498-.25.664-.5.332-.5.663-.75.995-.5.332-1 .332-1.25.83-.5.497-.25.663.5.663.25 0 .25.166.5.166v1.161c-.5.166-1 .332-.75.664.25.663-2.752 1.493.25 1.991 0 0 0 .165.25.165-.25 1.328-2.001 2.323-1.751 3.65-.25.664.25.996 1.25 1.161 1 .332 2.251.498 3.001 1.162.5.497 1 .829 1.25 1.327 0 .497.5 1.161-.25 1.327-2 .498-.5.829 0 1.161.25 1.161.75 2.157 2.251 2.82 1 .498 1.75.996 2.75 1.493.501.498 1.251.664 1.752.996 1.25.829 1.75 2.322 4 2.654l1.251.83c.75 1.327 2.5 1.99 4.001 2.82.75.497 1.5.829 2.251 1.327.25.166.75.166 1 .166l.5.332v-.83.83c.5.166 1.25.331 1.75.663.751.166 1.251.332 2.002.498l3 .498c.25.165.75.331 1 .497.25.332.5.498 1.001.498.5.166 1 .498 1.75.664.5.331 1 .663 1.751.663.5.332 1.25 0 1.75-.166 1.501-.332 3.002-.332 4.252.332-.25.664 0 .995 1 1.327 0 .332-.5.83.25 1.161.5.332 1.5.498 2 .664 1.001.332 2.001.498 3.002.332 1.25-.166 2.5-.498 3.75-.332.501.166 1.001.166 1.501.332s1.25.166 1.75.332c1.001.497 2.002.829 3.252.829 0 .166.25.498.75.498 1 .829 2.5 1.327 4.001 1.659.25.166.75.166 1 .331l.5.332c.25.332.5.498 1.001.498l2.25.498.5.331c1.251.498 2.251 1.493 4.252.996h.5c.25.166.75.166 1 .332 1.25.331 1.751 1.493 3.502 1.327 1.75.166 2.75 1.327 4.751 1.327 1.5.166 3.251.498 4.751.498 1.001.331 2.001.331 3.251.165.501 0 1.001.166 1.501.166.25.166.75.166 1 .166 2.001.332 4.001.498 6.002.83.75.166 1.75.331 2.501.497.5.332 1.25.498 1.5.996-.5 1.327-2.251.995-3.501 1.493-2.501.332-5.001.663-7.502.829-4.752.332-9.503.498-14.254 1.161h-.501c-2-.165-4 .332-6.001.83-.75.166-1.75 0-2 .664 0 .497.75.663 1.25.995.5.498 1 .663 1.75.829 4.251.83 8.753.664 13.254.166h1.25c1.501.166 2.751.332 4.001-.332 1.751.166 3.502-.165 5.252-.331 1 0 2.251 0 3.251-.332h1.25c4.002-.166 7.753-.83 11.504-1.493 1 0 1.5-.498 2.501-.664 2.75-.497 5.751-.497 8.252-1.659.5 0 1 .166 1.501-.166 1-.331 2.25-.165 3.251-.663.5 0 1-.166 1.25-.166.75 0 1.75.166 2.501-.332.5-.166 1-.166 1.25-.498 1-.165 2.251.166 3.251-.165.5 0 1.25 0 1.5-.498.501-.166.751-.332 1.251-.498.25 0 .75.166 1 0 2.251 0 4.001-1.493 6.502-1.493h.5c1 .498 1.751.166 2.501-.166 1-.332 2.251-.663 3.501-.663 1 0 .5-1.493 2.251-.996.5 0 1.25.166 1.75.166 2.251.166 4.001-1.161 6.252-1.161 1.25-.166 2.751-.166 3.751-.664 1-.331 3.001-.165 3.001-1.493a4.976 4.976 0 012.751-.331c0 .331-1 1.161.75.829 1-.166 2.001-.166 2.751-.664.5.332 1 0 1.5-.165 1.751.165 3.251 0 4.252-.83.25 0 .5-.166 1-.166s1-.166 1.5-.166h.501c1 .166 2 .83 3.251.332 1.25-.166 2.25.332 3.501 0 1.25.166 2.25.498 3.501.166 10.003-.166 19.756-1.825 29.509-2.654 1.25.332 2.5-.166 3.751-.166 6.252-.996 12.753-.83 19.005-1.659 3.251-.166 6.752-.166 10.003-.83 1.751.332 3.001-.497 4.502-.497 3.001 0 6.002-.498 9.002-.83.751.166 1.251.166 2.001 0l14.254-.995c.25 0 .5.166.75.166 6.502-.664 13.004-.996 19.756-1.327a6617.05 6617.05 0 0017.006-.996c3.501-.166 7.252-.166 10.753-.663 1.5.166 3.001-.166 4.251-.498 4.251-.332 8.503-.332 12.504-.995 2 .166 4.001.166 6.252-.166 1.5.166 3.001-.166 4.501-.332 2.001-.166 3.751-.166 5.752-.332h1.25c3.251-.166 6.252-.332 9.503-.663.25 0 .5-.166 1-.166.5.166 1.251.166 1.751.166 1 .331 2 0 3.001-.166h.5c2.25.166 4.501 0 6.752-.166.5.332 1.25.166 2 0 .751.332 1.751 0 2.501 0 1 .332 2.001.166 3.001 0 3.251-.332 6.252-.498 9.503-.166h.75c1.501.332 3.001-.166 4.251-.332.501 0 1.251-.166 1.751-.166.5.166 1 .166 1.5.166 2.751.166 5.502-.663 8.253-.663h1.5c.25.165.501.331 1.001.165.75.332 1.75 0 2.5 0 2.251-.331 4.502-.829 7.002-.829 1.001.332 2.251.498 3.502.166 1.25.166 2.75.166 4.001 0 .5.166 1 .332 1.5.166 1.25.166 2.251.166 3.501 0 .75.166 1.251.166 2.001 0h3.001c1.75-.166 3.751-.332 5.501-.498 2.501.995 5.252.332 7.753.166 1 .332 1.75 0 2.751-.166 1.25-.166 2.25-.829 3.501-.498.25.166.75.166 1 .166 1.25.332 2.501-.166 4.001-.166h.5c2.001.332 4.001-.331 6.002-.497.5 0 1 0 1.5.166.501.331 1.251.165 2.001.165 3.001.166 5.752.332 8.753-.497 1.5-.332 2.751-.664 4.251-.498 3.501.83 6.752.166 10.003-.663 2.251-.664 4.501-.83 6.502.331.25 0 .25.166.5.166v.332c.5 0 1.25-.166 1.751-.166 1-.166 2.25-.498 3.251-.332 2.75.332 5.501 0 8.252-.497 1-.166 2.251-.332 3.251-.498 1 .332 2.001.166 2.751 0 .25-.332 1.25 0 .75-.664-.5 0-1.25.166-1.75.166-.501-.166-1.001-.166-1.501-.166s-1.5.166-1.75-.166c-.251-.497.5-.829 1-1.161.25-.166.75-.497 1.25-.497 1.751 0 2.751-.498 3.001-1.659 1.751-.664 3.501-.83 5.502-.498 1.5.332 2.25 0 2.5-.83h2.001c.5.166.75.332 1.751.166 1.25-.331 2.25-1.161 3.751-.829.75.332 1.75.829 2 .663 1.251-1.327 3.251-1.493 5.252-1.327l.25-.166c3.251-.663 7.002 0 9.753-1.824l.75.497c.5.498 1.001.332 1.501-.166.75-.166 1.75-.497 1.25-1.161-.5-.498-1.75-.663-2.501 0-.25 0-.5 0-.75.166-.5-.332-1-.664-1.25-.995-.501 0-.5.166-.5.331 0 .332 0 .498-.501.498-.5.166-1 .166-1.5.498-.25.166-.25.166-.25 0 0 0-.25 0-.25-.166h-.5c-.501 0-1.001-.166 0-.664.5-.166 1.5 0 1.75-.497.5-.166.75-.332 1.251-.498l.5-.332c.25 0 .5 0 1-.166-.25-.995 1.25-1.327 2.001-1.825.5-.331.75-.497.75-.829 0-.166.25-.332.25-.332.25 0 .5 0 .75-.166.25 0 .25.166.5.166 1.001.166 2.001.166 2.751-.166.75-.331 1.25-.166 2.001 0 .75-.995 2.25-1.161 3.501-1.825h.5c1 0 1.5-.663 2-1.161.751-.497 2.501-.663 1.501-1.659 2-.829 3.001-2.488 5.252-2.986.75-.166.75-.663 1-1.161.75-.166 1.25-.83 1.5-1.161 1.751-.498.751-1.162.5-1.825 0-.166.25-.166.25-.332.751-.829.251-1.825 1.751-2.322.25-.166.25-.332.25-.664 2.001.498 1.5-.498 1.751-1.161 1.5-.166 1.75-.996 2.75-1.493.25 0 .501-.166.751-.166.75-.664 1-1.493 2.5-1.493.501-.332 1.251-.664.751-1.162.5-.165 1-.331 1.75-.331h.25c.25.166.5.166.75.166.25-.166.251-.332.501-.664 1.5-.332.25-1.161.75-1.659.25-.332-.5-.829.25-1.161 1.25 0 2.251 0 1.75 1.327 1.001-.995 2.001-1.825 3.751-1.991.751-.166 2.001.332 2.751-.332-1-.331-2 0-2.751.166-1.25 0-3.25.498-2.75-1.161.25 0 .75.166 1-.166 2.001-.829 3.751-1.659 5.752-2.488.25 0 .5-.166.75-.166 1.5.166 2.501-.498 3.751-.996h-2.501c-1 0-.75-.331-.5-.663.75-.166 1.751-.166 2.251-.664l.75-.995c.5-.829 0-1.991 2.001-2.654-3.001.331-3.001.331-4.252.166 0-.166.251-.332.251-.498.25 0 .5-.166 1-.166.75-.166 1.5-.332 2.25-.664 1.501-.497 1.251-1.824 2.751-2.488 1.001-.166 2.001 0 2.751-.664.5 0 1 .166 1.501.166 2.75-.829 5.751-.829 8.252-2.156-.5-.166-.75-.332-1.25-.664-3.751-1.659-4.752-1.327-5.252-1.327z" fill="#FD0"/></svg>