<svg width="80" height="80" fill="none" xmlns="http://www.w3.org/2000/svg"><circle cx="39.988" cy="39.872" r="36.5" fill="#fff" stroke="#004880" stroke-width="3"/><g clip-path="url(#clip0)" fill-rule="evenodd" clip-rule="evenodd"><path d="M34.027 51.552l21.42-21.42c1.505-1.505 1.476-3.973-.066-5.515-1.542-1.542-4.011-1.571-5.516-.066l-21.42 21.42c-1.506 1.506-1.476 3.974.066 5.516 1.541 1.541 4.01 1.57 5.516.065zm1.993 1.993c-2.58 2.581-6.814 2.532-9.456-.111-2.643-2.642-2.694-6.875-.112-9.457l21.42-21.42c2.58-2.58 6.813-2.53 9.456.113 2.642 2.642 2.694 6.874.112 9.456l-21.42 21.42z" fill="#46ABD5"/><path d="M34.432 62.31L29.74 50.284l-12.053-4.719-1.053 1.054 16.744 16.745 1.054-1.054zm-1.007 4.994L12.693 46.573l4.295-4.295 14.928 5.83L37.72 63.01l-4.294 4.294zm25.14-14.552l-10.983-20.31L27.273 21.46l-2.712 2.712 31.292 31.292 2.712-2.712zm-2.777 6.541L20.704 24.21l6.132-6.131L49.66 30.363l12.26 22.799-6.132 6.131z" fill="#004880"/><path d="M48.994 55.271c.81.81.826 2.106.035 2.897-.791.791-2.088.776-2.898-.033-.809-.81-.824-2.107-.033-2.898.79-.79 2.087-.775 2.896.034zm4.045 4.045c.809.809.825 2.105.034 2.896-.791.791-2.089.776-2.897-.033-.811-.81-.827-2.108-.035-2.9.79-.79 2.087-.774 2.898.037zM20.124 27.354c.81.81.825 2.108.035 2.898-.79.79-2.089.776-2.9-.034-.808-.81-.823-2.108-.032-2.898.79-.79 2.087-.776 2.897.034zm4.044 4.044c.81.81.824 2.107.034 2.897-.79.79-2.088.777-2.898-.033s-.824-2.109-.034-2.899c.79-.79 2.089-.774 2.898.035zm21.02 27.857c.81.81.825 2.106.034 2.897-.79.792-2.088.776-2.898-.033-.809-.81-.824-2.106-.033-2.898.791-.79 2.088-.775 2.897.034zm4.044 4.045c.81.809.825 2.105.034 2.896-.79.791-2.088.776-2.897-.033-.811-.81-.826-2.108-.035-2.9.791-.79 2.087-.774 2.898.037zM16.317 31.338c.81.81.825 2.108.035 2.898-.79.79-2.089.776-2.899-.034-.809-.81-.823-2.108-.033-2.898.79-.79 2.088-.775 2.897.034zm4.044 4.044c.81.81.824 2.107.034 2.897-.79.79-2.087.777-2.897-.033-.81-.81-.825-2.109-.035-2.899.79-.79 2.089-.774 2.898.035z" fill="#46ABD5"/></g><defs><clipPath id="clip0"><path fill="#fff" transform="rotate(-45 47.477 19.666)" d="M0 0h55.623v56.946H0z"/></clipPath></defs></svg>