<svg width="666" height="292" viewBox="0 0 666 292" fill="none" xmlns="http://www.w3.org/2000/svg">
<path d="M659.498 199.68C659.248 199.68 659.248 199.514 658.998 199.514C659.498 199.182 660.248 198.85 659.248 198.353C658.748 198.187 659.248 198.021 659.498 197.855C659.748 198.021 660.248 198.021 660.498 197.855C660.749 197.689 660.749 197.523 660.498 197.523C659.248 197.357 657.748 197.192 656.497 197.026C656.247 197.026 655.997 197.026 655.997 197.192C655.997 197.192 655.997 197.192 655.997 197.357C655.497 197.357 654.997 196.86 654.247 197.192H653.996C653.996 197.192 653.997 197.192 653.746 197.192C653.496 197.192 653.246 197.192 653.246 197.192C652.746 197.192 652.246 197.026 651.996 197.026C651.496 196.694 650.996 196.86 650.495 197.026C649.495 197.855 648.245 197.357 647.244 197.357C646.994 197.357 646.494 197.192 646.244 197.192C644.244 197.357 641.993 197.689 639.992 197.357C639.992 197.192 639.992 197.192 639.992 197.026C640.492 196.694 640.242 196.362 639.992 196.196C639.742 196.196 639.492 196.03 639.242 196.03C639.742 195.699 640.242 195.533 640.742 195.367C641.243 195.201 641.743 195.201 642.243 195.201H642.493C642.493 195.201 642.493 195.367 642.493 195.699C643.493 196.86 644.994 196.694 646.744 196.196C647.245 195.864 647.745 195.533 648.245 195.035C648.495 195.367 648.995 195.201 649.495 195.201C649.495 195.201 649.495 195.201 649.745 195.035C649.995 195.201 650.245 195.367 650.495 195.367C650.495 195.699 650.746 196.03 651.246 196.196C651.996 196.196 652.746 196.03 653.496 196.03C654.497 196.03 655.497 196.196 656.497 196.196C656.747 196.196 656.997 196.362 656.997 196.362C657.748 196.03 658.998 196.362 659.748 195.699C659.748 195.533 659.748 195.533 659.748 195.367C659.748 195.201 659.498 195.201 659.498 195.035C659.248 194.869 658.748 194.703 658.498 194.537C658.498 194.371 658.498 194.205 658.748 194.205C658.748 194.04 658.998 193.874 658.748 193.708C657.498 192.547 655.747 192.878 654.247 193.044C653.246 193.21 652.246 193.21 651.496 193.376C650.245 192.712 649.245 193.044 648.495 193.708C648.245 193.708 648.245 193.708 648.245 193.874C647.745 193.874 647.245 194.371 646.744 194.205C644.244 192.712 641.243 193.708 638.242 193.542C637.742 193.542 637.492 192.712 636.741 193.376C634.991 193.874 633.24 193.376 631.49 193.708C631.24 193.708 630.99 193.542 630.99 193.542C628.239 193.542 625.488 193.376 622.737 193.542C621.487 193.708 619.986 193.21 618.736 194.04H618.986H618.736C617.235 194.205 615.985 193.21 614.485 193.708C614.234 193.708 614.234 193.708 613.984 193.708C613.234 193.376 612.234 193.708 611.484 193.708C611.234 193.708 611.234 193.708 610.983 193.708C610.233 193.708 609.733 193.21 608.983 193.376C608.233 193.542 607.232 193.376 606.732 193.874C604.732 193.708 602.981 193.708 600.98 193.874C599.73 193.542 598.48 193.874 596.979 193.874C595.479 193.708 596.729 194.537 596.729 194.703C596.479 194.869 596.479 194.869 596.229 195.035C595.979 195.035 595.729 195.035 595.479 195.201C594.979 195.035 594.229 194.869 593.978 194.869C591.478 195.533 589.227 195.201 587.477 194.04C586.476 194.371 585.476 193.708 584.476 194.205C583.225 194.537 582.475 193.708 581.475 193.708C581.225 193.708 580.725 193.708 580.474 193.708C578.974 194.371 578.474 192.712 576.973 193.21C575.723 193.376 574.473 193.044 573.222 193.376C572.972 193.21 572.472 193.21 572.222 193.21C571.972 193.21 571.972 193.21 571.722 193.21C571.222 193.044 570.721 193.044 570.221 193.21H569.971C569.471 193.044 569.221 193.21 568.721 193.376C567.971 193.376 567.471 193.542 566.72 193.542C566.72 193.044 564.22 192.547 566.22 191.883C566.47 191.883 566.47 192.049 566.72 192.049C567.471 192.215 568.221 192.381 568.971 192.049C569.471 191.883 569.721 191.717 570.221 191.551C570.721 191.385 571.722 191.883 571.722 191.385C571.722 190.888 571.972 190.224 570.721 189.892C569.971 189.726 569.471 189.726 569.221 190.224C569.221 190.39 569.221 190.39 569.221 190.556C569.221 190.556 569.221 190.556 568.971 190.556C568.971 190.556 568.971 190.39 568.721 190.39C568.471 190.39 567.971 190.224 567.721 190.39C566.97 190.39 566.22 190.556 565.72 190.888C565.72 190.888 565.72 190.888 565.47 191.053V190.888C565.22 190.556 564.97 190.224 564.47 189.892C563.719 189.56 563.219 189.395 562.469 189.56H562.219C561.719 189.395 561.469 189.229 560.969 189.395C560.969 189.229 560.969 189.063 560.718 188.731C560.718 188.565 560.718 188.565 560.718 188.399C560.969 188.399 560.969 188.233 561.219 188.233C561.969 188.399 562.469 188.731 563.219 188.731C563.469 188.897 563.469 188.897 563.719 188.897H563.969C564.219 188.731 564.22 188.731 564.22 188.565C564.47 188.565 564.97 188.399 565.22 188.399C565.22 188.233 565.47 188.233 565.47 188.067C564.97 187.736 564.47 187.736 563.969 187.901C563.969 187.57 563.719 187.238 564.72 187.404C565.47 187.404 565.97 187.404 566.47 187.072C566.47 187.57 565.97 188.067 566.72 188.399H566.97C568.221 188.399 569.471 188.233 570.721 187.901C570.721 187.736 570.721 187.736 570.721 187.57C570.471 186.906 569.221 186.906 569.221 186.243C569.221 186.243 569.221 186.077 569.221 185.911C570.221 185.081 568.221 185.247 568.221 184.75L568.471 184.086C569.221 183.422 568.971 182.593 569.221 181.763C568.221 180.934 569.721 180.27 569.721 179.607C570.471 179.441 571.472 179.773 571.972 179.275C572.222 179.275 572.222 179.441 572.472 179.441C572.472 179.607 572.472 179.773 572.472 179.939C572.722 179.773 572.972 179.773 573.472 179.607C573.472 179.441 573.472 179.275 573.472 179.275L573.722 179.109C573.722 178.943 573.722 178.777 573.472 178.611C573.722 178.611 573.973 178.611 574.223 178.446V178.611C574.473 178.446 575.473 178.28 575.223 177.948C574.973 177.616 574.473 178.114 573.972 178.114L573.472 177.948C572.972 177.948 572.472 178.114 571.972 178.114C571.472 178.114 571.472 178.28 571.472 178.446C570.971 178.446 570.722 178.446 570.471 178.611C569.971 178.446 569.471 178.28 568.721 178.28C568.221 178.446 567.971 178.611 567.971 178.943C567.471 178.943 567.22 179.109 566.72 179.275C566.47 179.109 566.22 178.777 566.22 178.446C566.47 178.114 566.97 177.616 567.22 177.284C567.22 177.284 567.22 177.284 567.22 177.45C567.721 177.45 567.971 177.284 568.471 177.118C568.721 176.952 568.721 176.952 568.971 176.952C568.971 176.952 569.221 176.952 569.221 177.118C567.971 177.782 567.971 177.948 568.971 178.114C569.221 177.948 569.471 177.782 569.471 177.45C569.471 177.45 569.471 177.45 569.721 177.45C569.971 177.45 570.221 177.45 570.471 177.284C570.722 177.616 570.972 177.782 571.722 177.616C571.472 176.952 571.722 176.621 572.972 176.621C572.972 176.455 573.222 176.289 573.222 176.289C573.472 176.123 573.472 175.791 573.722 175.625C573.972 175.459 574.223 174.962 573.722 174.962C572.972 174.796 572.972 175.459 572.472 175.625C572.222 175.791 572.222 175.791 571.972 175.957C571.472 175.957 570.972 175.957 570.721 176.123C569.971 175.791 569.221 176.123 568.721 176.123C567.471 176.289 566.47 176.123 566.22 175.294C566.47 175.128 566.47 175.128 566.72 174.962C568.471 174.63 570.471 174.796 572.222 173.966C573.722 173.801 574.473 172.639 576.223 172.639C578.224 172.639 580.224 172.639 581.225 171.312C581.975 171.146 582.725 171.312 582.975 170.814C583.475 170.151 583.475 169.653 582.225 169.653C582.225 168.824 582.975 169.321 583.475 169.321C584.225 170.151 585.726 169.487 586.976 169.819C587.477 169.985 588.477 169.819 588.977 169.321C589.477 168.824 588.727 168.492 588.227 168.16C587.226 167.828 586.726 168.492 585.976 168.824C585.226 168.824 584.726 168.492 584.726 167.994C585.476 167.662 585.726 167.165 584.976 166.833C584.976 166.335 583.475 166.003 583.975 165.34C584.225 165.174 584.226 165.174 584.476 165.008L585.476 164.345C585.726 164.345 585.726 164.345 585.976 164.179C586.476 164.013 586.976 163.349 587.477 164.345C587.477 165.34 588.227 165.008 588.977 164.51C589.477 164.179 589.477 163.681 590.227 163.349C592.228 162.686 589.477 162.686 589.727 162.188C589.977 161.856 588.477 161.856 588.227 162.188C587.727 163.183 585.976 163.349 584.976 163.847C584.726 164.013 584.225 164.345 583.975 164.51C582.975 164.013 581.975 163.183 580.474 163.515C579.974 163.515 579.724 163.515 579.474 163.847C577.974 163.847 578.474 163.017 578.224 162.52C579.474 161.856 580.975 161.358 579.224 160.197C578.724 159.865 578.724 159.036 579.474 158.538C579.724 158.372 579.974 158.538 579.974 158.87C579.474 159.036 578.974 159.368 579.224 159.865C579.474 160.197 580.224 160.031 580.474 159.865C581.475 159.7 581.725 159.202 581.725 158.704C581.975 158.704 582.225 158.538 582.475 158.538C582.725 158.87 582.725 159.368 582.975 159.865C584.226 159.036 585.476 158.372 585.976 157.377C586.976 156.713 584.476 156.05 585.976 155.22C586.726 155.386 587.477 156.382 587.977 155.552C588.477 155.054 588.977 153.727 586.726 153.561C586.976 153.23 586.976 152.732 587.727 152.234C585.476 152.732 585.976 151.737 585.976 150.907C584.726 151.571 583.475 152.068 582.475 152.732C582.475 153.23 582.975 153.064 583.475 153.064C583.475 153.23 583.475 153.396 583.725 153.561C583.475 153.727 583.225 153.893 582.725 154.059C582.225 154.225 581.975 154.391 581.475 154.557C581.475 154.225 581.475 153.727 581.725 153.396C581.225 153.561 580.975 153.893 580.474 153.727V153.893V153.727C580.474 153.396 580.224 153.064 580.224 152.732C581.225 152.234 580.975 151.737 580.724 151.073C580.724 150.575 580.474 150.244 580.474 149.746L580.224 148.916C581.225 148.419 582.225 149.746 583.225 148.75C583.475 148.916 583.725 149.082 583.975 149.414C584.476 149.912 585.226 150.409 585.976 149.746C586.476 149.248 585.226 148.916 584.726 148.585C584.726 147.589 585.976 146.76 586.476 145.93C586.476 145.764 586.726 145.764 586.726 145.599C587.227 145.433 587.727 145.267 587.727 144.769C586.726 144.935 585.476 144.769 584.726 145.267C583.725 144.271 581.975 145.101 580.724 144.769C580.975 144.271 582.225 144.271 582.225 143.608C582.225 143.442 582.475 143.442 582.475 143.276C582.975 143.11 582.975 142.778 582.475 142.612C581.975 142.447 581.475 142.612 581.225 142.778C580.975 142.778 580.725 142.944 580.474 142.944C579.474 142.944 578.474 143.608 577.223 143.276C577.724 142.944 577.974 142.447 577.974 141.949C578.224 141.783 578.474 141.451 578.724 141.285C579.224 140.953 580.474 140.954 580.474 140.124C580.725 140.124 581.225 140.124 581.475 139.958C581.475 139.792 581.475 139.792 581.475 139.626C581.475 138.963 582.725 138.465 582.725 137.967C582.975 136.806 580.725 138.299 580.474 137.304C580.474 137.138 580.474 137.138 580.224 136.972C580.474 136.806 580.724 136.64 580.974 136.64C582.725 135.977 584.226 135.147 584.976 133.986C584.476 131.829 582.975 133.654 581.975 133.82C580.724 133.82 579.474 133.986 579.224 134.981C578.974 134.981 578.974 134.981 578.724 135.147C578.724 135.313 578.724 135.313 578.724 135.479C577.724 135.811 576.723 136.308 575.973 136.64C575.723 136.64 575.723 136.64 575.473 136.64C575.223 136.64 574.723 136.806 574.473 136.806L574.223 136.972C573.722 137.138 573.222 137.304 572.722 137.47C571.722 137.304 571.972 136.64 571.722 136.143C571.222 136.143 570.722 136.143 570.471 136.64C570.221 136.806 569.971 136.972 569.721 137.138C569.221 136.806 568.721 137.138 568.221 137.304C566.97 137.304 565.97 138.133 564.47 137.967C564.22 137.47 564.219 137.138 565.22 136.972C565.72 137.304 565.97 136.972 566.22 136.806C566.97 136.64 566.97 136.143 566.97 135.811C567.721 135.811 568.471 135.645 568.971 135.313C568.971 135.313 568.971 135.313 568.971 135.479C570.471 136.64 571.222 135.479 571.972 134.981C572.472 134.65 572.972 134.318 573.722 134.152C574.473 133.322 575.723 132.991 576.973 132.493C577.223 131.829 576.473 131.498 575.723 131.332H575.473C575.723 131 575.723 130.834 575.223 130.668C574.973 130.834 574.723 131.166 574.973 131.332C574.473 131.332 573.972 131.166 573.722 130.834C573.722 130.668 573.722 130.668 573.722 130.502C573.972 129.673 573.722 128.843 575.223 128.346C575.723 128.511 576.223 128.677 575.473 129.175C575.223 129.507 574.973 129.839 575.973 129.839C576.223 129.673 576.473 129.507 576.723 129.341C577.974 129.175 579.224 129.009 580.474 128.511V128.346C581.225 128.18 581.725 128.18 582.475 128.014C584.226 127.682 583.225 127.35 582.475 127.018C581.975 127.184 581.725 127.848 580.724 127.516C580.224 127.184 579.724 127.682 579.224 127.682C578.724 127.35 578.974 127.018 578.974 126.687H579.224C580.474 126.355 581.725 126.687 582.475 125.691C582.475 125.028 586.226 124.198 582.475 123.535C583.475 122.539 584.476 121.71 586.476 122.705C587.476 123.203 588.477 122.705 589.227 122.207C589.977 121.876 590.227 121.378 591.228 121.378C591.478 121.378 591.978 121.544 592.228 121.544C592.728 122.042 593.478 122.042 594.229 121.876C595.229 121.71 595.979 121.71 596.979 121.544C597.229 121.544 597.229 121.544 597.48 121.544C598.48 122.042 599.23 121.876 599.98 121.212H600.23H600.48C601.231 121.212 601.731 121.046 602.481 121.046C604.732 121.378 604.982 120.714 604.482 119.553C604.482 119.387 604.232 119.387 604.232 119.221C604.982 119.055 605.982 119.055 606.732 118.89C606.732 119.055 606.482 119.055 606.732 119.387C607.483 120.88 608.983 120.217 610.233 119.885C610.984 119.885 611.734 119.719 612.484 119.719C612.984 119.719 613.734 119.885 613.484 119.221C613.234 118.89 612.984 118.558 612.234 119.055C611.484 119.553 610.984 119.055 610.483 118.89C610.483 117.894 609.733 117.894 608.483 118.226C608.483 118.226 608.483 118.06 608.233 118.06C605.982 118.226 604.231 118.558 602.231 119.221C602.481 119.387 602.981 119.387 603.231 119.553C602.731 119.719 601.981 119.719 601.481 120.051C601.231 120.051 600.981 120.217 600.73 120.217C600.23 120.217 599.73 120.051 599.48 119.719C599.73 119.387 599.98 119.055 599.73 118.724C599.73 118.558 599.73 118.392 599.73 118.06H599.48C599.48 118.06 599.48 118.06 599.73 118.06C600.48 117.728 601.481 117.397 602.481 117.397C604.482 117.562 606.732 117.231 608.733 116.899C610.734 116.235 608.983 115.738 608.733 115.074C608.733 115.074 608.733 115.074 608.483 115.074H608.733C609.733 114.245 611.984 115.406 612.734 113.913C612.484 113.747 612.234 113.581 612.234 113.415C611.484 113.415 610.984 113.415 610.233 113.415C609.483 113.083 608.983 113.415 608.483 113.581C608.483 113.415 608.233 113.249 608.233 113.083V112.917C608.983 112.751 609.733 112.586 610.483 112.586H610.983C611.234 112.586 611.234 112.752 611.484 112.752C612.484 113.083 613.484 112.751 614.235 112.42C613.234 111.59 613.984 111.258 615.235 111.258C615.485 110.927 615.985 110.927 616.485 111.258C617.485 112.088 617.736 112.088 619.236 111.258C619.736 111.258 620.236 111.093 620.736 111.424C621.237 111.424 621.237 111.258 621.237 111.093C621.237 111.093 621.237 110.927 621.237 110.761C621.987 110.761 621.987 110.263 622.487 109.931C622.987 109.931 623.237 109.765 623.487 109.599C623.987 109.765 624.738 110.263 624.738 109.434C624.738 109.268 624.738 109.102 624.738 108.936C625.988 108.272 624.488 108.106 624.488 107.775C624.488 107.775 624.237 107.609 624.488 107.443C624.738 107.277 624.738 107.111 624.488 106.779C624.237 106.613 623.987 106.613 623.487 106.448C622.487 106.116 621.487 105.286 620.736 106.613C620.486 106.779 620.236 106.779 619.986 106.779C620.236 106.613 620.486 106.448 620.736 106.116C620.736 105.95 620.737 105.784 620.486 105.618C619.736 105.95 618.986 106.282 618.236 106.448C618.236 106.779 618.486 106.779 618.736 106.945C618.236 106.945 617.485 107.111 616.985 107.111C617.235 106.945 617.235 106.613 616.985 106.448C616.735 106.282 616.735 106.282 616.485 106.282C616.485 106.282 616.485 106.282 616.235 106.282C616.235 106.116 615.985 105.784 615.985 105.618C614.985 105.784 615.235 106.282 615.235 106.613C615.235 106.613 615.235 106.613 614.985 106.613C614.735 106.779 614.485 106.945 614.235 107.277C614.235 107.277 614.234 107.443 614.485 107.443C615.235 107.443 615.235 107.941 615.485 108.272C615.485 108.272 615.485 108.438 615.235 108.438C615.235 108.77 615.235 109.102 615.485 109.434C615.235 109.434 614.985 109.434 614.735 109.599C614.735 109.434 614.735 109.268 614.735 109.102C614.485 108.272 613.984 107.775 612.484 108.438C611.734 108.77 611.484 108.604 610.983 108.604C611.484 108.438 611.484 108.106 611.234 107.941C611.234 107.775 610.983 107.775 610.983 107.609C611.484 106.945 611.234 106.448 610.233 106.116H609.983C609.983 105.784 609.733 105.286 610.733 105.12C611.484 104.789 612.234 104.623 611.734 103.793H611.484C611.484 103.793 611.484 103.793 611.734 103.793C611.984 103.793 612.484 103.627 612.734 103.461C612.984 103.627 613.234 103.627 613.734 103.627C613.734 103.793 613.734 103.793 613.734 103.959C613.234 104.291 613.484 104.623 613.484 104.954C613.734 105.286 613.984 105.452 614.235 105.784C614.985 105.618 614.735 104.954 615.485 104.789C615.735 104.954 615.985 104.954 616.485 104.954C616.735 104.457 617.235 103.793 615.735 103.793C615.735 103.627 615.735 103.461 615.485 103.296C616.235 103.13 616.485 102.632 617.235 102.466C617.736 102.466 617.986 102.3 618.486 102.3C618.486 102.466 618.736 102.466 618.736 102.466C619.236 102.632 619.986 102.632 620.236 102.798C621.237 104.457 622.237 103.461 623.237 102.798C623.487 102.964 623.487 103.13 623.987 103.13C623.987 103.13 623.987 103.13 624.238 103.13C624.738 103.627 625.238 103.296 625.988 103.296C625.988 103.296 626.238 103.296 626.238 103.461C626.488 103.461 626.738 103.461 626.738 103.461C627.489 103.296 627.488 102.798 627.739 102.466C627.989 102.134 627.989 101.637 627.989 101.139C628.989 100.807 629.239 102.134 630.239 101.471C630.99 100.973 630.239 100.475 629.489 100.144C628.989 100.144 628.989 100.144 628.739 100.309C628.489 99.9777 628.239 99.8117 627.989 99.6458C627.739 99.6458 627.238 99.48 626.988 99.48C627.238 98.4846 626.238 97.821 625.488 97.1574C626.488 96.1621 624.238 95.9962 624.238 95.1667C623.987 95.1667 623.487 95.3326 623.237 95.3326C622.237 96.1621 622.487 96.8257 623.487 97.4892C623.737 97.6551 624.237 97.821 624.488 97.821C623.987 98.1528 623.987 98.6505 624.488 98.9823C624.237 98.9823 624.238 98.9823 624.238 99.1482C623.987 99.1482 623.987 98.9823 623.737 98.9823C623.487 97.821 622.737 99.1482 622.237 98.8164C621.987 98.8164 621.737 98.6505 621.737 98.6505C620.486 98.1528 618.736 98.3187 617.736 97.4892C618.236 97.3233 618.486 97.1575 618.986 96.9916C619.236 97.4893 619.986 97.821 620.987 97.4892C622.487 96.6598 620.236 95.6644 621.237 94.669C621.237 94.669 621.487 94.6691 621.487 94.5032C621.987 94.5032 622.487 94.669 622.987 94.669C622.987 94.5031 622.987 94.3372 622.737 94.0054C622.487 93.3419 622.237 92.6783 622.237 92.0148C622.737 92.0148 623.487 92.0147 623.487 91.517C623.237 91.3511 622.737 91.1853 622.487 91.0194C622.987 90.6876 622.737 90.3558 622.737 90.024C622.737 89.5263 622.737 89.1945 622.737 88.6969C622.737 88.531 622.737 88.531 622.737 88.3651C624.237 88.531 625.738 88.531 626.988 89.3604C626.988 90.1899 627.489 90.8535 629.239 90.3558C631.74 89.6922 629.489 89.1945 629.239 88.531C630.239 88.3651 631.24 88.3651 631.99 87.8674C632.24 87.8674 632.49 88.0333 632.74 88.0333C633.24 88.0333 633.99 88.3651 634.241 87.8674C634.491 87.2038 633.49 87.5356 632.99 87.3697C631.99 87.2038 630.739 87.3697 629.739 87.5356C629.489 87.5356 628.989 87.5356 628.739 87.5356C627.989 87.2038 627.489 87.3697 626.738 87.5356C626.238 87.5356 625.738 87.7015 625.238 87.7015C624.738 88.0333 623.987 87.5356 623.487 87.8674C623.487 87.7015 623.487 87.7015 623.237 87.7015C620.987 87.8674 618.736 88.365 616.485 88.0333C615.235 88.1992 613.984 88.3651 612.734 88.3651C611.734 88.8627 610.733 88.8628 609.733 88.531C608.733 88.1992 607.483 87.5356 606.232 88.3651C605.982 88.531 605.232 88.1992 604.732 88.0333C604.231 87.5356 603.731 87.7015 603.231 88.0333C603.231 88.0333 603.231 88.0333 602.981 88.0333C602.231 87.8674 601.481 88.0333 601.481 87.3697C602.481 87.5356 603.481 87.7015 603.731 86.7061V86.5402C603.981 86.3743 604.232 85.8767 604.482 86.0426C607.232 86.2085 605.982 85.2131 605.732 84.5495C606.982 83.2224 603.981 82.7247 604.482 81.7293C604.732 81.5634 604.982 81.3975 605.232 81.2316C605.482 81.2316 605.982 81.3975 606.232 81.3975C606.732 81.3975 607.232 81.5634 607.733 81.5634C607.983 81.5634 607.983 81.5634 608.233 81.5634C609.483 81.8952 611.234 81.3975 611.734 81.8952C613.234 83.0565 612.984 81.7293 613.484 81.5634C614.485 80.7339 615.235 81.7293 615.985 81.5634C616.735 81.5634 617.485 81.7293 617.736 81.0657C618.236 80.4022 617.986 79.9045 617.235 79.5727L616.985 79.4068C616.485 79.075 615.735 79.075 615.235 78.9091C615.485 78.9091 615.735 78.9091 615.985 78.7432C616.235 78.7432 616.485 78.7432 616.735 78.5773C615.985 77.2502 614.735 76.9184 612.734 77.5819C612.234 77.7478 611.484 77.9137 610.983 78.0796C610.983 78.0796 610.983 78.0797 610.983 77.9138C610.233 77.4161 609.483 76.9184 608.233 77.0843L607.983 77.2501C607.232 77.2501 606.732 77.2502 606.482 77.9138C606.232 77.9138 606.232 77.9138 605.982 77.9138C605.732 77.7479 605.482 77.582 604.982 77.7479C604.732 77.582 604.732 77.2502 604.232 77.416C603.731 77.7478 603.982 78.0796 604.232 78.4114C603.982 78.4114 603.731 78.2455 603.481 78.2455C602.981 78.2455 602.481 78.2455 602.231 78.4114C602.231 78.4114 602.231 78.4114 601.981 78.4114C601.731 78.2455 601.231 78.2455 601.231 78.0796C601.731 76.9184 600.731 76.9184 599.23 77.0843C598.73 77.0843 598.48 77.0843 598.23 76.9184C596.479 76.5866 594.979 75.7571 592.728 75.923C592.728 75.7571 592.728 75.5912 592.478 75.4253C592.478 75.4253 592.478 75.4253 592.228 75.2594L592.478 75.0935C593.728 75.4253 595.229 75.2594 596.479 75.0935C597.479 75.0935 597.73 74.7618 597.48 74.43C598.23 74.5959 598.98 74.5959 599.73 74.5959C600.98 74.5959 601.981 74.5958 603.231 74.9276C604.482 75.0935 605.982 75.0936 607.232 74.5959C607.482 74.43 607.483 74.43 607.483 74.2641C607.483 74.43 607.983 74.43 607.983 74.43C608.483 74.43 608.983 74.5959 609.483 74.5959C610.233 75.923 611.484 76.4207 613.734 75.923C614.485 75.7571 615.485 75.923 616.235 75.923C616.735 75.5912 617.736 75.7571 617.486 75.0935C616.985 74.7617 616.485 74.9276 615.985 74.7617C616.235 74.7617 616.235 74.7617 616.485 74.7617C618.236 74.264 618.236 73.7664 616.735 73.1028C615.485 73.1028 614.235 73.1028 612.984 73.2687C611.734 72.9369 610.233 72.771 608.983 72.9369C608.483 72.9369 607.983 72.771 607.483 72.771C605.482 71.9416 603.481 72.4392 601.481 72.6051C600.981 72.4392 600.731 72.4392 600.48 72.771C599.73 72.6051 598.73 72.6051 597.98 72.4392C595.729 72.4392 593.478 72.4392 591.228 72.2733C590.227 71.9415 589.227 72.4393 588.227 72.1075C585.726 71.6098 583.475 71.4439 580.974 71.7757C580.224 71.9416 579.974 71.4438 579.474 71.4438C577.724 71.1121 575.723 70.7803 573.972 71.4438C574.723 72.6051 577.223 72.1075 578.224 72.9369C578.724 73.2687 579.224 73.4346 579.974 73.6005C580.224 73.7664 580.474 73.9323 580.974 73.7664C582.975 73.7664 584.225 72.2734 586.476 72.771C586.726 74.2641 589.227 73.7664 590.477 74.43C589.977 75.2594 586.726 76.2548 585.976 75.7571C583.725 74.2641 581.475 75.0935 579.224 75.7571C578.724 74.7617 577.474 75.4253 576.723 75.4253C575.973 75.2595 574.973 75.2594 574.223 75.0935C573.722 75.0935 573.222 75.2594 572.722 75.2594C572.472 75.2594 572.222 75.2595 571.972 75.4253C571.972 75.5912 571.972 75.7571 572.222 75.923C571.972 76.0889 571.972 76.4207 571.722 76.5866C571.472 76.5866 570.972 76.5866 570.721 76.5866C570.471 76.5866 570.471 76.4207 570.221 76.4207C570.221 76.2548 570.972 75.923 570.721 75.7571C569.721 75.5912 568.721 75.4253 567.721 75.0935C566.97 74.7617 566.47 75.2594 565.72 75.0935C565.72 75.0935 565.72 74.9276 565.47 74.9276C564.72 74.7617 564.72 74.5959 565.47 74.2641C565.72 74.0982 565.72 74.0982 565.97 73.9323C566.47 73.9323 566.97 73.7664 567.22 73.7664C567.721 73.7664 568.721 73.7664 568.971 73.4346C569.221 72.9369 568.221 72.771 567.971 72.6051C567.471 72.2733 566.97 72.1074 566.22 71.7757C565.97 71.6098 565.97 71.6097 565.72 71.4438C565.47 70.6144 563.219 71.4438 563.219 70.6144C563.219 68.4578 560.969 69.1214 559.218 69.2872C557.718 69.1214 556.217 69.1213 554.717 68.9554C554.467 68.9554 554.216 68.9555 553.966 69.1213C552.966 68.7896 552.216 68.9555 551.466 69.4531C550.966 69.4531 550.465 69.2873 550.215 69.6191C548.465 69.9508 546.714 69.1214 544.964 69.4531C541.463 68.6237 537.712 69.2872 534.211 69.2872C533.21 69.2872 531.96 69.2873 530.959 69.4531C529.959 69.1214 528.959 69.4531 527.959 69.4531C527.709 69.2873 526.958 69.1213 526.958 68.9554C526.458 68.126 525.458 68.4578 524.958 68.7896C524.208 69.1214 524.708 69.619 525.208 69.9508C527.458 70.2826 529.709 70.6144 531.96 71.278C533.21 71.278 534.211 71.1121 535.211 70.6144C536.461 70.6144 537.461 70.6144 538.462 70.4485C539.462 70.7803 540.462 70.6144 541.463 70.7803C542.213 71.1121 543.213 70.9462 543.963 70.7803C545.964 70.6144 547.965 70.4485 549.965 70.6144C550.716 70.9462 551.716 70.4485 552.466 70.9462C553.216 71.4439 553.716 71.1121 554.467 70.7803C554.717 70.7803 554.967 70.6144 555.467 70.6144C556.467 70.6144 557.467 70.2826 558.468 70.6144C558.968 70.7803 559.468 70.9462 559.968 70.9462C560.719 71.9416 558.718 71.4439 558.468 71.9416C559.468 71.9416 560.468 71.9416 561.469 71.9416C562.719 72.2734 563.969 71.6098 564.97 72.1075C564.97 72.2734 564.72 72.6051 564.72 72.771C563.969 73.1028 562.969 73.2687 561.969 73.2687C561.469 72.9369 560.969 73.1028 560.468 73.4346C560.218 73.4346 560.218 73.4346 559.968 73.4346C559.968 73.6005 559.968 73.7664 559.968 73.9323C559.968 73.9323 559.718 73.9323 559.718 74.0982C558.468 74.7617 556.967 74.7618 555.717 75.4253C555.717 75.5912 555.717 75.5912 555.467 75.7571C554.467 75.7571 553.466 75.7571 552.716 75.923C552.716 75.923 552.716 75.7571 552.466 75.7571C552.466 75.5912 552.466 75.5912 552.466 75.4253C550.966 74.7618 549.465 74.5958 547.715 74.7617C546.714 74.7617 545.714 74.9277 544.964 75.4253C543.964 75.5912 542.713 75.5912 541.713 75.7571C540.963 75.5912 540.212 75.5912 539.462 75.4253C538.212 75.4253 536.711 75.4253 535.711 76.0889C535.711 76.2548 535.461 76.4207 535.461 76.7525C535.211 76.7525 535.211 76.7525 534.961 76.9184C533.46 77.0843 533.21 76.5866 533.21 75.923C532.96 75.4253 532.71 75.2595 531.71 75.4253C531.71 75.4253 531.71 75.4253 531.71 75.2594C530.459 74.9277 529.459 74.7618 530.709 73.7664C530.96 73.6005 530.709 73.4346 530.709 73.4346C529.209 73.7664 527.709 73.1028 526.458 73.2687C524.958 73.4346 523.707 73.6005 522.207 73.7664C521.457 73.7664 520.957 73.1028 520.206 73.1028C519.206 72.6051 518.456 72.771 517.706 73.4346C517.455 73.6005 517.205 73.7664 516.955 73.7664C515.955 73.9323 515.205 74.0982 514.705 74.5959C512.954 74.9277 510.203 74.7618 511.954 76.9184C511.954 77.0843 511.704 77.2502 511.704 77.416C510.704 77.416 510.203 77.4161 509.453 76.7525C508.703 75.923 507.202 75.7571 505.952 76.2548C505.702 76.2548 505.702 76.2548 505.702 76.4207C504.202 76.4207 502.701 77.0842 501.201 76.4207C500.701 76.4207 499.95 76.2548 499.45 76.2548C498.45 76.4207 497.7 76.2548 497.45 75.7571C497.199 75.0935 497.7 74.5959 498.45 74.2641C499.2 73.9323 499.95 73.7664 500.951 73.7664C503.201 73.4346 505.452 72.9369 507.453 72.1075C507.953 72.1075 508.703 71.9416 509.203 71.9416C509.953 72.2734 510.453 72.1075 511.204 71.9416C511.704 71.7757 511.454 71.4439 511.454 71.1121C513.454 71.1121 515.705 71.4439 516.455 69.6191C520.206 68.7896 523.707 68.126 527.459 67.2965C527.709 67.2965 527.959 67.2965 528.459 67.2965C528.709 67.2965 528.959 67.1306 529.459 67.1306C529.959 66.9648 530.459 66.7988 530.709 66.6329C532.71 66.467 534.461 66.3012 536.461 66.1353C537.712 65.8035 538.462 64.8081 539.962 64.4763C541.713 64.1445 540.713 62.9833 541.713 62.4856C541.963 62.6515 542.213 62.6515 542.213 62.6515C542.713 62.6515 543.213 62.3197 542.963 61.9879C543.713 62.1538 544.464 62.1538 544.964 62.4856C544.714 62.4856 544.214 62.6515 544.214 62.8174C544.714 62.8174 545.214 63.1492 545.714 62.6515C547.214 61.822 549.465 61.4902 550.715 61.3244C552.966 61.1585 551.966 60.4949 552.466 59.9972C553.466 59.6654 552.966 59.1677 552.966 58.67C553.466 58.5041 553.716 58.3382 554.217 58.3382C554.467 58.3382 554.967 58.5041 555.217 58.5041C555.217 58.67 555.467 59.0018 555.467 59.1677C555.717 59.8313 556.717 60.1631 557.468 60.1631C557.968 60.1631 558.718 59.9972 558.718 59.6654C558.968 59.0018 558.468 58.5041 557.468 58.1723C558.218 57.8405 558.718 57.3429 559.468 57.3429C559.718 57.5088 560.218 57.6747 560.468 57.8406C560.719 58.0065 560.969 58.1723 560.969 58.3382C560.969 59.0018 561.469 59.1677 562.219 59.1677C562.469 59.1677 562.969 59.0018 563.219 58.8359C563.719 58.1724 562.719 58.3383 562.219 58.0065C561.969 57.8406 561.719 57.5088 561.469 57.3429C561.469 56.6793 560.969 56.0157 562.469 55.6839C562.719 55.6839 563.219 55.8498 563.469 55.8498C563.719 56.1816 564.47 56.0157 564.97 56.0157C565.22 56.1816 565.22 56.1816 565.47 56.3475C566.72 55.5181 568.471 55.6839 569.721 55.0203C570.221 55.0203 570.722 54.8545 570.471 54.5227C569.971 53.8591 570.221 53.3614 569.971 52.6978C570.221 52.532 570.471 52.366 570.971 52.5319C571.722 52.2002 571.222 51.7025 571.722 51.3707C572.222 51.0389 572.722 50.7071 572.222 50.3753C571.972 50.5412 571.722 50.7071 571.472 50.873V51.0389C571.222 51.0389 570.972 51.2048 570.721 51.2048C570.471 51.7025 568.721 51.3707 569.221 52.366C569.721 53.0296 568.971 53.5273 568.471 54.025C568.221 54.3568 568.221 54.5227 568.471 54.8544C568.221 54.8544 567.971 54.8544 567.721 54.8544V54.6886C566.97 54.5227 566.47 54.025 565.97 53.5273C566.22 53.0296 567.471 53.3614 567.471 52.6978C566.47 52.8637 565.72 52.366 564.72 52.5319C564.72 52.2002 564.47 51.8684 564.72 51.5366C566.47 51.3707 568.221 51.2048 568.221 49.7118C567.971 49.7118 567.971 49.7118 567.721 49.7118C566.72 49.7118 567.22 50.2095 566.97 50.5412C565.97 51.2048 564.97 51.2048 563.719 50.873C563.719 50.5412 563.719 50.3753 563.469 50.0435C564.47 49.7117 564.47 49.2141 564.47 48.7164C563.969 48.7164 563.469 48.0528 563.219 48.7164C562.719 49.7118 562.469 48.5505 561.969 48.7164C561.469 48.2187 562.219 47.721 561.969 47.2234C561.969 47.0575 561.969 47.0574 561.969 46.8916C562.219 46.8916 562.469 46.8916 562.969 47.0575C563.469 47.0575 563.969 47.2234 564.72 47.2234C564.97 47.0575 565.22 46.8916 565.47 46.8916C565.47 47.3892 565.72 47.721 566.47 47.8869C566.97 48.2187 567.471 47.8869 567.971 48.0528C568.471 47.721 568.221 47.2233 568.721 46.7257C569.221 46.0621 569.471 45.0667 567.471 44.9008C566.97 45.3985 566.22 45.7303 566.97 46.3939C566.72 46.5598 566.72 46.5598 566.47 46.7257C566.22 46.7257 565.97 46.8916 565.47 46.8916C564.97 46.5598 564.47 46.0621 564.22 45.7303C563.969 45.5644 563.719 45.2326 563.219 45.3985C562.719 45.5644 562.969 45.8962 562.969 46.228C562.469 46.7257 561.469 46.5598 560.718 46.8916C560.468 46.8916 560.468 46.8916 560.218 46.8916C560.218 46.7257 560.218 46.7256 560.218 46.5597C560.218 46.3939 560.218 46.0621 559.968 45.8962C560.468 45.3985 561.469 45.5644 561.969 45.0667C562.219 45.0667 562.469 44.9008 562.719 44.9008C563.219 44.7349 564.22 44.4031 564.22 44.2372C564.22 43.7396 563.219 44.0714 562.719 43.7396C562.469 43.7396 561.969 43.9054 561.969 44.0713C561.719 44.2372 561.469 44.4032 561.219 44.569C560.719 44.9008 559.968 45.0667 559.468 45.3985C559.218 45.3985 559.218 45.3985 558.968 45.3985C558.968 45.3985 558.968 45.2326 558.718 45.2326C558.968 44.7349 560.218 44.7349 559.968 44.0713C560.719 43.5737 562.219 43.4078 562.469 42.5783C562.969 42.5783 563.469 42.5783 564.22 42.5783C564.97 42.5783 565.22 42.2465 565.22 41.9147C565.22 41.7488 565.47 41.4171 564.97 41.2512C564.47 41.0853 563.969 41.2511 563.719 41.5829C563.219 41.9147 562.719 41.5829 562.219 41.7488C560.468 41.417 560.468 41.4171 561.719 40.5876C562.719 40.5876 563.469 40.4217 563.969 39.7581C563.969 39.7581 563.969 39.5922 563.969 39.4263C564.97 39.7581 565.72 39.4263 566.72 39.2604C566.72 39.0945 566.72 39.0946 566.72 38.9287C567.22 38.7628 567.721 38.431 567.971 38.0992C568.721 37.7674 569.471 37.4356 569.971 37.1038C570.721 37.4356 571.472 37.6015 571.972 37.1038C572.472 36.772 571.722 36.4403 571.222 36.4403C570.972 36.1085 570.721 35.9425 570.221 35.9425C569.971 36.2743 569.471 36.2744 568.971 36.4403C568.721 36.4403 568.721 36.6061 568.471 36.6061C568.221 36.6061 567.971 36.6061 567.971 36.4403C568.471 36.1085 568.721 35.9426 569.221 35.6108C568.971 35.4449 568.721 35.4449 568.221 35.4449C567.721 35.4449 567.721 35.1131 567.471 34.9472C567.721 34.9472 567.971 34.7813 568.471 34.7813C569.221 34.7813 569.721 34.4495 569.471 34.1177C569.221 33.7859 568.971 34.2836 568.721 34.2836C568.221 34.2836 567.721 34.2836 567.471 34.4495C567.471 33.7859 567.971 33.2882 568.471 32.7906C568.971 32.7906 569.471 32.7906 569.721 32.7906C570.971 31.9611 570.221 31.4634 569.221 31.1316C568.971 30.9657 568.971 30.9657 568.721 31.1316C568.721 31.1316 568.471 31.2975 568.471 31.4634V31.6293C568.471 31.7952 568.221 31.9611 567.971 31.9611C567.721 31.9611 567.22 31.9611 566.97 31.9611C566.72 31.7952 566.47 31.4634 566.47 31.2975C566.97 30.7998 567.971 30.7998 568.471 30.4681C567.721 29.9704 566.72 30.4681 565.97 30.4681C564.72 29.6386 566.97 29.9704 566.72 29.4727C566.72 29.4727 566.47 29.3068 566.72 29.1409C566.72 28.975 566.97 28.6432 566.97 28.4773C566.97 27.9796 566.72 27.482 566.72 26.9843C567.471 27.1502 566.72 27.6479 566.97 27.9796C566.97 28.1455 567.22 28.1455 567.471 28.3114C567.721 28.3114 567.971 28.3114 567.971 28.3114C568.721 28.6432 568.221 29.4727 569.221 29.6386C570.972 28.8091 569.221 28.4773 568.721 27.8137C569.971 27.6478 571.472 27.6478 571.722 26.6525C572.722 25.4912 573.722 26.3207 574.473 26.8184C574.473 26.4866 574.723 26.1548 574.723 25.9889C576.973 25.6571 579.474 25.4912 581.725 24.9935C582.725 24.4958 582.225 24.1641 581.725 23.6664C580.975 23.1687 580.474 23.0028 579.474 23.5005C579.224 23.1687 578.974 23.0028 578.474 23.0028C577.974 23.1687 577.474 23.1687 576.973 23.3346C575.723 23.3346 574.723 23.6664 573.722 23.9982C572.972 24.1641 572.472 24.1641 571.722 24.33C571.472 24.33 571.472 24.33 571.222 24.33C570.972 24.33 570.972 24.1641 570.721 24.1641C571.472 23.8323 572.472 23.3346 573.222 23.0028C573.722 22.671 574.723 22.671 573.972 22.0074C573.222 21.5098 572.222 20.8462 571.222 21.3439C569.721 22.1734 567.971 22.1733 566.22 22.0074H565.97C565.72 21.8416 565.72 21.8415 565.72 21.6756C565.72 21.5097 565.72 21.5098 565.72 21.5098C566.22 21.178 566.47 20.6803 567.471 21.0121C567.971 21.178 568.221 21.178 568.721 21.0121C570.221 20.6803 571.722 20.0167 573.222 19.8508C573.222 19.8508 573.472 19.8508 573.472 20.0167H573.722C573.222 20.3485 573.722 20.5144 574.223 20.8462C573.722 21.6756 575.473 21.0121 575.473 21.5098C575.223 21.8416 574.973 22.0075 575.223 22.3393C575.473 22.1734 575.723 22.1733 575.973 22.0074C576.473 21.8416 577.223 21.8415 577.724 21.8415C577.724 21.6756 577.473 21.3439 577.223 21.3439C577.223 21.178 577.474 20.8462 577.474 20.6803C577.724 20.6803 578.224 20.6803 578.474 20.6803C578.974 20.3485 578.724 20.0167 578.724 19.6849H578.474C578.224 19.3532 579.974 18.6896 577.974 18.5237C576.973 18.5237 576.723 18.5237 576.723 19.1872C576.723 19.3531 576.473 19.685 576.473 19.8508C576.223 20.0167 575.973 20.0167 575.723 20.1826C575.723 20.1826 575.723 20.1826 575.723 20.0167C575.473 19.8508 575.223 19.6849 574.973 19.519C574.223 18.8555 575.223 18.5237 575.473 17.8601C574.723 17.3624 573.722 17.8601 572.972 17.8601C571.722 18.026 571.972 19.0213 570.971 19.3531C570.721 19.1872 570.471 19.0214 570.221 18.8555C570.721 18.5237 570.471 18.1919 570.471 17.8601C570.972 17.8601 571.222 17.6942 571.472 17.5283C571.472 17.3624 570.721 17.1965 571.222 16.8647C572.722 17.0306 573.972 16.8647 574.473 15.8693C574.473 15.7035 574.473 15.5376 574.223 15.2058C574.223 15.0399 574.223 15.0399 574.223 14.874C575.473 14.5422 575.223 14.0445 574.223 13.5468C573.973 13.0492 574.723 12.8833 574.973 12.5515C575.223 12.5515 575.223 12.5515 575.473 12.5515C575.723 12.5515 575.973 12.3856 576.223 12.3856C574.973 11.722 573.973 12.5515 572.972 12.5515C572.472 12.5515 572.472 12.2197 572.222 12.0538C571.722 12.3856 571.472 12.7174 571.472 13.0492C571.472 13.5469 571.222 13.5468 570.721 13.3809C570.721 13.3809 570.721 13.3809 570.721 13.5468V13.3809C570.721 13.0491 570.471 12.7174 570.471 12.5515C569.721 12.2197 568.721 11.8879 568.721 11.2243C567.971 11.3902 567.721 12.2197 566.47 12.0538C564.72 12.5515 562.719 11.722 561.219 13.0492C560.969 13.0492 560.718 13.0492 560.218 13.0492C559.968 12.7174 559.718 12.5515 559.468 12.2197L559.968 10.7267V10.5608C560.969 10.229 560.719 11.722 561.219 11.0584C561.969 10.229 562.969 10.5608 563.719 10.3949C565.22 10.8925 566.22 9.73131 567.471 9.8972C567.971 9.39952 567.471 9.2336 566.97 9.39949C566.22 9.39949 565.72 9.5654 564.97 9.7313C564.72 9.7313 564.72 9.7313 564.47 9.7313V9.56539C563.469 9.73129 562.719 10.0631 561.719 9.8972C560.969 9.56542 560.218 9.7313 559.718 9.7313C558.718 9.23362 557.718 9.89719 556.717 9.7313C556.717 9.7313 556.717 9.8972 556.467 9.8972C556.217 9.8972 555.967 9.8972 555.717 9.8972C555.467 9.73131 555.217 9.73129 554.967 9.56539C554.717 9.23361 554.967 8.90182 554.967 8.73592H555.217C555.717 8.73592 556.217 8.57005 556.467 8.23826C557.467 8.07237 558.218 7.90645 559.218 7.90645C560.468 7.90645 561.469 7.90645 562.719 7.90645C562.969 7.90645 563.219 7.74055 563.469 7.74055C564.47 7.57466 565.72 7.40879 566.72 7.40879C567.22 7.2429 567.721 7.40876 568.221 6.91108C565.97 7.40876 564.97 6.9111 564.97 5.58395C564.97 5.08627 564.72 4.58859 564.22 4.09091C564.47 3.92502 564.72 3.7591 564.97 3.7591C565.47 3.7591 565.97 3.5932 566.47 3.5932C567.22 3.75909 567.971 3.75912 568.471 3.26144C568.471 3.09555 568.471 3.09554 568.471 3.09554C568.471 3.09554 568.721 3.09553 568.721 2.92963C568.971 3.26142 569.221 3.75912 569.721 4.09091C570.221 4.09091 570.721 4.09089 570.971 4.58857C571.722 4.42268 572.222 4.09089 572.722 3.7591H572.472C573.472 2.76374 572.472 2.92963 571.472 2.92963C571.472 2.26606 572.722 2.26608 573.722 1.6025C572.722 1.6025 571.972 1.43657 571.722 0.938884C571.722 0.607096 571.722 0.441202 571.722 0.109414C571.222 0.109414 570.721 0.275318 570.221 0.275318C568.221 0.109424 566.22 -0.0564803 564.22 0.109414C562.719 -0.222374 561.719 0.275338 560.468 0.607126C560.218 0.607126 560.218 0.607126 559.968 0.607126L559.718 0.77303C558.968 0.938924 559.218 1.43657 558.718 1.76835C558.468 1.76835 557.968 1.76839 557.718 1.6025C557.718 1.43661 557.968 1.43659 557.968 1.27069C558.468 1.1048 558.468 0.938914 557.968 0.607126C557.468 0.607126 556.967 0.77303 556.467 0.77303C555.717 0.77303 555.217 0.938884 554.467 0.938884C553.966 0.938884 553.466 1.10479 553.216 1.10479C551.216 0.938894 549.215 0.77299 547.214 0.938884C546.464 1.10478 545.714 1.1048 544.464 1.27069C545.214 1.43659 545.714 1.60246 545.964 1.76835C545.964 2.10014 545.714 2.59784 545.714 2.92963C545.464 2.92963 545.214 2.76373 544.714 2.76373C543.463 1.27068 542.963 1.1048 540.212 2.10016C539.462 2.10016 538.462 2.10016 537.712 2.10016C536.961 2.10016 535.961 2.10016 535.211 2.10016C534.211 1.93427 534.211 2.26605 534.211 2.76373C533.46 2.92962 533.46 2.43196 533.21 2.26607C532.21 1.60249 530.96 1.93428 529.959 2.26607C528.959 2.59785 530.209 2.76374 530.459 2.92963C530.209 3.09553 529.959 3.2614 529.709 3.42729C529.209 3.92498 528.459 4.25676 527.959 3.42729C527.709 2.92961 527.458 2.59783 526.458 2.76373C525.458 2.92962 524.458 2.92964 523.707 3.09554C522.957 2.92964 522.207 2.92964 521.207 3.09554C520.957 3.09554 520.707 3.09554 520.456 3.09554C516.205 2.43196 512.204 3.59323 507.953 4.09091C505.202 4.09091 502.451 4.09091 499.7 4.09091C499.45 4.09091 499.2 4.25676 498.7 4.25676C498.2 4.25676 497.7 4.42267 497.199 4.42267C496.949 4.42267 496.699 4.58857 496.199 4.58857C494.199 4.75447 492.448 5.08625 490.447 5.25214C490.197 5.25214 489.947 5.25214 489.447 5.25214C488.697 5.08625 487.697 5.25214 486.946 5.25214C484.946 5.25214 483.195 4.92035 481.195 5.25214C477.694 5.91572 473.942 6.24752 470.191 6.41342C468.691 6.41342 467.19 6.08163 465.69 6.41342C464.69 6.57931 463.94 6.91109 462.939 7.07698C461.189 7.24288 459.438 7.40876 457.688 7.74055C457.437 7.74055 457.437 7.74055 457.187 7.74055C456.437 7.57466 455.687 7.57466 454.687 7.74055C453.936 7.57466 453.186 7.57466 452.436 7.74055C451.686 7.57466 450.936 7.57466 450.435 7.74055C450.185 7.74055 450.185 7.74055 449.935 7.74055C446.934 8.07234 443.933 8.57004 440.932 8.90183C440.182 8.90183 439.432 9.06773 438.682 9.06773C436.681 9.06773 434.681 8.57001 432.68 9.23359C429.429 9.56537 426.428 10.0631 423.177 10.3949C422.427 10.3949 421.677 10.3949 420.676 10.3949C420.176 10.229 419.676 10.229 419.176 10.3949C417.676 10.0631 416.425 10.7266 414.925 10.8925C413.174 11.0584 411.424 11.3902 409.673 11.5561C407.673 11.722 405.922 11.722 403.921 11.8879C401.921 11.3902 399.92 12.0538 398.17 12.3856C396.669 12.5515 395.419 12.7174 393.918 12.8833C393.168 12.8833 392.418 13.0492 391.668 13.0492C390.167 13.0492 388.667 13.0492 387.166 13.0492C385.416 12.7174 383.915 13.0492 382.415 13.5468C382.165 13.5468 382.165 13.5468 381.915 13.5468C380.414 13.7127 379.164 13.8787 377.664 14.0446C376.913 14.2104 376.163 14.2104 375.413 14.3763C374.663 14.0445 373.662 14.3763 372.912 14.3763C372.912 14.3763 373.162 14.3763 373.162 14.5422C373.162 14.5422 372.912 14.5422 372.912 14.3763C371.662 14.2104 370.661 14.2104 369.411 14.5422C368.661 14.7081 367.661 14.7081 367.16 15.0399C365.41 15.3717 363.409 15.5376 361.659 15.8693C361.409 15.8693 360.909 15.8694 360.658 16.0353C360.408 16.0353 360.158 16.0353 359.658 16.2012C358.908 16.0353 357.908 16.0353 357.157 16.2012H357.658C357.407 16.2012 357.407 16.2012 357.157 16.2012C356.907 16.2012 356.907 16.2012 356.657 16.2012C355.907 16.0353 354.907 16.0353 354.157 16.2012C353.406 16.2012 352.406 16.367 351.906 16.6988C347.655 17.5283 343.153 17.8601 338.652 18.026C338.152 17.8601 337.652 18.026 337.151 18.1919C336.401 18.3578 335.401 18.3578 334.901 18.6896C334.401 18.6896 333.9 18.8555 333.65 18.8555C332.15 19.0214 330.399 19.1873 328.899 19.519C328.399 19.519 327.899 19.6849 327.399 19.6849H327.148C323.647 19.1873 320.146 20.0167 316.895 21.0121C316.395 21.0121 315.895 21.178 315.645 21.178C314.645 21.3439 313.644 21.3439 312.894 21.5098H312.644C309.643 21.6757 306.642 20.8462 303.891 22.3393C302.391 22.5051 300.891 22.671 299.64 23.1687C299.39 23.1687 299.39 23.1687 299.14 23.1687C298.89 23.1687 298.64 23.1687 298.14 23.3346C297.89 23.3346 297.89 23.3346 297.64 23.3346C296.139 23.1687 294.639 23.5005 293.138 23.6664C291.638 23.6664 289.887 23.0028 288.887 24.1641C287.136 24.3299 285.386 24.6617 283.885 25.1594C283.635 25.1594 283.385 25.3253 282.885 25.3253C282.135 25.3253 281.635 25.4912 280.884 25.4912C280.884 25.4912 280.635 25.4912 280.384 25.4912C279.134 25.3253 277.884 25.6571 276.383 25.6571C275.383 25.4912 274.633 25.6571 273.882 25.9889C273.132 25.9889 272.132 26.1548 271.632 26.4866C270.381 26.6525 268.881 26.6525 267.881 27.3161C267.631 27.3161 267.631 27.3161 267.631 27.3161C265.63 27.482 263.879 27.6478 261.879 27.8137C259.128 27.482 256.877 28.8091 254.377 29.3068C248.125 30.1362 241.623 30.4681 235.621 32.2929C233.12 32.4588 230.619 32.7906 228.119 32.9565C226.868 32.9565 225.868 33.4541 224.868 33.7859C224.368 33.7859 223.867 33.9518 223.367 34.1177C223.117 34.1177 222.867 34.2836 222.617 34.2836C219.866 34.6154 216.865 34.9472 214.115 35.279C212.864 35.1131 211.364 35.2789 210.363 35.7766C207.863 36.2743 205.362 36.772 203.111 37.2697C199.36 37.6015 195.609 37.4356 192.358 38.9287C191.608 39.0946 190.357 38.9287 190.107 39.7581C187.857 39.4263 185.856 40.0899 183.605 40.2558C183.105 40.0899 182.605 40.0899 182.105 40.2558C181.105 40.2558 180.354 40.2558 179.604 40.7535C178.604 40.9193 177.854 41.2512 176.853 41.4171C176.103 41.4171 175.603 41.5829 174.853 41.9147C174.603 41.9147 174.353 42.0806 174.103 42.0806C171.852 42.4124 169.351 42.5783 167.1 42.9101C166.85 42.9101 166.85 42.9101 166.6 42.9101C164.35 42.7442 162.849 43.7396 160.849 44.2372C160.598 44.2372 160.598 44.2372 160.598 44.2372C159.348 44.4031 158.348 44.4031 157.348 44.9008C157.097 44.9008 156.597 44.7349 156.347 45.0667C154.597 45.2326 152.846 45.3985 151.096 45.5644C150.345 45.5644 149.845 45.5644 149.095 45.7303C148.345 45.7303 147.845 45.8962 147.345 46.228C146.594 46.228 146.094 46.3939 145.594 46.7257C144.094 47.0574 142.843 47.3892 141.343 47.5551C138.592 47.8869 135.591 47.8869 133.09 48.5505C129.589 49.38 126.338 50.3753 122.837 50.873C121.837 51.0389 120.586 51.0389 119.586 51.2048C118.586 51.0389 117.836 51.0389 117.085 51.5366C116.585 51.7025 115.835 51.8684 115.335 52.0343C113.334 52.532 111.334 52.8637 109.333 53.3614C108.333 53.5273 107.583 53.6932 106.582 53.6932H106.332C104.582 53.6932 102.831 53.5273 101.331 54.3568C101.081 54.3568 100.831 54.5227 100.581 54.5227C100.08 54.5227 99.8302 54.5227 99.5801 54.8544C98.8299 55.0203 98.0798 55.3522 97.3296 55.5181C95.8291 55.684 94.0785 55.8498 92.5781 56.3475C90.8276 56.5134 89.0771 56.6793 87.3266 56.8452C84.8258 56.8452 82.8252 57.8405 80.5745 58.3382C80.3244 58.3382 79.8242 58.5041 79.5741 58.67C77.8236 58.8359 76.3232 59.1677 74.5726 59.3336C74.3226 59.3336 73.8225 59.3336 73.5724 59.3336C71.0717 59.1677 68.571 59.4995 66.5704 60.4949C65.32 60.8267 64.0696 60.9926 62.8192 61.3244C60.5686 61.6561 58.0677 61.822 55.817 62.1538C54.3166 61.9879 52.8162 61.9879 51.3157 62.6515C50.3154 62.8174 49.3152 62.9833 48.5649 63.3151C48.5649 63.3151 48.3148 63.481 48.0648 63.481C43.8135 64.3104 39.5623 64.3104 35.311 64.8081C32.3101 65.3058 29.059 66.1353 25.808 66.3012C25.0578 66.3012 24.3077 66.3012 24.0576 66.7988H23.8075C23.5574 66.6329 23.3073 66.3011 22.5571 66.467C20.3064 66.6329 18.0557 66.3012 15.805 66.3012C15.0548 66.1353 14.5547 65.9694 13.8045 65.9694C13.3043 65.8035 12.8042 65.6376 12.3041 65.8035C10.8036 65.4717 9.30314 65.9694 8.05276 66.1353C7.05246 66.1353 6.30218 66.1353 5.80203 66.7988C5.30188 67.6283 4.55177 68.6237 4.05162 69.4531C2.80125 70.6144 1.80086 71.9415 1.30071 73.2687C-0.199742 73.9323 -0.449817 74.43 1.30071 75.0935C0.800558 75.5912 -0.449817 76.2548 1.30071 76.9184C1.55078 77.0843 1.55081 77.582 1.80089 77.9138C1.55081 78.0797 1.55078 78.4114 1.30071 78.5773C0.800558 79.075 -0.19965 79.5727 0.3005 80.2363C0.0504246 80.4022 0.0503331 80.568 0.0503331 80.8998C-0.199742 81.3975 0.550452 81.7293 0.800527 82.0611C1.0506 82.5588 0.550575 83.0565 0.3005 83.72C0.3005 84.8813 0.300408 86.0426 0.0503331 87.0379C0.300408 87.7015 0.550514 88.1992 0.550514 88.8627C0.550514 89.0286 0.550514 89.1945 0.550514 89.3604C-0.449786 91.1853 1.05069 92.6783 2.30107 94.1714C3.05129 95.9962 3.55138 97.6551 6.30221 98.8164C7.30251 99.314 7.05252 100.475 9.05312 100.475C9.55327 100.807 10.3034 101.139 10.8035 101.471C10.8035 101.802 11.3038 102.134 11.5539 102.3C12.3041 102.798 12.8041 101.802 13.3043 102.134C13.5544 102.3 13.8045 102.466 13.8045 102.632C13.8045 102.798 13.8045 102.798 14.0546 102.964C14.0546 103.296 14.0545 103.627 13.8045 103.959C12.8042 105.452 14.0546 106.116 16.0552 106.448C17.3056 107.277 18.8059 107.775 20.8065 107.277C21.0566 107.277 21.3067 107.277 21.8069 107.277C21.8069 107.775 22.5571 107.609 23.0573 107.609C23.8075 107.941 24.5577 108.106 25.558 107.941C27.0585 108.272 28.809 108.106 30.5595 108.106C31.3097 108.272 31.8099 108.438 32.5601 108.106H32.8102H33.0603C33.5604 108.106 34.0605 108.106 34.5606 108.272C35.561 108.604 34.8108 108.936 34.3106 109.268C33.0603 109.434 32.0599 109.765 31.3097 110.263C30.8096 110.429 30.0594 110.595 31.0597 110.927C31.3098 111.093 31.8098 111.424 32.0599 111.59C31.8098 112.088 32.31 112.42 32.5601 112.752C32.5601 113.747 34.3107 113.747 34.8108 114.245C36.3113 114.908 38.3119 114.576 39.8123 114.908V114.742C39.8123 114.742 39.8123 114.742 40.0623 114.742V114.908C41.0626 115.24 42.8132 114.41 43.0633 115.572C42.5631 116.235 41.8129 115.24 41.3127 115.738C41.5628 116.235 42.3131 116.069 42.8132 116.235C43.5635 116.567 42.8132 116.567 42.5631 116.733C42.0629 116.733 41.5628 116.899 41.0627 116.899C40.3125 116.899 39.3121 116.899 39.5621 117.562C39.8122 118.06 40.8126 117.894 41.3127 117.562C41.5628 117.562 41.8129 117.562 42.3131 117.397C43.5634 117.894 44.0636 117.231 44.8138 116.733C44.8138 116.401 44.5636 116.235 44.5636 115.903C44.5636 115.903 44.5637 115.903 44.8138 115.903C46.5643 115.572 48.565 115.406 49.0651 113.913C49.5653 113.913 50.0654 113.913 50.5655 114.079C51.0657 113.913 51.5658 113.747 51.8159 113.415C53.3163 112.917 54.8168 112.586 56.5674 112.917C57.0675 113.249 56.5673 113.581 56.3172 113.747C55.8171 113.913 55.0668 114.079 54.5666 114.41C53.0662 114.245 52.066 114.576 51.8159 115.572C52.8162 115.406 54.0665 115.572 55.0668 114.908V114.742V114.908C55.3169 115.24 56.3173 115.904 54.8168 116.069C53.5664 116.235 54.5667 116.733 54.3166 117.065C54.3166 117.231 54.0666 117.231 54.0666 117.397C53.3164 117.562 52.066 117.397 51.8159 118.226C51.3157 118.558 51.0657 118.724 50.5655 119.055C50.0654 119.387 49.5652 119.553 48.815 119.885C48.3148 119.885 47.8147 120.051 47.5646 120.383C46.8144 120.548 45.5641 120.548 45.314 121.212C45.314 121.212 45.0638 121.212 45.0638 121.378C44.8138 121.378 44.3137 121.378 44.0636 121.378C43.0633 121.378 42.0629 121.544 41.3127 122.042C40.3124 122.042 40.0623 122.539 39.5621 122.871C38.8119 122.871 38.3118 122.871 37.5616 122.871C36.8114 123.203 36.0611 123.369 35.0608 123.7C34.5607 123.866 34.3106 124.032 33.8105 124.198C33.3103 124.198 32.5601 124.198 32.3101 124.696C32.06 124.696 32.0599 124.696 32.0599 124.862C30.8095 125.028 29.5592 125.194 28.3088 125.525C28.0587 125.525 27.8087 125.691 27.5586 125.691H27.3086C26.3083 125.525 25.558 125.857 24.8078 126.355C23.8075 126.521 22.8072 126.687 21.5569 126.687C20.8066 126.355 20.3065 126.521 19.8063 127.018C19.5562 127.184 19.8063 127.516 20.0563 127.682C20.5565 128.014 20.8066 127.682 21.0567 127.516C22.057 127.35 23.0572 127.018 23.8075 127.35C24.8078 127.682 25.558 127.35 26.0582 126.853C26.0582 126.853 26.3082 126.852 26.3082 127.018C26.5583 127.184 27.3086 126.852 27.3086 127.35L27.0584 127.516C26.0581 127.35 25.3079 127.35 24.3076 127.848C23.8075 128.18 23.5574 128.346 23.0573 128.677C22.307 128.843 20.8065 128.843 22.0569 129.673C22.8071 129.839 23.3073 129.673 23.8075 129.341C23.8075 129.341 23.8075 129.341 24.0576 129.507C23.8075 129.673 23.3073 129.839 23.3073 130.17C23.0572 130.336 22.8072 130.668 22.5571 130.834C21.8069 131 21.0566 130.834 20.8065 131.332C20.0563 131.498 19.0561 131.498 18.0558 131.663C19.0561 132.327 20.5565 132.991 19.3061 134.152C18.5559 134.484 18.0558 134.981 17.3056 135.313C16.8054 135.479 16.5553 135.811 16.0552 135.977C15.305 135.977 14.5547 135.977 13.8045 135.977C12.5541 135.645 11.5538 135.977 10.5535 136.308C10.0534 136.474 9.55321 136.64 9.30314 137.138C7.80269 137.304 6.80233 137.636 7.0524 138.797C7.0524 139.46 6.3023 139.792 5.302 139.958C4.80185 139.626 4.30161 139.792 3.80146 139.958V140.29C4.30161 140.456 4.80185 140.788 5.302 140.124C6.55237 140.124 7.30257 139.626 8.55294 139.46V139.958C7.80272 140.622 9.30314 140.456 9.30314 140.788C8.30284 141.119 7.05252 141.451 7.80275 142.447C7.05252 143.11 7.55264 143.276 8.55294 143.276C8.80302 143.276 9.30308 143.442 9.55315 143.442C9.55315 143.608 9.55324 143.608 9.80332 143.774C9.80332 144.935 10.5535 145.101 11.8039 144.437C12.054 144.437 12.3041 144.437 12.8042 144.271C14.0546 144.769 14.8048 144.935 16.5554 144.437C18.0558 143.94 19.3062 143.276 21.0567 143.276C21.5568 142.944 23.0573 143.11 22.8072 142.115C24.3077 142.115 24.3077 141.119 25.308 140.954C26.0582 140.622 27.0585 140.622 27.3086 139.958C28.0588 139.626 29.3091 139.626 30.0593 138.963C30.5595 138.963 31.0597 138.797 31.5599 138.797C31.8099 138.797 31.8098 138.797 32.0599 138.631C32.5601 138.465 32.8101 138.299 33.3103 138.133C33.8104 138.133 34.5607 137.967 35.0608 138.299C34.8108 138.465 34.8107 138.631 34.5606 138.797C34.0605 138.963 33.3104 138.963 32.8102 139.46C32.06 140.788 29.5592 140.29 28.3088 141.285C27.5586 141.617 26.5583 141.617 26.3082 142.115C25.3079 142.612 23.8075 142.281 23.0573 143.11L22.8072 143.276C22.5572 143.442 22.5571 143.608 22.3071 143.774C21.3068 143.774 20.5565 144.105 20.5565 144.935C20.3064 145.101 20.0563 145.101 20.0563 145.267C19.3061 144.271 18.5559 145.101 18.0558 145.267C16.8054 145.764 15.805 146.428 14.5547 146.926C14.3046 146.926 14.0546 146.76 14.0546 146.76C13.5545 146.428 12.8041 146.76 12.0539 146.76C11.8038 146.76 11.3038 146.76 11.0537 146.76C10.8036 146.428 10.3035 146.262 9.80332 146.428C9.55324 146.428 9.55315 146.76 9.55315 146.76C9.80323 147.257 10.5535 147.092 11.3037 147.092C11.8039 147.921 12.5541 148.751 13.8045 149.248C14.0545 149.58 14.3046 149.912 14.3046 150.244C14.3046 151.239 14.8048 151.571 16.3052 151.073C16.8054 150.907 17.5556 150.907 18.0558 150.575C18.5559 150.409 19.3062 150.409 19.8063 149.912C21.0567 149.912 21.8069 149.414 23.0573 149.414C23.0573 149.248 23.3073 149.248 23.3073 149.082H23.5574C25.0579 149.082 24.5577 149.746 24.3076 150.244L23.5574 150.078L23.3073 149.912C22.8071 150.907 20.5566 150.409 20.3065 151.571C20.5566 151.902 21.8069 151.571 21.3067 152.234C21.0566 152.566 20.3065 152.732 19.8063 152.898H19.5562C19.3061 152.732 18.806 152.566 18.5559 152.566C18.5559 152.4 18.3058 152.4 18.0558 152.4C17.8057 152.4 17.3055 152.4 17.0554 152.566C17.0554 153.064 18.0557 153.561 17.5556 154.059C17.5556 154.889 18.8059 155.22 19.5562 155.718C19.8062 156.713 19.5563 157.709 21.5569 158.041C21.8069 158.041 21.8068 158.206 22.0569 158.206C22.8071 158.538 24.0576 158.206 23.5574 159.202C23.3074 159.534 24.3077 159.534 24.8078 159.534C25.308 159.865 25.8081 159.865 26.3082 159.7C27.0584 159.534 27.0585 159.865 26.8084 160.197C26.3082 160.695 25.558 160.861 24.5577 160.861C24.3076 160.695 23.8075 160.363 23.8075 160.695C23.3073 161.358 23.8075 161.69 24.8078 161.856C24.8078 162.022 24.8078 162.022 25.0578 162.188C25.3079 162.686 25.3079 163.183 25.558 163.681C25.0579 164.51 26.0582 164.51 26.8084 164.842C26.8084 165.174 26.8084 165.506 27.5586 165.506C29.059 166.003 29.8092 165.506 30.8095 164.842C32.0599 165.672 33.3103 164.842 34.5606 164.676C35.0608 164.842 35.561 164.842 36.0612 164.51H35.811C35.811 164.51 35.8111 164.51 36.0612 164.676C37.3116 164.013 38.812 164.013 40.3125 163.681C40.8126 163.681 41.3128 163.515 41.5629 163.515C42.063 163.515 42.8131 163.349 43.3133 163.349C44.0635 163.681 44.8138 164.013 45.564 164.345C46.5643 164.51 47.5646 164.676 48.5649 164.842C48.815 164.842 49.3151 164.842 49.5651 164.842C49.8152 164.842 50.3154 165.008 50.5655 165.008C51.5658 165.174 52.316 165.34 53.3163 165.506C53.8164 165.838 54.5668 165.672 55.317 165.838C55.8171 166.003 56.3172 166.003 56.8174 165.672C57.0675 165.672 57.3176 165.672 57.8177 165.672C59.3182 166.169 60.5685 166.169 62.5691 165.672C61.3187 165.174 60.0683 165.174 58.818 165.008C57.5676 164.676 56.8174 164.013 55.317 163.847C54.5668 163.681 53.3164 163.017 54.8168 162.354C55.567 162.686 56.0672 162.354 56.8174 162.354C58.3178 162.686 59.8183 162.354 61.0687 161.856C61.5688 162.022 62.0689 162.022 62.5691 162.022C63.0692 162.188 63.5695 162.354 64.0696 162.354C64.8198 162.852 65.32 163.349 66.0702 164.013C66.3203 164.842 67.5705 165.174 68.3208 165.672C68.8209 166.335 69.8213 166.667 70.5715 166.999C71.0717 167.331 71.8219 167.497 72.5721 167.662C73.0722 167.828 73.5725 167.994 74.0726 167.994C76.5734 169.155 79.3241 169.487 82.0749 170.151C82.575 170.483 83.0753 170.317 83.5754 170.483C84.5757 170.814 85.826 170.98 87.0764 171.146C87.8266 171.478 88.5768 171.312 89.5771 171.146C90.5774 171.312 91.3278 171.644 92.3281 171.81C94.8288 172.142 97.3296 172.307 99.8303 172.639C100.08 172.639 100.58 172.805 100.831 172.805C101.581 173.137 102.581 173.137 103.331 173.137C104.582 173.635 106.082 173.303 107.333 173.469C107.833 173.8 108.333 173.635 108.833 173.635C109.833 174.132 110.834 174.132 111.834 173.966C112.584 174.298 113.334 173.966 114.335 173.966C114.835 174.298 115.335 174.464 116.085 174.464C118.086 174.63 120.086 174.962 122.087 175.128L127.088 175.791C127.088 176.621 125.838 176.621 125.088 176.952C123.087 177.118 120.837 177.616 119.086 178.28H119.336C119.336 178.28 119.336 178.28 119.336 178.114C117.586 178.28 115.835 178.611 114.335 179.441C112.334 179.607 110.583 180.27 108.833 181.1C107.833 181.1 107.082 181.598 106.332 182.095C105.332 182.593 105.582 183.588 107.082 183.754C110.083 183.422 112.334 181.929 115.335 182.095L115.835 182.593C115.335 183.422 114.835 184.086 114.085 184.915C113.084 185.413 111.584 185.579 110.584 186.408C108.083 186.906 105.332 187.404 103.331 188.565C102.331 188.897 101.081 189.063 100.33 189.726C97.5797 190.39 94.5787 190.722 92.3281 192.049C91.0777 192.215 89.8273 192.381 88.5769 192.547C87.0765 192.712 85.826 193.21 84.5756 193.874C83.5753 194.205 81.0746 193.708 82.5751 195.367C82.325 195.533 82.325 195.864 82.0749 196.03C81.3247 196.362 80.3245 196.03 79.8243 196.528C79.8243 196.694 79.5741 196.86 79.5741 196.86C79.3241 198.353 80.8246 198.187 82.3251 198.021C81.8249 198.519 81.5748 199.016 81.0747 199.514C78.824 199.68 76.5733 199.846 74.8228 201.007C77.0735 200.841 77.8237 201.671 78.5739 202.666C79.0741 202.998 78.3239 203.827 79.8243 203.496C80.0744 203.827 80.0743 204.325 79.5741 204.657C79.3241 204.823 79.074 204.989 78.824 205.154C75.573 205.32 77.3235 206.813 77.0734 207.809C77.0734 207.975 76.8234 207.975 76.8234 208.141C75.8231 208.472 75.3229 208.97 75.823 209.634C76.5732 211.293 78.824 210.629 80.5745 210.961C80.3244 211.127 80.0744 211.458 79.8243 211.624C78.0738 211.79 77.8237 212.288 78.5739 213.117C79.5742 214.113 80.5744 214.113 82.0749 213.781C84.0755 213.781 84.0756 214.445 83.5754 215.44C83.3254 215.938 82.325 216.269 81.8249 216.601C81.5748 216.601 81.5748 216.601 81.3247 216.601C81.0746 216.435 81.3247 215.938 80.5745 216.103C80.0744 216.269 80.0744 216.601 80.3245 216.767C79.8243 217.597 79.3241 218.094 77.5736 217.597C76.5733 217.265 75.0729 217.265 74.0726 217.265C73.5725 216.933 73.3224 217.099 72.8222 217.099C71.5719 217.265 70.5715 217.762 69.3211 217.265C69.0711 216.767 69.3211 216.103 68.3208 215.938C68.0707 215.938 67.5706 216.103 67.5706 216.103C67.5706 216.435 67.8206 216.933 68.3208 217.099C68.3208 217.265 68.0708 217.597 68.0708 217.762C66.3202 217.928 64.3196 218.094 62.5691 218.426C62.0689 218.094 61.0686 218.758 60.8185 218.094C61.8188 217.099 60.3184 217.431 59.5681 217.099C59.068 216.933 58.5679 216.601 58.5679 217.099C58.818 217.928 57.3175 218.094 57.0674 218.758C56.0671 218.758 54.8168 218.426 54.8168 219.587C54.3167 219.753 53.3163 219.09 53.0663 220.251C52.5661 221.744 52.316 223.901 48.3148 223.901C48.0647 223.901 48.0648 224.232 47.8147 224.398C47.0645 224.564 46.5643 225.062 46.8144 225.559C44.8138 225.891 44.5637 227.55 42.5631 227.716C41.5628 227.218 40.0624 228.048 39.0621 227.55C38.3119 226.887 37.0615 227.052 36.0612 226.887C34.0606 227.052 33.8104 227.052 34.5606 228.048C34.8107 228.214 35.0609 228.214 35.311 228.38C36.0612 229.209 39.0621 230.039 35.561 231.034C35.561 231.2 35.811 231.2 35.811 231.366C35.811 231.532 36.0612 231.532 36.0612 231.697C36.3113 232.693 35.8111 233.025 34.3106 232.527C34.0606 232.527 33.8104 232.693 33.3103 232.693C32.0599 232.527 30.8096 232.195 29.3091 232.195C28.3088 232.195 27.0584 232.527 26.3082 231.863C25.558 231.532 25.0579 231.698 24.3076 231.863C24.0576 231.863 23.8075 231.863 23.8075 231.863C22.5571 232.859 24.5577 233.191 25.0578 233.854C25.0578 234.02 24.8078 234.352 24.8078 234.518C24.3077 234.85 24.3077 235.181 24.0576 235.513C23.5575 235.845 23.0573 235.845 22.8072 236.343C22.3071 236.84 22.5571 237.006 23.3073 237.006C23.5574 237.006 23.5574 237.172 23.8075 237.172C23.8075 237.504 23.8075 238.001 23.8075 238.333C23.3073 238.499 22.8072 238.665 23.0573 238.997C23.3073 239.66 20.3064 240.49 23.3073 240.988C23.3073 240.988 23.3074 241.153 23.5574 241.153C23.3074 242.481 21.5568 243.476 21.8069 244.803C21.5568 245.467 22.057 245.799 23.0573 245.964C24.0576 246.296 25.308 246.462 26.0582 247.126C26.5583 247.623 27.0585 247.955 27.3086 248.453C27.3086 248.95 27.8086 249.614 27.0584 249.78C25.0578 250.278 26.5583 250.609 27.0584 250.941C27.3085 252.102 27.8087 253.098 29.3091 253.761C30.3094 254.259 31.0596 254.757 32.0599 255.254C32.5601 255.752 33.3103 255.918 33.8105 256.25C35.0608 257.079 35.5611 258.572 37.8117 258.904C38.3119 259.236 38.562 259.402 39.0621 259.734C39.8123 261.061 41.5628 261.724 43.0633 262.554C43.8135 263.051 44.5638 263.383 45.314 263.881C45.5641 264.047 46.0641 264.047 46.3142 264.047C46.5643 264.213 46.5643 264.213 46.8144 264.379C46.8144 264.047 46.8144 263.881 46.8144 263.549C46.8144 263.881 46.8144 264.047 46.8144 264.379C47.3145 264.545 48.0648 264.71 48.5649 265.042C49.3152 265.208 49.8153 265.374 50.5655 265.54C51.5658 265.706 52.5661 265.872 53.5664 266.038C53.8165 266.203 54.3166 266.369 54.5666 266.535C54.8167 266.867 55.0669 267.033 55.567 267.033C56.0672 267.199 56.5673 267.531 57.3176 267.697C57.8177 268.028 58.3179 268.36 59.0681 268.36C59.5683 268.692 60.3184 268.36 60.8185 268.194C62.319 267.862 63.8195 267.862 65.0698 268.526C64.8197 269.19 65.0699 269.521 66.0702 269.853C66.0702 270.185 65.57 270.683 66.3202 271.014C66.8204 271.346 67.8206 271.512 68.3208 271.678C69.3211 272.01 70.3214 272.176 71.3217 272.01C72.5721 271.844 73.8224 271.512 75.0728 271.678C75.573 271.844 76.0732 271.844 76.5734 272.01C77.0735 272.176 77.8236 272.176 78.3238 272.342C79.3241 272.839 80.3245 273.171 81.5749 273.171C81.5749 273.337 81.8249 273.669 82.3251 273.669C83.3254 274.498 84.8258 274.996 86.3262 275.328C86.5763 275.494 87.0765 275.494 87.3266 275.659C87.5766 275.825 87.5767 275.825 87.8267 275.991C88.0768 276.323 88.3268 276.489 88.827 276.489C89.5772 276.655 90.3275 276.821 91.0777 276.987C91.3278 277.152 91.3278 277.152 91.5779 277.318C92.8282 277.816 93.8284 278.811 95.829 278.314C96.0791 278.314 96.0791 278.314 96.3292 278.314C96.5793 278.48 97.0795 278.48 97.3296 278.646C98.5799 278.977 99.08 280.139 100.831 279.973C102.581 280.139 103.581 281.3 105.582 281.3C107.082 281.466 108.833 281.798 110.333 281.798C111.334 282.129 112.334 282.129 113.584 281.963C114.085 281.963 114.585 282.129 115.085 282.129C115.335 282.295 115.835 282.295 116.085 282.295C118.086 282.627 120.086 282.793 122.087 283.125C122.837 283.291 123.837 283.456 124.588 283.622C125.088 283.954 125.838 284.12 126.088 284.618C125.588 285.945 123.837 285.613 122.587 286.111C120.086 286.443 117.586 286.774 115.085 286.94C110.333 287.272 105.582 287.438 100.831 288.101C100.58 288.101 100.581 288.101 100.33 288.101C98.3299 287.936 96.3292 288.433 94.3286 288.931C93.5784 289.097 92.5781 288.931 92.3281 289.595C92.3281 290.092 93.0783 290.258 93.5784 290.59C94.0786 291.088 94.5788 291.253 95.329 291.419C99.5803 292.249 104.082 292.083 108.583 291.585C109.083 291.585 109.333 291.585 109.833 291.585C111.334 291.751 112.584 291.917 113.834 291.253C115.585 291.419 117.336 291.088 119.086 290.922C120.086 290.922 121.337 290.922 122.337 290.59C122.837 290.59 123.337 290.59 123.587 290.59C127.589 290.424 131.34 289.76 135.091 289.097C136.091 289.097 136.591 288.599 137.592 288.433C140.342 287.936 143.343 287.936 145.844 286.774C146.344 286.774 146.844 286.94 147.345 286.608C148.345 286.277 149.595 286.443 150.596 285.945C151.096 285.945 151.596 285.779 151.846 285.779C152.596 285.779 153.596 285.945 154.347 285.447C154.847 285.281 155.347 285.281 155.597 284.949C156.597 284.784 157.848 285.115 158.848 284.784C159.348 284.784 160.098 284.784 160.348 284.286C160.849 284.12 161.099 283.954 161.599 283.788C161.849 283.788 162.349 283.954 162.599 283.788C164.85 283.788 166.6 282.295 169.101 282.295C169.351 282.295 169.351 282.295 169.601 282.295C170.601 282.793 171.352 282.461 172.102 282.129C173.102 281.797 174.353 281.466 175.603 281.466C176.603 281.466 176.103 279.973 177.854 280.47C178.354 280.47 179.104 280.636 179.604 280.636C181.855 280.802 183.605 279.475 185.856 279.475C187.106 279.309 188.607 279.309 189.607 278.811C190.607 278.48 192.608 278.646 192.608 277.318C193.358 276.987 194.359 276.821 195.359 276.987C195.359 277.318 194.359 278.148 196.109 277.816C197.109 277.65 198.11 277.65 198.86 277.152C199.36 277.484 199.86 277.152 200.36 276.987C202.111 277.152 203.611 276.987 204.612 276.157C204.862 276.157 205.112 275.991 205.612 275.991C206.112 275.991 206.612 275.825 207.112 275.825H207.363H207.613C208.613 275.991 209.613 276.655 210.864 276.157C212.114 275.991 213.114 276.489 214.365 276.157C215.615 276.323 216.615 276.655 217.866 276.323C227.869 276.157 237.622 274.498 247.375 273.669C248.625 274.001 249.875 273.503 251.126 273.503C257.378 272.507 263.879 272.673 270.131 271.844C273.382 271.678 276.883 271.678 280.134 271.014C281.885 271.346 283.135 270.517 284.636 270.517C287.637 270.517 290.638 270.019 293.638 269.687C294.389 269.853 294.889 269.853 295.639 269.687C300.39 269.355 305.142 269.024 309.893 268.692C310.143 268.692 310.393 268.858 310.643 268.858C317.145 268.194 323.647 267.862 330.399 267.531C336.151 267.199 341.903 266.867 347.405 266.535C350.906 266.369 354.657 266.369 358.158 265.872C359.658 266.038 361.159 265.706 362.409 265.374C366.66 265.042 370.912 265.042 374.913 264.379C376.913 264.545 378.914 264.545 381.165 264.213C382.665 264.379 384.166 264.047 385.666 263.881C387.667 263.715 389.417 263.715 391.418 263.549C391.918 263.549 392.418 263.549 392.668 263.549C395.919 263.383 398.92 263.217 402.171 262.886C402.421 262.886 402.671 262.72 403.171 262.72C403.671 262.886 404.422 262.886 404.922 262.886C405.922 263.217 406.922 262.886 407.923 262.72H408.173H408.423C410.673 262.886 412.924 262.72 415.175 262.554C415.675 262.886 416.425 262.72 417.175 262.554C417.926 262.886 418.926 262.554 419.676 262.554C420.676 262.886 421.677 262.72 422.677 262.554C425.928 262.222 428.929 262.056 432.18 262.388C432.43 262.388 432.68 262.388 432.93 262.388C434.431 262.72 435.931 262.222 437.181 262.056C437.682 262.056 438.432 261.89 438.932 261.89C439.432 262.056 439.932 262.056 440.432 262.056C443.183 262.222 445.934 261.393 448.685 261.393C449.185 261.393 449.685 261.393 450.185 261.393C450.435 261.558 450.686 261.724 451.186 261.558C451.936 261.89 452.936 261.558 453.686 261.558C455.937 261.227 458.188 260.729 460.688 260.729C461.689 261.061 462.939 261.227 464.19 260.895C465.44 261.061 466.94 261.061 468.191 260.895C468.691 261.061 469.191 261.227 469.691 261.061C470.941 261.227 471.942 261.227 473.192 261.061C473.942 261.227 474.443 261.227 475.193 261.061C475.943 261.061 476.693 261.061 477.694 261.061C477.944 261.061 477.944 261.061 478.194 261.061C479.944 260.895 481.945 260.729 483.695 260.563C486.196 261.558 488.947 260.895 491.448 260.729C492.448 261.061 493.198 260.729 494.199 260.563C495.449 260.397 496.449 259.734 497.7 260.065C497.95 260.231 498.45 260.231 498.7 260.231C499.95 260.563 501.201 260.065 502.701 260.065H502.951H503.201C505.202 260.397 507.202 259.734 509.203 259.568C509.703 259.568 510.203 259.568 510.703 259.734C511.204 260.065 511.954 259.899 512.704 259.899C515.705 260.065 518.456 260.231 521.457 259.402C522.957 259.07 524.208 258.738 525.708 258.904C529.209 259.734 532.46 259.07 535.711 258.241C537.962 257.577 540.212 257.411 542.213 258.572C542.463 258.572 542.463 258.738 542.713 258.738C542.713 258.904 542.713 258.904 542.713 259.07C543.213 259.07 543.963 258.904 544.464 258.904C545.464 258.738 546.714 258.406 547.715 258.572C550.465 258.904 553.216 258.572 555.967 258.075C556.967 257.909 558.218 257.743 559.218 257.577C560.218 257.909 561.219 257.743 561.969 257.577C562.219 257.245 563.219 257.577 562.719 256.913C562.219 256.913 561.469 257.079 560.969 257.079C560.468 256.913 559.968 256.913 559.468 256.913C558.968 256.913 557.968 257.079 557.718 256.747C557.467 256.25 558.218 255.918 558.718 255.586C558.968 255.42 559.468 255.089 559.968 255.089C561.719 255.089 562.719 254.591 562.969 253.43C564.72 252.766 566.47 252.6 568.471 252.932C569.971 253.264 570.721 252.932 570.971 252.102C571.722 252.102 572.222 252.102 572.972 252.102C573.472 252.268 573.722 252.434 574.723 252.268C575.973 251.937 576.973 251.107 578.474 251.439C579.224 251.771 580.224 252.268 580.474 252.102C581.725 250.775 583.725 250.609 585.726 250.775L585.976 250.609C589.227 249.946 592.978 250.609 595.729 248.785C595.979 248.951 596.229 249.116 596.479 249.282C596.979 249.78 597.48 249.614 597.98 249.116C598.73 248.95 599.73 248.619 599.23 247.955C598.73 247.457 597.48 247.292 596.729 247.955C596.479 247.955 596.229 247.955 595.979 248.121C595.479 247.789 594.979 247.457 594.729 247.126C594.228 247.126 594.229 247.292 594.229 247.457C594.229 247.789 594.229 247.955 593.728 247.955C593.228 248.121 592.728 248.121 592.228 248.453C591.978 248.619 591.978 248.619 591.978 248.453C591.978 248.453 591.728 248.453 591.728 248.287C591.478 248.287 591.478 248.287 591.228 248.287C590.727 248.287 590.227 248.121 591.228 247.623C591.728 247.457 592.728 247.623 592.978 247.126C593.478 246.96 593.728 246.794 594.229 246.628C594.479 246.462 594.479 246.462 594.729 246.296C594.979 246.296 595.229 246.296 595.729 246.13C595.479 245.135 596.979 244.803 597.73 244.305C598.23 243.974 598.48 243.808 598.48 243.476C598.48 243.31 598.73 243.144 598.73 243.144C598.98 243.144 599.23 243.144 599.48 242.978C599.73 242.978 599.73 243.144 599.98 243.144C600.981 243.31 601.981 243.31 602.731 242.978C603.481 242.647 603.981 242.812 604.732 242.978C605.482 241.983 606.982 241.817 608.233 241.153H608.483H608.733C609.733 241.153 610.233 240.49 610.733 239.992C611.484 239.495 613.234 239.329 612.234 238.333C614.234 237.504 615.235 235.845 617.486 235.347C618.236 235.181 618.236 234.684 618.486 234.186C619.236 234.02 619.736 233.356 619.986 233.025C621.737 232.527 620.737 231.863 620.486 231.2C620.486 231.034 620.736 231.034 620.736 230.868C621.487 230.039 620.987 229.043 622.487 228.546C622.737 228.38 622.737 228.214 622.737 227.882C624.738 228.38 624.237 227.384 624.488 226.721C625.988 226.555 626.238 225.725 627.238 225.228C627.488 225.228 627.739 225.062 627.989 225.062C628.739 224.398 628.989 223.569 630.489 223.569C630.99 223.237 631.74 222.905 631.24 222.407C631.74 222.242 632.24 222.076 632.99 222.076H633.24C633.49 222.242 633.74 222.242 633.99 222.242C634.24 222.076 634.241 221.91 634.491 221.578C635.991 221.246 634.741 220.417 635.241 219.919C635.491 219.587 634.741 219.09 635.491 218.758C636.741 218.758 637.742 218.758 637.241 220.085C638.242 219.09 639.242 218.26 640.992 218.094C641.743 217.928 642.993 218.426 643.743 217.762C642.743 217.431 641.743 217.762 640.992 217.928C639.742 217.928 637.742 218.426 638.242 216.767C638.492 216.767 638.992 216.933 639.242 216.601C641.243 215.772 642.993 214.942 644.994 214.113C645.244 214.113 645.494 213.947 645.744 213.947C647.244 214.113 648.245 213.449 649.495 212.951C648.495 212.951 647.745 212.951 646.994 212.951C645.994 212.951 646.244 212.62 646.494 212.288C647.244 212.122 648.245 212.122 648.745 211.624C648.995 211.293 649.245 210.961 649.495 210.629C649.995 209.8 649.495 208.638 651.496 207.975C648.495 208.306 648.495 208.306 647.244 208.141C647.244 207.975 647.495 207.809 647.495 207.643C647.745 207.643 647.995 207.477 648.495 207.477C649.245 207.311 649.995 207.145 650.745 206.813C652.246 206.316 651.996 204.989 653.496 204.325C654.497 204.159 655.497 204.325 656.247 203.661C656.747 203.661 657.247 203.827 657.748 203.827C660.498 202.998 663.499 202.998 666 201.671C665.5 201.505 665.25 201.339 664.75 201.007C660.999 199.348 659.998 199.68 659.498 199.68Z" fill="#FFDD00"/>
</svg>
