<svg width="295" height="200" viewBox="0 0 295 200" fill="none" xmlns="http://www.w3.org/2000/svg">
<path d="M292.12 136.767C292.009 136.767 292.009 136.653 291.898 136.653C292.12 136.426 292.452 136.199 292.009 135.858C291.788 135.744 292.009 135.631 292.12 135.517C292.231 135.631 292.452 135.631 292.563 135.517C292.674 135.404 292.674 135.29 292.563 135.29C292.009 135.176 291.345 135.063 290.791 134.949C290.68 134.949 290.569 134.949 290.569 135.063C290.569 135.063 290.569 135.063 290.569 135.176C290.348 135.176 290.126 134.835 289.794 135.063H289.683C289.683 135.063 289.683 135.063 289.572 135.063C289.462 135.063 289.351 135.063 289.351 135.063C289.129 135.063 288.908 134.949 288.797 134.949C288.575 134.722 288.354 134.835 288.132 134.949C287.689 135.517 287.135 135.176 286.692 135.176C286.582 135.176 286.36 135.063 286.249 135.063C285.363 135.176 284.366 135.404 283.48 135.176C283.48 135.063 283.48 135.063 283.48 134.949C283.702 134.722 283.591 134.495 283.48 134.381C283.369 134.381 283.259 134.267 283.148 134.267C283.369 134.04 283.591 133.926 283.812 133.813C284.034 133.699 284.255 133.699 284.477 133.699H284.588C284.588 133.699 284.588 133.813 284.588 134.04C285.031 134.835 285.695 134.722 286.471 134.381C286.692 134.154 286.914 133.926 287.135 133.586C287.246 133.813 287.468 133.699 287.689 133.699C287.689 133.699 287.689 133.699 287.8 133.586C287.911 133.699 288.022 133.813 288.132 133.813C288.132 134.04 288.243 134.267 288.465 134.381C288.797 134.381 289.129 134.267 289.462 134.267C289.905 134.267 290.348 134.381 290.791 134.381C290.902 134.381 291.012 134.495 291.012 134.495C291.345 134.267 291.898 134.495 292.231 134.04C292.231 133.926 292.231 133.926 292.231 133.813C292.231 133.699 292.12 133.699 292.12 133.586C292.009 133.472 291.788 133.358 291.677 133.245C291.677 133.131 291.677 133.017 291.788 133.017C291.788 132.904 291.899 132.79 291.788 132.677C291.234 131.881 290.459 132.108 289.794 132.222C289.351 132.336 288.908 132.336 288.575 132.449C288.022 131.995 287.578 132.222 287.246 132.677C287.135 132.677 287.135 132.677 287.135 132.79C286.914 132.79 286.692 133.131 286.471 133.017C285.363 131.995 284.034 132.677 282.705 132.563C282.483 132.563 282.372 131.995 282.04 132.449C281.265 132.79 280.489 132.449 279.714 132.677C279.603 132.677 279.492 132.563 279.492 132.563C278.274 132.563 277.055 132.449 275.837 132.563C275.283 132.677 274.619 132.336 274.065 132.904H274.175H274.065C273.4 133.017 272.846 132.336 272.182 132.677C272.071 132.677 272.071 132.677 271.96 132.677C271.628 132.449 271.185 132.677 270.852 132.677C270.742 132.677 270.742 132.677 270.631 132.677C270.299 132.677 270.077 132.336 269.745 132.449C269.412 132.563 268.969 132.449 268.748 132.79C267.862 132.677 267.086 132.677 266.2 132.79C265.646 132.563 265.092 132.79 264.428 132.79C263.763 132.677 264.317 133.245 264.317 133.358C264.206 133.472 264.206 133.472 264.095 133.586C263.985 133.586 263.874 133.586 263.763 133.699C263.542 133.586 263.209 133.472 263.099 133.472C261.991 133.926 260.994 133.699 260.219 132.904C259.776 133.131 259.332 132.677 258.889 133.017C258.336 133.245 258.003 132.677 257.56 132.677C257.449 132.677 257.228 132.677 257.117 132.677C256.452 133.131 256.231 131.995 255.566 132.336C255.012 132.449 254.459 132.222 253.905 132.449C253.794 132.336 253.572 132.336 253.462 132.336C253.351 132.336 253.351 132.336 253.24 132.336C253.019 132.222 252.797 132.222 252.576 132.336H252.465C252.243 132.222 252.132 132.336 251.911 132.449C251.579 132.449 251.357 132.563 251.025 132.563C251.025 132.222 249.917 131.881 250.803 131.427C250.914 131.427 250.914 131.54 251.025 131.54C251.357 131.654 251.689 131.768 252.022 131.54C252.243 131.427 252.354 131.313 252.576 131.199C252.797 131.086 253.24 131.427 253.24 131.086C253.24 130.745 253.351 130.29 252.797 130.063C252.465 129.95 252.243 129.95 252.132 130.29C252.132 130.404 252.132 130.404 252.132 130.518C252.132 130.518 252.132 130.518 252.022 130.518C252.022 130.518 252.022 130.404 251.911 130.404C251.8 130.404 251.579 130.29 251.468 130.404C251.135 130.404 250.803 130.518 250.582 130.745C250.582 130.745 250.582 130.745 250.471 130.859V130.745C250.36 130.518 250.249 130.29 250.028 130.063C249.696 129.836 249.474 129.722 249.142 129.836H249.031C248.809 129.722 248.699 129.609 248.477 129.722C248.477 129.609 248.477 129.495 248.366 129.268C248.366 129.154 248.366 129.154 248.366 129.041C248.477 129.041 248.477 128.927 248.588 128.927C248.92 129.041 249.142 129.268 249.474 129.268C249.585 129.381 249.585 129.381 249.696 129.381H249.806C249.917 129.268 249.917 129.268 249.917 129.154C250.028 129.154 250.249 129.041 250.36 129.041C250.36 128.927 250.471 128.927 250.471 128.813C250.249 128.586 250.028 128.586 249.806 128.7C249.806 128.472 249.695 128.245 250.139 128.359C250.471 128.359 250.692 128.359 250.914 128.132C250.914 128.472 250.692 128.813 251.025 129.041H251.136C251.689 129.041 252.243 128.927 252.797 128.7C252.797 128.586 252.797 128.586 252.797 128.472C252.686 128.018 252.132 128.018 252.132 127.563C252.132 127.563 252.132 127.45 252.132 127.336C252.576 126.768 251.689 126.882 251.689 126.541L251.8 126.086C252.132 125.632 252.022 125.064 252.132 124.495C251.689 123.927 252.354 123.473 252.354 123.018C252.686 122.905 253.129 123.132 253.351 122.791C253.462 122.791 253.462 122.905 253.572 122.905C253.572 123.018 253.572 123.132 253.572 123.246C253.683 123.132 253.794 123.132 254.015 123.018C254.015 122.905 254.015 122.791 254.015 122.791L254.126 122.677C254.126 122.564 254.126 122.45 254.015 122.337C254.126 122.337 254.237 122.337 254.348 122.223V122.337C254.459 122.223 254.902 122.109 254.791 121.882C254.68 121.655 254.459 121.996 254.237 121.996L254.015 121.882C253.794 121.882 253.572 121.996 253.351 121.996C253.129 121.996 253.129 122.109 253.129 122.223C252.908 122.223 252.797 122.223 252.686 122.337C252.465 122.223 252.243 122.109 251.911 122.109C251.689 122.223 251.579 122.337 251.579 122.564C251.357 122.564 251.246 122.677 251.025 122.791C250.914 122.677 250.803 122.45 250.803 122.223C250.914 121.996 251.135 121.655 251.246 121.428C251.246 121.428 251.246 121.428 251.246 121.541C251.468 121.541 251.579 121.428 251.8 121.314C251.911 121.2 251.911 121.2 252.022 121.2C252.022 121.2 252.132 121.2 252.132 121.314C251.579 121.768 251.579 121.882 252.022 121.996C252.132 121.882 252.243 121.768 252.243 121.541C252.243 121.541 252.243 121.541 252.354 121.541C252.465 121.541 252.576 121.541 252.686 121.428C252.797 121.655 252.908 121.768 253.24 121.655C253.129 121.2 253.24 120.973 253.794 120.973C253.794 120.859 253.905 120.746 253.905 120.746C254.016 120.632 254.016 120.405 254.126 120.291C254.237 120.178 254.348 119.837 254.126 119.837C253.794 119.723 253.794 120.178 253.572 120.291C253.462 120.405 253.462 120.405 253.351 120.519C253.129 120.519 252.908 120.519 252.797 120.632C252.465 120.405 252.132 120.632 251.911 120.632C251.357 120.746 250.914 120.632 250.803 120.064C250.914 119.95 250.914 119.95 251.025 119.837C251.8 119.61 252.686 119.723 253.462 119.155C254.126 119.041 254.459 118.246 255.234 118.246C256.12 118.246 257.006 118.246 257.449 117.337C257.782 117.223 258.114 117.337 258.225 116.996C258.446 116.542 258.446 116.201 257.892 116.201C257.892 115.633 258.225 115.974 258.446 115.974C258.779 116.542 259.443 116.087 259.997 116.314C260.219 116.428 260.662 116.314 260.883 115.974C261.105 115.633 260.772 115.405 260.551 115.178C260.108 114.951 259.886 115.405 259.554 115.633C259.222 115.633 259 115.405 259 115.065C259.332 114.837 259.443 114.496 259.111 114.269C259.111 113.928 258.446 113.701 258.668 113.247C258.779 113.133 258.779 113.133 258.889 113.019L259.332 112.565C259.443 112.565 259.443 112.565 259.554 112.451C259.775 112.338 259.997 111.883 260.219 112.565C260.219 113.247 260.551 113.019 260.883 112.678C261.105 112.451 261.105 112.11 261.437 111.883C262.323 111.429 261.105 111.428 261.215 111.088C261.326 110.86 260.662 110.86 260.551 111.088C260.329 111.769 259.554 111.883 259.111 112.224C259 112.338 258.779 112.565 258.668 112.678C258.225 112.338 257.782 111.769 257.117 111.997C256.896 111.997 256.785 111.997 256.674 112.224C256.009 112.224 256.231 111.656 256.12 111.315C256.674 110.86 257.339 110.519 256.563 109.724C256.342 109.497 256.342 108.929 256.674 108.588C256.785 108.474 256.896 108.588 256.896 108.815C256.674 108.929 256.452 109.156 256.563 109.497C256.674 109.724 257.006 109.61 257.117 109.497C257.56 109.383 257.671 109.042 257.671 108.701C257.782 108.701 257.892 108.588 258.003 108.588C258.114 108.815 258.114 109.156 258.225 109.497C258.779 108.929 259.332 108.474 259.554 107.792C259.997 107.338 258.889 106.883 259.554 106.315C259.886 106.429 260.219 107.111 260.44 106.543C260.662 106.202 260.883 105.293 259.886 105.179C259.997 104.952 259.997 104.611 260.329 104.27C259.332 104.611 259.554 103.929 259.554 103.361C259 103.816 258.446 104.156 258.003 104.611C258.003 104.952 258.225 104.838 258.446 104.838C258.446 104.952 258.446 105.065 258.557 105.179C258.446 105.293 258.335 105.406 258.114 105.52C257.892 105.634 257.782 105.747 257.56 105.861C257.56 105.634 257.56 105.293 257.671 105.065C257.449 105.179 257.339 105.406 257.117 105.293V105.406V105.293C257.117 105.065 257.006 104.838 257.006 104.611C257.449 104.27 257.339 103.929 257.228 103.475C257.228 103.134 257.117 102.907 257.117 102.566L257.006 101.998C257.449 101.657 257.892 102.566 258.336 101.884C258.446 101.998 258.557 102.111 258.668 102.338C258.889 102.679 259.222 103.02 259.554 102.566C259.775 102.225 259.222 101.998 259 101.77C259 101.089 259.554 100.52 259.775 99.9523C259.775 99.8387 259.886 99.8386 259.886 99.725C260.108 99.6114 260.329 99.4978 260.329 99.1569C259.886 99.2705 259.332 99.1569 259 99.4977C258.557 98.816 257.782 99.3841 257.228 99.1569C257.339 98.816 257.892 98.816 257.892 98.3615C257.892 98.2479 258.003 98.2479 258.003 98.1343C258.225 98.0206 258.225 97.7934 258.003 97.6798C257.782 97.5661 257.56 97.6797 257.449 97.7934C257.339 97.7934 257.228 97.907 257.117 97.907C256.674 97.907 256.231 98.3615 255.677 98.1343C255.899 97.907 256.009 97.5661 256.009 97.2252C256.12 97.1116 256.231 96.8844 256.342 96.7707C256.563 96.5435 257.117 96.5435 257.117 95.9754C257.228 95.9754 257.449 95.9754 257.56 95.8617C257.56 95.7481 257.56 95.7481 257.56 95.6345C257.56 95.18 258.114 94.8391 258.114 94.4982C258.225 93.7028 257.228 94.7255 257.117 94.0437C257.117 93.9301 257.117 93.9301 257.006 93.8164C257.117 93.7028 257.228 93.5892 257.339 93.5892C258.114 93.1347 258.779 92.5666 259.111 91.7712C258.889 90.2941 258.225 91.5439 257.782 91.6576C257.228 91.6576 256.674 91.7712 256.563 92.4529C256.452 92.4529 256.452 92.453 256.342 92.5666C256.342 92.6802 256.342 92.6802 256.342 92.7938C255.899 93.0211 255.455 93.362 255.123 93.5892C255.012 93.5892 255.012 93.5892 254.902 93.5892C254.791 93.5892 254.569 93.7029 254.459 93.7029L254.348 93.8164C254.126 93.9301 253.905 94.0437 253.683 94.1573C253.24 94.0437 253.351 93.5892 253.24 93.2483C253.019 93.2483 252.797 93.2483 252.686 93.5892C252.576 93.7028 252.465 93.8165 252.354 93.9301C252.132 93.7028 251.911 93.9301 251.689 94.0437C251.136 94.0437 250.692 94.6118 250.028 94.4982C249.917 94.1573 249.917 93.9301 250.36 93.8164C250.582 94.0437 250.692 93.8165 250.803 93.7029C251.136 93.5892 251.136 93.2483 251.136 93.0211C251.468 93.0211 251.8 92.9074 252.022 92.6802C252.022 92.6802 252.022 92.6802 252.022 92.7938C252.686 93.5892 253.019 92.7938 253.351 92.4529C253.572 92.2257 253.794 91.9985 254.126 91.8848C254.459 91.3167 255.012 91.0894 255.566 90.7486C255.677 90.2941 255.345 90.0668 255.012 89.9532H254.902C255.012 89.7259 255.012 89.6123 254.791 89.4987C254.68 89.6123 254.569 89.8395 254.68 89.9532C254.459 89.9532 254.237 89.8396 254.126 89.6123C254.126 89.4987 254.126 89.4987 254.126 89.385C254.237 88.8169 254.126 88.2488 254.791 87.9079C255.012 88.0215 255.234 88.1352 254.902 88.476C254.791 88.7033 254.68 88.9305 255.123 88.9305C255.234 88.8169 255.345 88.7033 255.456 88.5897C256.009 88.4761 256.563 88.3624 257.117 88.0215V87.9079C257.449 87.7943 257.671 87.7943 258.003 87.6806C258.779 87.4534 258.336 87.2261 258.003 86.9989C257.782 87.1125 257.671 87.567 257.228 87.3398C257.006 87.1125 256.785 87.4534 256.563 87.4534C256.342 87.2262 256.452 86.9989 256.452 86.7717H256.563C257.117 86.5444 257.671 86.7716 258.003 86.0899C258.003 85.6354 259.665 85.0673 258.003 84.6128C258.446 83.931 258.889 83.3629 259.775 84.0446C260.219 84.3855 260.662 84.0446 260.994 83.7037C261.326 83.4765 261.437 83.1356 261.88 83.1356C261.991 83.1356 262.212 83.2492 262.323 83.2492C262.545 83.5901 262.877 83.5901 263.209 83.4765C263.652 83.3629 263.985 83.3629 264.428 83.2492C264.539 83.2492 264.539 83.2492 264.649 83.2492C265.092 83.5901 265.425 83.4765 265.757 83.022H265.868H265.979C266.311 83.022 266.532 82.9084 266.865 82.9084C267.862 83.1356 267.972 82.6811 267.751 81.8857C267.751 81.7721 267.64 81.7721 267.64 81.6585C267.972 81.5449 268.415 81.5448 268.748 81.4312C268.748 81.5448 268.637 81.5449 268.748 81.7721C269.08 82.7947 269.745 82.3402 270.299 82.113C270.631 82.113 270.963 81.9993 271.295 81.9993C271.517 81.9993 271.849 82.113 271.739 81.6585C271.628 81.4312 271.517 81.204 271.185 81.5448C270.852 81.8857 270.631 81.5448 270.409 81.4312C270.409 80.7495 270.077 80.7495 269.523 80.9767C269.523 80.9767 269.523 80.8631 269.412 80.8631C268.415 80.9767 267.64 81.204 266.754 81.6585C266.865 81.7721 267.086 81.7721 267.197 81.8857C266.975 81.9993 266.643 81.9994 266.422 82.2266C266.311 82.2266 266.2 82.3402 266.089 82.3402C265.868 82.3402 265.646 82.2266 265.535 81.9993C265.646 81.7721 265.757 81.5448 265.646 81.3176C265.646 81.2039 265.646 81.0903 265.646 80.8631H265.535C265.535 80.8631 265.535 80.8631 265.646 80.8631C265.979 80.6358 266.422 80.4086 266.865 80.4086C267.751 80.5222 268.748 80.295 269.634 80.0677C270.52 79.6132 269.745 79.2723 269.634 78.8178C269.634 78.8178 269.634 78.8178 269.523 78.8178H269.634C270.077 78.2497 271.074 79.0451 271.406 78.0224C271.295 77.9088 271.185 77.7952 271.185 77.6816C270.852 77.6816 270.631 77.6816 270.299 77.6816C269.966 77.4543 269.745 77.6816 269.523 77.7952C269.523 77.6816 269.412 77.5679 269.412 77.4543V77.3407C269.745 77.227 270.077 77.1134 270.409 77.1134H270.631C270.742 77.1134 270.742 77.2271 270.852 77.2271C271.295 77.4543 271.739 77.2271 272.071 76.9998C271.628 76.4317 271.96 76.2044 272.514 76.2044C272.625 75.9771 272.846 75.9771 273.068 76.2044C273.511 76.7725 273.622 76.7725 274.286 76.2044C274.508 76.2044 274.729 76.0908 274.951 76.318C275.172 76.318 275.172 76.2044 275.172 76.0908C275.172 76.0908 275.172 75.9772 275.172 75.8635C275.505 75.8635 275.505 75.5227 275.726 75.2954C275.948 75.2954 276.059 75.1818 276.169 75.0681C276.391 75.1818 276.723 75.5227 276.723 74.9545C276.723 74.8409 276.723 74.7273 276.723 74.6136C277.277 74.1591 276.612 74.0455 276.612 73.8183C276.612 73.8183 276.502 73.7046 276.612 73.591C276.723 73.4774 276.723 73.3638 276.612 73.1365C276.502 73.0229 276.391 73.0229 276.169 72.9093C275.726 72.682 275.283 72.1139 274.951 73.0229C274.84 73.1365 274.729 73.1365 274.619 73.1365C274.729 73.0229 274.84 72.9093 274.951 72.682C274.951 72.5684 274.951 72.4548 274.84 72.3411C274.508 72.5684 274.175 72.7956 273.843 72.9093C273.843 73.1365 273.954 73.1365 274.065 73.2502C273.843 73.2502 273.511 73.3638 273.289 73.3638C273.4 73.2501 273.4 73.0229 273.289 72.9093C273.179 72.7956 273.179 72.7956 273.068 72.7956C273.068 72.7956 273.068 72.7956 272.957 72.7956C272.957 72.682 272.846 72.4548 272.846 72.3411C272.403 72.4548 272.514 72.7956 272.514 73.0229C272.514 73.0229 272.514 73.0229 272.403 73.0229C272.292 73.1365 272.182 73.2501 272.071 73.4774C272.071 73.4774 272.071 73.591 272.182 73.591C272.514 73.591 272.514 73.9319 272.625 74.1591C272.625 74.1591 272.625 74.2728 272.514 74.2728C272.514 74.5 272.514 74.7273 272.625 74.9545C272.514 74.9545 272.403 74.9545 272.292 75.0681C272.292 74.9545 272.292 74.8409 272.292 74.7273C272.182 74.1591 271.96 73.8183 271.295 74.2728C270.963 74.5 270.852 74.3864 270.631 74.3864C270.852 74.2728 270.852 74.0455 270.742 73.9319C270.742 73.8183 270.631 73.8183 270.631 73.7047C270.852 73.2501 270.742 72.9093 270.299 72.682H270.188C270.188 72.4548 270.077 72.1139 270.52 72.0003C270.852 71.773 271.185 71.6594 270.963 71.0912H270.852C270.852 71.0912 270.852 71.0912 270.963 71.0912C271.074 71.0912 271.295 70.9776 271.406 70.864C271.517 70.9776 271.628 70.9776 271.849 70.9776C271.849 71.0913 271.849 71.0912 271.849 71.2049C271.628 71.4321 271.739 71.6594 271.739 71.8866C271.849 72.1139 271.96 72.2275 272.071 72.4548C272.403 72.3411 272.292 71.8866 272.625 71.773C272.736 71.8866 272.846 71.8866 273.068 71.8866C273.179 71.5457 273.4 71.0912 272.735 71.0912C272.735 70.9776 272.736 70.864 272.625 70.7504C272.957 70.6367 273.068 70.2959 273.4 70.1822C273.622 70.1822 273.732 70.0686 273.954 70.0686C273.954 70.1822 274.065 70.1822 274.065 70.1822C274.286 70.2959 274.619 70.2959 274.729 70.4095C275.172 71.5458 275.615 70.864 276.059 70.4095C276.169 70.5231 276.169 70.6367 276.391 70.6367C276.391 70.6367 276.391 70.6367 276.502 70.6367C276.723 70.9776 276.945 70.7504 277.277 70.7504C277.277 70.7504 277.388 70.7504 277.388 70.864C277.499 70.864 277.609 70.864 277.609 70.864C277.942 70.7504 277.942 70.4095 278.052 70.1822C278.163 69.955 278.163 69.6141 278.163 69.2732C278.606 69.046 278.717 69.955 279.16 69.5005C279.492 69.1596 279.16 68.8187 278.828 68.5915C278.606 68.5915 278.606 68.5915 278.495 68.7051C278.385 68.4779 278.274 68.3642 278.163 68.2506C278.052 68.2506 277.831 68.137 277.72 68.137C277.831 67.4552 277.388 67.0007 277.055 66.5462C277.499 65.8644 276.502 65.7508 276.502 65.1827C276.391 65.1827 276.169 65.2963 276.059 65.2963C275.615 65.8645 275.726 66.3189 276.169 66.7735C276.28 66.8871 276.502 67.0007 276.612 67.0007C276.391 67.228 276.391 67.5688 276.612 67.7961C276.502 67.7961 276.502 67.7961 276.502 67.9097C276.391 67.9097 276.391 67.7961 276.28 67.7961C276.169 67.0007 275.837 67.9097 275.615 67.6824C275.505 67.6824 275.394 67.5688 275.394 67.5688C274.84 67.228 274.065 67.3416 273.622 66.7735C273.843 66.6598 273.954 66.5462 274.175 66.4326C274.286 66.7735 274.618 67.0007 275.062 66.7735C275.726 66.2053 274.729 65.5236 275.172 64.8418C275.172 64.8418 275.283 64.8418 275.283 64.7282C275.505 64.7282 275.726 64.8418 275.948 64.8418C275.948 64.7282 275.948 64.6145 275.837 64.3873C275.726 63.9328 275.615 63.4783 275.615 63.0238C275.837 63.0238 276.169 63.0238 276.169 62.6829C276.059 62.5693 275.837 62.4557 275.726 62.342C275.948 62.1148 275.837 61.8875 275.837 61.6603C275.837 61.3194 275.837 61.0922 275.837 60.7513C275.837 60.6377 275.837 60.6376 275.837 60.524C276.502 60.6376 277.166 60.6376 277.72 61.2058C277.72 61.7739 277.942 62.2284 278.717 61.8875C279.825 61.433 278.828 61.0922 278.717 60.6376C279.16 60.524 279.603 60.524 279.935 60.1832C280.046 60.1832 280.157 60.2968 280.268 60.2968C280.489 60.2968 280.822 60.524 280.932 60.1832C281.043 59.7286 280.6 59.9559 280.379 59.8423C279.935 59.7286 279.382 59.8423 278.939 59.9559C278.828 59.9559 278.606 59.9559 278.495 59.9559C278.163 59.7286 277.942 59.8423 277.609 59.9559C277.388 59.9559 277.166 60.0695 276.945 60.0695C276.723 60.2968 276.391 59.9559 276.169 60.1832C276.169 60.0695 276.169 60.0695 276.059 60.0695C275.062 60.1831 274.065 60.524 273.068 60.2968C272.514 60.4104 271.96 60.524 271.406 60.524C270.963 60.8649 270.52 60.8649 270.077 60.6376C269.634 60.4104 269.08 59.9559 268.526 60.524C268.415 60.6376 268.083 60.4104 267.862 60.2968C267.64 59.9559 267.419 60.0695 267.197 60.2968C267.197 60.2968 267.197 60.2968 267.086 60.2968C266.754 60.1831 266.422 60.2968 266.422 59.8423C266.865 59.9559 267.308 60.0695 267.419 59.3878V59.2741C267.529 59.1605 267.64 58.8196 267.751 58.9333C268.969 59.0469 268.415 58.3651 268.305 57.9106C268.859 57.0016 267.529 56.6607 267.751 55.979C267.862 55.8653 267.972 55.7517 268.083 55.6381C268.194 55.6381 268.415 55.7517 268.526 55.7517C268.748 55.7517 268.969 55.8653 269.191 55.8653C269.302 55.8653 269.302 55.8653 269.412 55.8653C269.966 56.0926 270.742 55.7517 270.963 56.0926C271.628 56.888 271.517 55.979 271.739 55.8653C272.182 55.2972 272.514 55.979 272.846 55.8653C273.178 55.8653 273.511 55.979 273.622 55.5245C273.843 55.07 273.732 54.7291 273.4 54.5019L273.289 54.3882C273.068 54.161 272.735 54.1609 272.514 54.0473C272.625 54.0473 272.735 54.0473 272.846 53.9337C272.957 53.9337 273.068 53.9337 273.179 53.8201C272.846 52.9111 272.292 52.6838 271.406 53.1383C271.185 53.2519 270.852 53.3656 270.631 53.4792C270.631 53.4792 270.631 53.4792 270.631 53.3656C270.299 53.0247 269.966 52.6838 269.412 52.7975L269.302 52.9111C268.969 52.9111 268.748 52.9111 268.637 53.3656C268.526 53.3656 268.526 53.3656 268.415 53.3656C268.305 53.252 268.194 53.1383 267.972 53.252C267.862 53.1383 267.862 52.9111 267.64 53.0247C267.419 53.2519 267.529 53.4792 267.64 53.7065C267.529 53.7065 267.419 53.5928 267.308 53.5928C267.086 53.5928 266.865 53.5928 266.754 53.7065C266.754 53.7065 266.754 53.7065 266.643 53.7065C266.532 53.5928 266.311 53.5928 266.311 53.4792C266.532 52.6838 266.089 52.6838 265.425 52.7975C265.203 52.7975 265.092 52.7975 264.982 52.6838C264.206 52.4566 263.542 51.8884 262.545 52.0021C262.545 51.8884 262.545 51.7748 262.434 51.6612C262.434 51.6612 262.434 51.6612 262.323 51.5476L262.434 51.4339C262.988 51.6612 263.652 51.5476 264.206 51.4339C264.649 51.4339 264.76 51.2067 264.649 50.9794C264.982 51.0931 265.314 51.0931 265.646 51.0931C266.2 51.0931 266.643 51.093 267.197 51.3203C267.751 51.4339 268.415 51.4339 268.969 51.0931C269.08 50.9794 269.08 50.9794 269.08 50.8658C269.08 50.9794 269.302 50.9794 269.302 50.9794C269.523 50.9794 269.745 51.0931 269.966 51.0931C270.299 52.0021 270.852 52.3429 271.849 52.0021C272.182 51.8884 272.625 52.0021 272.957 52.0021C273.179 51.7748 273.622 51.8884 273.511 51.4339C273.289 51.2067 273.068 51.3203 272.846 51.2067C272.957 51.2067 272.957 51.2067 273.068 51.2067C273.843 50.8658 273.843 50.5249 273.179 50.0704C272.625 50.0704 272.071 50.0704 271.517 50.184C270.963 49.9568 270.299 49.8432 269.745 49.9568C269.523 49.9568 269.302 49.8432 269.08 49.8432C268.194 49.275 267.308 49.6159 266.422 49.7295C266.2 49.6159 266.089 49.6159 265.979 49.8432C265.646 49.7295 265.203 49.7295 264.871 49.6159C263.874 49.6159 262.877 49.6159 261.88 49.5023C261.437 49.275 260.994 49.6159 260.551 49.3887C259.443 49.0478 258.446 48.9342 257.339 49.1614C257.006 49.275 256.896 48.9341 256.674 48.9341C255.899 48.7069 255.012 48.4796 254.237 48.9341C254.569 49.7295 255.677 49.3887 256.12 49.9568C256.342 50.1841 256.563 50.2977 256.896 50.4113C257.006 50.5249 257.117 50.6386 257.339 50.5249C258.225 50.5249 258.779 49.5023 259.775 49.8432C259.886 50.8658 260.994 50.5249 261.548 50.9794C261.326 51.5476 259.886 52.2293 259.554 51.8884C258.557 50.8658 257.56 51.4339 256.563 51.8884C256.342 51.2067 255.788 51.6612 255.456 51.6612C255.123 51.5476 254.68 51.5476 254.348 51.4339C254.126 51.4339 253.905 51.5476 253.683 51.5476C253.572 51.5476 253.462 51.5476 253.351 51.6612C253.351 51.7748 253.351 51.8884 253.462 52.0021C253.351 52.1157 253.351 52.3429 253.24 52.4566C253.129 52.4566 252.908 52.4566 252.797 52.4566C252.686 52.4566 252.686 52.3429 252.576 52.3429C252.576 52.2293 252.908 52.0021 252.797 51.8884C252.354 51.7748 251.911 51.6612 251.468 51.4339C251.135 51.2067 250.914 51.5476 250.582 51.4339C250.582 51.4339 250.582 51.3203 250.471 51.3203C250.139 51.2067 250.139 51.0931 250.471 50.8658C250.582 50.7522 250.582 50.7522 250.692 50.6385C250.914 50.6385 251.135 50.5249 251.246 50.5249C251.468 50.5249 251.911 50.5249 252.022 50.2977C252.132 49.9568 251.689 49.8432 251.579 49.7295C251.357 49.5023 251.136 49.3887 250.803 49.1614C250.692 49.0478 250.692 49.0478 250.582 48.9341C250.471 48.366 249.474 48.9341 249.474 48.366C249.474 46.8889 248.477 47.3434 247.702 47.457C247.037 47.3434 246.372 47.3434 245.708 47.2298C245.597 47.2298 245.486 47.2298 245.376 47.3434C244.932 47.1161 244.6 47.2298 244.268 47.5707C244.046 47.5707 243.825 47.457 243.714 47.6843C242.939 47.9115 242.163 47.3434 241.388 47.5707C239.837 47.0025 238.176 47.457 236.625 47.457C236.182 47.457 235.628 47.457 235.185 47.5707C234.742 47.3434 234.299 47.5707 233.856 47.5707C233.745 47.457 233.412 47.3434 233.412 47.2298C233.191 46.6616 232.748 46.8889 232.526 47.1162C232.194 47.3434 232.416 47.6843 232.637 47.9115C233.634 48.1388 234.631 48.366 235.628 48.8205C236.182 48.8205 236.625 48.7069 237.068 48.366C237.622 48.366 238.065 48.366 238.508 48.2524C238.951 48.4797 239.394 48.366 239.837 48.4796C240.169 48.7069 240.612 48.5933 240.945 48.4796C241.831 48.366 242.717 48.2524 243.603 48.366C243.936 48.5933 244.379 48.2524 244.711 48.5933C245.043 48.9342 245.265 48.7069 245.597 48.4796C245.708 48.4796 245.819 48.366 246.04 48.366C246.483 48.366 246.926 48.1388 247.369 48.366C247.591 48.4796 247.812 48.5933 248.034 48.5933C248.366 49.275 247.48 48.9342 247.369 49.275C247.812 49.275 248.256 49.275 248.699 49.275C249.252 49.5023 249.806 49.0478 250.249 49.3887C250.249 49.5023 250.139 49.7295 250.139 49.8432C249.806 50.0704 249.363 50.184 248.92 50.184C248.699 49.9568 248.477 50.0704 248.256 50.2977C248.145 50.2977 248.145 50.2977 248.034 50.2977C248.034 50.4113 248.034 50.5249 248.034 50.6385C248.034 50.6385 247.923 50.6385 247.923 50.7522C247.369 51.2067 246.705 51.2067 246.151 51.6612C246.151 51.7748 246.151 51.7748 246.04 51.8884C245.597 51.8884 245.154 51.8884 244.822 52.0021C244.822 52.0021 244.822 51.8884 244.711 51.8884C244.711 51.7748 244.711 51.7748 244.711 51.6612C244.046 51.2067 243.382 51.093 242.606 51.2067C242.163 51.2067 241.72 51.3203 241.388 51.6612C240.945 51.7748 240.391 51.7748 239.948 51.8884C239.616 51.7748 239.283 51.7748 238.951 51.6612C238.397 51.6612 237.732 51.6612 237.289 52.1157C237.289 52.2293 237.179 52.3429 237.179 52.5702C237.068 52.5702 237.068 52.5702 236.957 52.6838C236.292 52.7975 236.182 52.4566 236.182 52.0021C236.071 51.6612 235.96 51.5476 235.517 51.6612C235.517 51.6612 235.517 51.6612 235.517 51.5476C234.963 51.3203 234.52 51.2067 235.074 50.5249C235.185 50.4113 235.074 50.2977 235.074 50.2977C234.409 50.5249 233.745 50.0704 233.191 50.184C232.526 50.2977 231.972 50.4113 231.308 50.5249C230.976 50.5249 230.754 50.0704 230.422 50.0704C229.979 49.7295 229.646 49.8432 229.314 50.2977C229.203 50.4113 229.092 50.5249 228.982 50.5249C228.539 50.6386 228.206 50.7522 227.985 51.0931C227.209 51.3203 225.991 51.2067 226.766 52.6838C226.766 52.7975 226.656 52.9111 226.656 53.0247C226.213 53.0247 225.991 53.0247 225.659 52.5702C225.326 52.0021 224.662 51.8885 224.108 52.2293C223.997 52.2293 223.997 52.2293 223.997 52.3429C223.333 52.3429 222.668 52.7974 222.003 52.3429C221.782 52.3429 221.449 52.2293 221.228 52.2293C220.785 52.343 220.453 52.2293 220.342 51.8884C220.231 51.4339 220.452 51.0931 220.785 50.8658C221.117 50.6385 221.449 50.5249 221.892 50.5249C222.889 50.2977 223.886 49.9568 224.773 49.3887C224.994 49.3887 225.326 49.275 225.548 49.275C225.88 49.5023 226.102 49.3887 226.434 49.275C226.656 49.1614 226.545 48.9342 226.545 48.7069C227.431 48.7069 228.428 48.9342 228.76 47.6843C230.422 47.1162 231.973 46.6616 233.634 46.0935C233.745 46.0935 233.856 46.0935 234.077 46.0935C234.188 46.0935 234.299 45.9799 234.52 45.9799C234.742 45.8663 234.963 45.7526 235.074 45.639C235.96 45.5254 236.736 45.4118 237.622 45.2981C238.176 45.0709 238.508 44.3891 239.172 44.1619C239.948 43.9346 239.505 43.1392 239.948 42.7983C240.059 42.912 240.169 42.912 240.169 42.912C240.391 42.912 240.612 42.6847 240.502 42.4575C240.834 42.5711 241.166 42.5711 241.388 42.7983C241.277 42.7983 241.056 42.912 241.056 43.0256C241.277 43.0256 241.499 43.2529 241.72 42.912C242.385 42.3438 243.382 42.1166 243.936 42.003C244.932 41.8894 244.489 41.4348 244.711 41.094C245.154 40.8667 244.932 40.5258 244.932 40.185C245.154 40.0713 245.265 39.9577 245.486 39.9577C245.597 39.9577 245.819 40.0713 245.929 40.0713C245.929 40.185 246.04 40.4122 246.04 40.5258C246.151 40.9803 246.594 41.2076 246.926 41.2076C247.148 41.2076 247.48 41.094 247.48 40.8667C247.591 40.4122 247.369 40.0713 246.926 39.8441C247.259 39.6168 247.48 39.2759 247.812 39.2759C247.923 39.3896 248.145 39.5032 248.256 39.6168C248.366 39.7305 248.477 39.8441 248.477 39.9577C248.477 40.4122 248.699 40.5258 249.031 40.5258C249.142 40.5258 249.363 40.4122 249.474 40.2986C249.696 39.8441 249.252 39.9577 249.031 39.7305C248.92 39.6168 248.809 39.3896 248.699 39.2759C248.699 38.8214 248.477 38.3669 249.142 38.1397C249.252 38.1397 249.474 38.2533 249.585 38.2533C249.695 38.4806 250.028 38.3669 250.249 38.3669C250.36 38.4806 250.36 38.4806 250.471 38.5942C251.025 38.0261 251.8 38.1397 252.354 37.6852C252.575 37.6852 252.797 37.5716 252.686 37.3443C252.465 36.8898 252.576 36.5489 252.465 36.0944C252.576 35.9808 252.686 35.8672 252.908 35.9808C253.24 35.7535 253.019 35.4127 253.24 35.1854C253.462 34.9582 253.683 34.7309 253.462 34.5037C253.351 34.6173 253.24 34.7309 253.129 34.8445V34.9582C253.019 34.9582 252.908 35.0718 252.797 35.0718C252.686 35.4127 251.911 35.1854 252.132 35.8671C252.354 36.3217 252.022 36.6625 251.8 37.0034C251.689 37.2307 251.689 37.3443 251.8 37.5715C251.689 37.5715 251.579 37.5715 251.468 37.5715V37.4579C251.135 37.3443 250.914 37.0034 250.692 36.6625C250.803 36.3217 251.357 36.5489 251.357 36.0944C250.914 36.208 250.582 35.8672 250.139 35.9808C250.139 35.7535 250.028 35.5263 250.139 35.299C250.914 35.1854 251.689 35.0718 251.689 34.0492C251.579 34.0492 251.579 34.0492 251.468 34.0492C251.025 34.0492 251.246 34.39 251.136 34.6173C250.692 35.0718 250.249 35.0718 249.696 34.8445C249.696 34.6173 249.695 34.5036 249.585 34.2764C250.028 34.0491 250.028 33.7083 250.028 33.3674C249.806 33.3674 249.585 32.9129 249.474 33.3674C249.252 34.0492 249.142 33.2538 248.92 33.3674C248.699 33.0265 249.031 32.6856 248.92 32.3448C248.92 32.2311 248.92 32.2311 248.92 32.1175C249.031 32.1175 249.142 32.1175 249.363 32.2311C249.585 32.2311 249.806 32.3448 250.139 32.3448C250.249 32.2311 250.36 32.1175 250.471 32.1175C250.471 32.4584 250.582 32.6856 250.914 32.7993C251.135 33.0265 251.357 32.7993 251.579 32.9129C251.8 32.6856 251.689 32.3447 251.911 32.0039C252.132 31.5494 252.243 30.8676 251.357 30.754C251.136 31.0949 250.803 31.3221 251.136 31.7766C251.025 31.8903 251.025 31.8902 250.914 32.0039C250.803 32.0039 250.692 32.1175 250.471 32.1175C250.249 31.8903 250.028 31.5494 249.917 31.3221C249.806 31.2085 249.696 30.9813 249.474 31.0949C249.252 31.2085 249.363 31.4358 249.363 31.663C249.142 32.0039 248.699 31.8903 248.366 32.1175C248.256 32.1175 248.256 32.1175 248.145 32.1175C248.145 32.0039 248.145 32.0039 248.145 31.8902C248.145 31.7766 248.145 31.5494 248.034 31.4357C248.256 31.0949 248.699 31.2085 248.92 30.8676C249.031 30.8676 249.142 30.754 249.252 30.754C249.474 30.6404 249.917 30.4131 249.917 30.2995C249.917 29.9586 249.474 30.1859 249.252 29.9586C249.142 29.9586 248.92 30.0722 248.92 30.1858C248.809 30.2995 248.699 30.4131 248.588 30.5267C248.366 30.754 248.034 30.8676 247.812 31.0949C247.702 31.0949 247.702 31.0949 247.591 31.0949C247.591 31.0949 247.591 30.9812 247.48 30.9812C247.591 30.6404 248.145 30.6404 248.034 30.1858C248.366 29.845 249.031 29.7313 249.142 29.1632C249.363 29.1632 249.585 29.1632 249.917 29.1632C250.249 29.1632 250.36 28.936 250.36 28.7087C250.36 28.5951 250.471 28.3679 250.249 28.2542C250.028 28.1406 249.806 28.2542 249.696 28.4815C249.474 28.7087 249.252 28.4815 249.031 28.5951C248.255 28.3678 248.256 28.3679 248.809 27.7997C249.252 27.7997 249.585 27.6861 249.806 27.2316C249.806 27.2316 249.806 27.118 249.806 27.0043C250.249 27.2316 250.582 27.0043 251.025 26.8907C251.025 26.7771 251.025 26.7771 251.025 26.6635C251.246 26.5498 251.468 26.3226 251.579 26.0953C251.911 25.8681 252.243 25.6408 252.465 25.4136C252.797 25.6408 253.129 25.7545 253.351 25.4136C253.572 25.1863 253.24 24.9591 253.019 24.9591C252.908 24.7318 252.797 24.6182 252.576 24.6182C252.465 24.8454 252.243 24.8455 252.022 24.9591C251.911 24.9591 251.911 25.0727 251.8 25.0727C251.689 25.0727 251.579 25.0727 251.579 24.9591C251.8 24.7318 251.911 24.6182 252.132 24.3909C252.022 24.2773 251.911 24.2773 251.689 24.2773C251.468 24.2773 251.468 24.05 251.357 23.9364C251.468 23.9364 251.579 23.8228 251.8 23.8228C252.132 23.8228 252.354 23.5955 252.243 23.3683C252.132 23.141 252.022 23.4819 251.911 23.4819C251.689 23.4819 251.468 23.4819 251.357 23.5956C251.357 23.141 251.579 22.8002 251.8 22.4593C252.022 22.4593 252.243 22.4593 252.354 22.4593C252.908 21.8912 252.576 21.5503 252.132 21.323C252.022 21.2094 252.022 21.2094 251.911 21.323C251.911 21.323 251.8 21.4367 251.8 21.5503V21.6639C251.8 21.7775 251.689 21.8912 251.579 21.8912C251.468 21.8912 251.246 21.8912 251.136 21.8912C251.025 21.7775 250.914 21.5503 250.914 21.4367C251.135 21.0958 251.579 21.0958 251.8 20.8685C251.468 20.5277 251.025 20.8685 250.692 20.8685C250.139 20.3004 251.136 20.5276 251.025 20.1868C251.025 20.1868 250.914 20.0731 251.025 19.9595C251.025 19.8459 251.136 19.6186 251.136 19.505C251.136 19.1641 251.025 18.8233 251.025 18.4824C251.357 18.596 251.025 18.9369 251.136 19.1641C251.136 19.2778 251.246 19.2777 251.357 19.3914C251.468 19.3914 251.579 19.3914 251.579 19.3914C251.911 19.6186 251.689 20.1868 252.132 20.3004C252.908 19.7323 252.132 19.505 251.911 19.0505C252.465 18.9369 253.129 18.9369 253.24 18.2551C253.683 17.4597 254.126 18.0279 254.459 18.3687C254.459 18.1415 254.569 17.9142 254.569 17.8006C255.566 17.5734 256.674 17.4597 257.671 17.1189C258.114 16.778 257.892 16.5507 257.671 16.2099C257.339 15.869 257.117 15.7553 256.674 16.0962C256.563 15.869 256.452 15.7554 256.231 15.7554C256.009 15.869 255.788 15.869 255.566 15.9826C255.012 15.9826 254.569 16.2099 254.126 16.4371C253.794 16.5507 253.572 16.5507 253.24 16.6644C253.129 16.6644 253.129 16.6644 253.019 16.6644C252.908 16.6644 252.908 16.5507 252.797 16.5507C253.129 16.3235 253.572 15.9826 253.905 15.7554C254.126 15.5281 254.569 15.5281 254.237 15.0736C253.905 14.7327 253.462 14.2782 253.019 14.6191C252.354 15.1872 251.579 15.1872 250.803 15.0736H250.692C250.582 14.96 250.582 14.96 250.582 14.8463C250.582 14.7327 250.582 14.7327 250.582 14.7327C250.803 14.5055 250.914 14.1646 251.357 14.3918C251.579 14.5055 251.689 14.5055 251.911 14.3918C252.576 14.1646 253.24 13.7101 253.905 13.5965C253.905 13.5965 254.015 13.5964 254.015 13.7101H254.126C253.905 13.9373 254.126 14.0509 254.348 14.2782C254.126 14.8463 254.902 14.3919 254.902 14.7327C254.791 14.96 254.68 15.0736 254.791 15.3009C254.902 15.1872 255.012 15.1872 255.123 15.0736C255.345 14.96 255.677 14.96 255.899 14.96C255.899 14.8463 255.788 14.6191 255.677 14.6191C255.677 14.5055 255.788 14.2782 255.788 14.1646C255.899 14.1646 256.12 14.1646 256.231 14.1646C256.452 13.9373 256.342 13.7101 256.342 13.4828H256.231C256.12 13.2556 256.896 12.8011 256.009 12.6874C255.566 12.6874 255.456 12.6874 255.456 13.1419C255.456 13.2556 255.345 13.4828 255.345 13.5965C255.234 13.7101 255.123 13.7101 255.012 13.8237C255.012 13.8237 255.012 13.8237 255.012 13.7101C254.902 13.5964 254.791 13.4828 254.68 13.3692C254.348 12.9147 254.791 12.6874 254.902 12.2329C254.569 11.8921 254.126 12.2329 253.794 12.2329C253.24 12.3466 253.351 13.0283 252.908 13.2556C252.797 13.1419 252.686 13.0283 252.576 12.9147C252.797 12.6875 252.686 12.4602 252.686 12.2329C252.908 12.2329 253.019 12.1193 253.129 12.0057C253.129 11.8921 252.797 11.7784 253.019 11.5512C253.683 11.6648 254.237 11.5512 254.459 10.8694C254.459 10.7558 254.459 10.6422 254.348 10.4149C254.348 10.3013 254.348 10.3013 254.348 10.1877C254.902 9.96044 254.791 9.61954 254.348 9.27866C254.237 8.93778 254.569 8.82415 254.68 8.5969C254.791 8.5969 254.791 8.5969 254.902 8.5969C255.012 8.5969 255.123 8.4833 255.234 8.4833C254.68 8.02879 254.237 8.5969 253.794 8.5969C253.572 8.5969 253.572 8.36966 253.462 8.25603C253.24 8.48328 253.129 8.71054 253.129 8.93779C253.129 9.27867 253.019 9.27865 252.797 9.16503C252.797 9.16503 252.797 9.16503 252.797 9.27866V9.16503C252.797 8.93777 252.686 8.71052 252.686 8.5969C252.354 8.36964 251.911 8.14241 251.911 7.6879C251.579 7.80153 251.468 8.36966 250.914 8.25603C250.139 8.59691 249.252 8.02879 248.588 8.93779C248.477 8.93779 248.366 8.93779 248.145 8.93779C248.034 8.71054 247.923 8.59692 247.812 8.36966L248.034 7.34704V7.2334C248.477 7.00615 248.366 8.02877 248.588 7.57427C248.92 7.00614 249.363 7.2334 249.696 7.11977C250.36 7.46065 250.803 6.66528 251.357 6.77891C251.579 6.43803 251.357 6.32438 251.136 6.43801C250.803 6.43801 250.582 6.55165 250.249 6.66527C250.139 6.66527 250.139 6.66527 250.028 6.66527V6.55164C249.585 6.66527 249.252 6.89253 248.809 6.77891C248.477 6.55165 248.145 6.66527 247.923 6.66527C247.48 6.3244 247.037 6.7789 246.594 6.66527C246.594 6.66527 246.594 6.77891 246.483 6.77891C246.372 6.77891 246.262 6.77891 246.151 6.77891C246.04 6.66528 245.929 6.66527 245.819 6.55164C245.708 6.32439 245.819 6.09714 245.819 5.98351H245.929C246.151 5.98351 246.372 5.8699 246.483 5.64265C246.926 5.52902 247.259 5.41538 247.702 5.41538C248.256 5.41538 248.699 5.41538 249.252 5.41538C249.363 5.41538 249.474 5.30175 249.585 5.30175C250.028 5.18812 250.582 5.07452 251.025 5.07452C251.246 4.96089 251.468 5.07449 251.689 4.73362C250.692 5.07449 250.249 4.73363 250.249 3.82462C250.249 3.48374 250.139 3.14287 249.917 2.80199C250.028 2.68837 250.139 2.57473 250.249 2.57473C250.471 2.57473 250.692 2.4611 250.914 2.4611C251.246 2.57472 251.579 2.57474 251.8 2.23386C251.8 2.12024 251.8 2.12023 251.8 2.12023C251.8 2.12023 251.911 2.12022 251.911 2.0066C252.022 2.23385 252.132 2.57474 252.354 2.80199C252.575 2.80199 252.797 2.80198 252.908 3.14286C253.24 3.02923 253.462 2.80198 253.683 2.57473H253.572C254.016 1.89297 253.572 2.0066 253.129 2.0066C253.129 1.55209 253.683 1.55211 254.126 1.0976C253.683 1.0976 253.351 0.983949 253.24 0.643071C253.24 0.415819 253.24 0.302193 253.24 0.0749409C253.019 0.0749409 252.797 0.188574 252.576 0.188574C251.689 0.0749478 250.803 -0.0386852 249.917 0.0749409C249.252 -0.152311 248.809 0.188588 248.256 0.41584C248.145 0.41584 248.145 0.41584 248.034 0.41584L247.923 0.529473C247.591 0.643099 247.702 0.983949 247.48 1.2112C247.369 1.2112 247.148 1.21123 247.037 1.0976C247.037 0.983977 247.148 0.983963 247.148 0.870337C247.369 0.756711 247.369 0.643092 247.148 0.41584C246.926 0.41584 246.705 0.529473 246.483 0.529473C246.151 0.529473 245.929 0.643071 245.597 0.643071C245.376 0.643071 245.154 0.756704 245.043 0.756704C244.157 0.643078 243.271 0.529445 242.385 0.643071C242.052 0.756697 241.72 0.756711 241.166 0.870337C241.499 0.983963 241.72 1.09758 241.831 1.2112C241.831 1.43845 241.72 1.77935 241.72 2.0066C241.609 2.0066 241.499 1.89296 241.277 1.89296C240.723 0.87033 240.502 0.756711 239.283 1.43847C238.951 1.43847 238.508 1.43847 238.176 1.43847C237.843 1.43847 237.4 1.43847 237.068 1.43847C236.625 1.32484 236.625 1.55209 236.625 1.89296C236.293 2.00659 236.292 1.66573 236.182 1.5521C235.739 1.0976 235.185 1.32485 234.742 1.5521C234.299 1.77935 234.853 1.89297 234.963 2.0066C234.853 2.12022 234.742 2.23384 234.631 2.34746C234.409 2.68834 234.077 2.91559 233.856 2.34746C233.745 2.00658 233.634 1.77934 233.191 1.89296C232.748 2.00659 232.305 2.0066 231.973 2.12023C231.64 2.0066 231.308 2.0066 230.865 2.12023C230.754 2.12023 230.643 2.12023 230.533 2.12023C228.649 1.66573 226.877 2.46112 224.994 2.80199C223.776 2.80199 222.557 2.80199 221.339 2.80199C221.228 2.80199 221.117 2.91559 220.896 2.91559C220.674 2.91559 220.452 3.02923 220.231 3.02923C220.12 3.02923 220.009 3.14286 219.788 3.14286C218.902 3.25648 218.126 3.48373 217.24 3.59736C217.129 3.59736 217.019 3.59736 216.797 3.59736C216.465 3.48373 216.022 3.59736 215.689 3.59736C214.803 3.59736 214.028 3.3701 213.142 3.59736C211.591 4.05186 209.929 4.27913 208.268 4.39275C207.603 4.39275 206.939 4.1655 206.274 4.39275C205.831 4.50638 205.499 4.73362 205.056 4.84725C204.28 4.96088 203.505 5.07449 202.729 5.30175C202.619 5.30175 202.619 5.30175 202.508 5.30175C202.176 5.18812 201.843 5.18812 201.4 5.30175C201.068 5.18812 200.736 5.18812 200.403 5.30175C200.071 5.18812 199.739 5.18812 199.517 5.30175C199.406 5.30175 199.406 5.30175 199.296 5.30175C197.966 5.529 196.637 5.86989 195.308 6.09714C194.976 6.09714 194.643 6.21078 194.311 6.21078C193.425 6.21078 192.539 5.86987 191.653 6.32437C190.213 6.55163 188.883 6.89252 187.443 7.11977C187.111 7.11977 186.779 7.11977 186.336 7.11977C186.114 7.00615 185.893 7.00615 185.671 7.11977C185.006 6.89252 184.453 7.34701 183.788 7.46064C183.013 7.57426 182.237 7.80154 181.462 7.91517C180.576 8.02879 179.8 8.02877 178.914 8.1424C178.028 7.80152 177.142 8.25605 176.366 8.4833C175.702 8.59692 175.148 8.71054 174.483 8.82416C174.151 8.82416 173.819 8.93779 173.487 8.93779C172.822 8.93779 172.157 8.93779 171.493 8.93779C170.717 8.71054 170.053 8.93778 169.388 9.27866C169.277 9.27866 169.277 9.27866 169.166 9.27866C168.502 9.39229 167.948 9.50593 167.283 9.61956C166.951 9.73318 166.619 9.73316 166.287 9.84679C165.954 9.61954 165.511 9.84679 165.179 9.84679C165.179 9.84679 165.29 9.8468 165.29 9.96042C165.29 9.96042 165.179 9.96042 165.179 9.84679C164.625 9.73316 164.182 9.73317 163.628 9.96042C163.296 10.074 162.853 10.074 162.631 10.3013C161.856 10.5285 160.97 10.6422 160.194 10.8694C160.083 10.8694 159.862 10.8694 159.751 10.9831C159.64 10.9831 159.53 10.9831 159.308 11.0967C158.976 10.9831 158.533 10.9831 158.2 11.0967H158.422C158.311 11.0967 158.311 11.0967 158.2 11.0967C158.09 11.0967 158.09 11.0967 157.979 11.0967C157.647 10.9831 157.203 10.9831 156.871 11.0967C156.539 11.0967 156.096 11.2103 155.874 11.4375C153.991 12.0057 151.997 12.233 150.003 12.3466C149.782 12.233 149.56 12.3466 149.339 12.4602C149.007 12.5738 148.563 12.5738 148.342 12.8011C148.12 12.8011 147.899 12.9147 147.788 12.9147C147.123 13.0283 146.348 13.142 145.683 13.3692C145.462 13.3692 145.24 13.4828 145.019 13.4828H144.908C143.357 13.142 141.807 13.7101 140.367 14.3918C140.145 14.3918 139.923 14.5055 139.813 14.5055C139.37 14.6191 138.927 14.6191 138.594 14.7327H138.483C137.154 14.8464 135.825 14.2782 134.607 15.3009C133.942 15.4145 133.277 15.5281 132.723 15.869C132.613 15.869 132.613 15.869 132.502 15.869C132.391 15.869 132.28 15.869 132.059 15.9826C131.948 15.9826 131.948 15.9826 131.837 15.9826C131.173 15.869 130.508 16.0962 129.844 16.2099C129.179 16.2099 128.404 15.7553 127.96 16.5507C127.185 16.6643 126.41 16.8916 125.745 17.2325C125.634 17.2325 125.524 17.3461 125.302 17.3461C124.97 17.3461 124.748 17.4597 124.416 17.4597C124.416 17.4597 124.305 17.4597 124.194 17.4597C123.64 17.3461 123.087 17.5734 122.422 17.5734C121.979 17.4598 121.647 17.5734 121.314 17.8006C120.982 17.8006 120.539 17.9143 120.317 18.1415C119.764 18.2551 119.099 18.2551 118.656 18.7096C118.545 18.7096 118.545 18.7096 118.545 18.7096C117.659 18.8233 116.884 18.9369 115.997 19.0505C114.779 18.8233 113.782 19.7323 112.674 20.0731C109.905 20.6413 107.025 20.8685 104.367 22.1184C103.259 22.2321 102.151 22.4593 101.044 22.5729C100.49 22.5729 100.047 22.9138 99.6036 23.1411C99.3821 23.1411 99.1605 23.2547 98.9389 23.3683C98.8282 23.3683 98.7174 23.4819 98.6067 23.4819C97.3882 23.7092 96.059 23.9364 94.8406 24.1637C94.2867 24.0501 93.6221 24.1637 93.179 24.5045C92.0713 24.8454 90.9636 25.1863 89.9667 25.5272C88.3052 25.7545 86.6436 25.6408 85.2036 26.6635C84.8713 26.7771 84.3175 26.6635 84.2067 27.2316C83.2098 27.0043 82.3237 27.4588 81.3267 27.5725C81.1052 27.4588 80.8836 27.4588 80.6621 27.5725C80.219 27.5725 79.8867 27.5724 79.5544 27.9133C79.1113 28.027 78.779 28.2542 78.336 28.3679C78.0036 28.3679 77.7821 28.4815 77.4498 28.7087C77.3391 28.7087 77.2283 28.8224 77.1175 28.8224C76.1206 29.0496 75.0129 29.1632 74.0159 29.3905C73.9052 29.3905 73.9052 29.3905 73.7945 29.3905C72.7975 29.2769 72.1329 29.9586 71.2467 30.2995C71.1359 30.2995 71.136 30.2995 71.136 30.2995C70.5821 30.4131 70.1391 30.4131 69.696 30.754C69.5852 30.754 69.3637 30.6404 69.2529 30.8676C68.4775 30.9812 67.7021 31.0949 66.9268 31.2085C66.5945 31.2085 66.3729 31.2085 66.0406 31.3221C65.7083 31.3221 65.4868 31.4358 65.2652 31.663C64.9329 31.663 64.7114 31.7766 64.4898 32.0039C63.8252 32.2311 63.2714 32.4584 62.6068 32.572C61.3883 32.7993 60.0591 32.7993 58.9514 33.2538C57.4006 33.8219 55.9607 34.5036 54.4099 34.8445C53.9668 34.9581 53.4129 34.9582 52.9698 35.0718C52.5268 34.9582 52.1945 34.9581 51.8621 35.299C51.6406 35.4126 51.3084 35.5263 51.0868 35.6399C50.2007 35.9808 49.3145 36.208 48.4283 36.5489C47.9853 36.6625 47.653 36.7762 47.2099 36.7762H47.0991C46.3237 36.7762 45.5483 36.6625 44.8837 37.2307C44.7729 37.2307 44.6622 37.3443 44.5514 37.3443C44.3299 37.3443 44.2191 37.3443 44.1083 37.5715C43.776 37.6852 43.4437 37.9124 43.1114 38.0261C42.4468 38.1397 41.6714 38.2533 41.0068 38.5942C40.2314 38.7078 39.4561 38.8214 38.6807 38.9351C37.573 38.9351 36.6868 39.6168 35.6899 39.9577C35.5791 39.9577 35.3576 40.0713 35.2468 40.185C34.4714 40.2986 33.8068 40.5258 33.0314 40.6395C32.9207 40.6395 32.6992 40.6395 32.5884 40.6395C31.4807 40.5258 30.373 40.7531 29.4869 41.4349C28.933 41.6621 28.3792 41.7757 27.8253 42.003C26.8284 42.2302 25.7207 42.3439 24.7238 42.5711C24.0591 42.4575 23.3945 42.4575 22.7299 42.912C22.2869 43.0256 21.8438 43.1392 21.5115 43.3665C21.5115 43.3665 21.4007 43.4801 21.2899 43.4801C19.4069 44.0482 17.5238 44.0482 15.6408 44.3891C14.3115 44.73 12.8715 45.2981 11.4315 45.4118C11.0992 45.4118 10.7669 45.4118 10.6562 45.7526H10.5453C10.4346 45.639 10.3238 45.4117 9.9915 45.5254C8.99458 45.639 7.99765 45.4118 7.00073 45.4118C6.66842 45.2981 6.44689 45.1845 6.11459 45.1845C5.89305 45.0709 5.67154 44.9572 5.45 45.0709C4.78539 44.8436 4.12076 45.1845 3.56691 45.2981C3.12384 45.2981 2.79151 45.2981 2.56997 45.7526C2.34843 46.3208 2.01618 47.0025 1.79464 47.5707C1.24079 48.366 0.797677 49.275 0.576139 50.184C-0.0884743 50.6385 -0.199243 50.9794 0.576139 51.4339C0.354602 51.7748 -0.199243 52.2293 0.576139 52.6838C0.686908 52.7975 0.686922 53.1383 0.797691 53.3656C0.686922 53.4792 0.686908 53.7065 0.576139 53.8201C0.354602 54.161 -0.0884337 54.5018 0.133104 54.9563C0.0223352 55.07 0.0222947 55.1836 0.0222947 55.4108C-0.0884743 55.7517 0.243819 55.979 0.354588 56.2062C0.465357 56.5471 0.243873 56.888 0.133104 57.3425C0.133104 58.1379 0.133064 58.9333 0.0222947 59.615C0.133064 60.0695 0.243846 60.4104 0.243846 60.8649C0.243846 60.9785 0.243846 61.0922 0.243846 61.2058C-0.19923 62.4557 0.465398 63.4783 1.01924 64.5009C1.35155 65.7508 1.57306 66.8871 2.79152 67.6824C3.23459 68.0233 3.12387 68.8187 4.01002 68.8187C4.23156 69.046 4.56381 69.2732 4.78535 69.5005C4.78535 69.7277 5.00694 69.955 5.11771 70.0686C5.45001 70.4095 5.6715 69.7277 5.89304 69.955C6.0038 70.0686 6.11459 70.1822 6.11459 70.2959C6.11459 70.4095 6.11463 70.4095 6.2254 70.5231C6.2254 70.7504 6.22536 70.9776 6.11459 71.2049C5.67151 72.2275 6.22538 72.682 7.11153 72.9093C7.66538 73.4774 8.32995 73.8183 9.2161 73.4774C9.32687 73.4774 9.43767 73.4774 9.65921 73.4774C9.65921 73.8183 9.99151 73.7047 10.2131 73.7047C10.5454 73.9319 10.8777 74.0455 11.3207 73.9319C11.9854 74.1591 12.7607 74.0455 13.5361 74.0455C13.8684 74.1591 14.09 74.2728 14.4223 74.0455H14.5331H14.6438C14.8653 74.0455 15.0869 74.0455 15.3084 74.1591C15.7515 74.3864 15.4192 74.6137 15.1977 74.8409C14.6438 74.9545 14.2007 75.1818 13.8684 75.5227C13.6469 75.6363 13.3146 75.7499 13.7577 75.9772C13.8684 76.0908 14.0899 76.318 14.2007 76.4317C14.0899 76.7726 14.3115 76.9998 14.4223 77.2271C14.4223 77.9088 15.1977 77.9088 15.4192 78.2497C16.0838 78.7042 16.97 78.4769 17.6346 78.7042V78.5906C17.6346 78.5906 17.6346 78.5906 17.7453 78.5906V78.7042C18.1884 78.9314 18.9638 78.3633 19.0746 79.1587C18.853 79.6132 18.5207 78.9314 18.2992 79.2723C18.4099 79.6132 18.7423 79.4996 18.9638 79.6132C19.2961 79.8404 18.9638 79.8405 18.853 79.9541C18.6315 79.9541 18.41 80.0677 18.1884 80.0677C17.8561 80.0677 17.413 80.0677 17.5238 80.5222C17.6345 80.8631 18.0776 80.7495 18.2992 80.5222C18.4099 80.5222 18.5207 80.5222 18.7423 80.4086C19.2961 80.7495 19.5177 80.295 19.85 79.9541C19.85 79.7268 19.7392 79.6132 19.7392 79.386C19.7392 79.386 19.7392 79.386 19.85 79.386C20.6253 79.1587 21.5115 79.0451 21.733 78.0224C21.9546 78.0224 22.1761 78.0224 22.3976 78.1361C22.6192 78.0224 22.8407 77.9088 22.9515 77.6816C23.6161 77.3407 24.2807 77.1134 25.0561 77.3407C25.2777 77.5679 25.0561 77.7952 24.9453 77.9088C24.7238 78.0224 24.3914 78.1361 24.1699 78.3633C23.5053 78.2497 23.0622 78.4769 22.9515 79.1587C23.3946 79.0451 23.9484 79.1587 24.3915 78.7042V78.5906V78.7042C24.5022 78.9314 24.9453 79.386 24.2807 79.4996C23.7269 79.6132 24.1699 79.9541 24.0592 80.1813C24.0592 80.2949 23.9484 80.295 23.9484 80.4086C23.6161 80.5222 23.0622 80.4086 22.9515 80.9767C22.7299 81.204 22.6192 81.3176 22.3976 81.5448C22.1761 81.7721 21.9545 81.8857 21.6222 82.113C21.4007 82.113 21.1792 82.2266 21.0684 82.4538C20.7361 82.5675 20.1823 82.5675 20.0715 83.022C20.0715 83.022 19.9607 83.022 19.9607 83.1356C19.8499 83.1356 19.6284 83.1356 19.5177 83.1356C19.0746 83.1356 18.6315 83.2492 18.2992 83.5901C17.8561 83.5901 17.7453 83.931 17.5238 84.1582C17.1915 84.1582 16.9699 84.1582 16.6376 84.1582C16.3053 84.3855 15.973 84.4991 15.5299 84.7264C15.3084 84.84 15.1976 84.9536 14.9761 85.0673C14.7546 85.0673 14.4223 85.0672 14.3115 85.4081C14.2007 85.4081 14.2007 85.4081 14.2007 85.5218C13.6469 85.6354 13.093 85.749 12.5392 85.9763C12.4284 85.9763 12.3176 86.0899 12.2069 86.0899H12.0961C11.6531 85.9763 11.3208 86.2035 10.9884 86.5444C10.5454 86.658 10.1023 86.7717 9.54846 86.7717C9.21616 86.5444 8.99461 86.658 8.77307 86.9989C8.6623 87.1125 8.77304 87.3398 8.88381 87.4534C9.10535 87.6807 9.21614 87.4534 9.32691 87.3398C9.76999 87.2262 10.213 86.9989 10.5453 87.2262C10.9884 87.4534 11.3208 87.2262 11.5423 86.8853C11.5423 86.8853 11.653 86.8853 11.653 86.9989C11.7638 87.1125 12.0961 86.8853 12.0961 87.2262L11.9853 87.3398C11.5423 87.2262 11.21 87.2261 10.7669 87.567C10.5454 87.7943 10.4346 87.9079 10.2131 88.1351C9.88074 88.2488 9.2161 88.2488 9.76995 88.8169C10.1023 88.9305 10.3238 88.8169 10.5453 88.5897C10.5453 88.5897 10.5454 88.5896 10.6562 88.7033C10.5454 88.8169 10.3238 88.9305 10.3238 89.1578C10.213 89.2714 10.1023 89.4987 9.9915 89.6123C9.65919 89.7259 9.32687 89.6123 9.2161 89.9532C8.8838 90.0668 8.44075 90.0668 7.99767 90.1804C8.44075 90.6349 9.10536 91.0894 8.55152 91.8848C8.21921 92.1121 7.99769 92.4529 7.66538 92.6802C7.44384 92.7938 7.33307 93.0211 7.11153 93.1347C6.77923 93.1347 6.44689 93.1347 6.11459 93.1347C5.56074 92.9075 5.11768 93.1347 4.6746 93.3619C4.45307 93.4756 4.23153 93.5892 4.12076 93.9301C3.45615 94.0437 3.01304 94.271 3.12381 95.0663C3.12381 95.5208 2.79156 95.7481 2.34848 95.8617C2.12695 95.6345 1.90537 95.7481 1.68383 95.8617V96.089C1.90537 96.2026 2.12695 96.4299 2.34848 95.9754C2.90233 95.9754 3.23462 95.6345 3.78847 95.5208V95.8617C3.45616 96.3162 4.12076 96.2026 4.12076 96.4299C3.67768 96.6571 3.12387 96.8844 3.45617 97.5661C3.12387 98.0206 3.34539 98.1343 3.78847 98.1343C3.89924 98.1343 4.12073 98.2479 4.2315 98.2479C4.2315 98.3615 4.23154 98.3615 4.34231 98.4751C4.34231 99.2705 4.6746 99.3841 5.22845 98.9296C5.33922 98.9296 5.45001 98.9296 5.67155 98.816C6.2254 99.1569 6.5577 99.2705 7.33309 98.9296C7.9977 98.5887 8.55153 98.1343 9.32691 98.1343C9.54845 97.907 10.2131 98.0206 10.1023 97.3389C10.7669 97.3389 10.7669 96.6571 11.21 96.5435C11.5423 96.3162 11.9854 96.3162 12.0961 95.8617C12.4284 95.6345 12.9823 95.6345 13.3146 95.18C13.5361 95.18 13.7577 95.0663 13.9792 95.0663C14.09 95.0663 14.0899 95.0663 14.2007 94.9527C14.4222 94.8391 14.533 94.7255 14.7546 94.6118C14.9761 94.6118 15.3084 94.4982 15.5299 94.7255C15.4192 94.8391 15.4192 94.9527 15.3084 95.0663C15.0869 95.18 14.7546 95.18 14.5331 95.5208C14.2008 96.4298 13.093 96.089 12.5392 96.7707C12.2069 96.998 11.7638 96.998 11.653 97.3389C11.21 97.6797 10.5454 97.4525 10.2131 98.0206L10.1023 98.1343C9.99154 98.2479 9.99153 98.3615 9.88076 98.4751C9.43768 98.4751 9.10536 98.7024 9.10536 99.2705C8.99459 99.3841 8.88381 99.3841 8.88381 99.4977C8.5515 98.816 8.21921 99.3841 7.99767 99.4977C7.44383 99.8386 7.00073 100.293 6.44688 100.634C6.33611 100.634 6.2254 100.52 6.2254 100.52C6.00386 100.293 5.6715 100.52 5.33919 100.52C5.22842 100.52 5.00692 100.52 4.89616 100.52C4.78539 100.293 4.56385 100.18 4.34231 100.293C4.23154 100.293 4.2315 100.52 4.2315 100.52C4.34227 100.861 4.67459 100.748 5.0069 100.748C5.22844 101.316 5.56074 101.884 6.11459 102.225C6.22536 102.452 6.33614 102.679 6.33614 102.907C6.33614 103.588 6.55766 103.816 7.22228 103.475C7.44381 103.361 7.77613 103.361 7.99767 103.134C8.21921 103.02 8.55153 103.02 8.77307 102.679C9.32691 102.679 9.65921 102.338 10.2131 102.338C10.2131 102.225 10.3238 102.225 10.3238 102.111H10.4346C11.0992 102.111 10.8777 102.566 10.7669 102.907L10.4346 102.793L10.3238 102.679C10.1023 103.361 9.10539 103.02 8.99462 103.816C9.10539 104.043 9.65919 103.816 9.43766 104.27C9.32689 104.497 8.99461 104.611 8.77307 104.725H8.66226C8.55149 104.611 8.32999 104.497 8.21922 104.497C8.21922 104.384 8.10844 104.384 7.99767 104.384C7.8869 104.384 7.66534 104.384 7.55457 104.497C7.55457 104.838 7.99766 105.179 7.77612 105.52C7.77612 106.088 8.32995 106.315 8.66226 106.656C8.77303 107.338 8.66231 108.02 9.54846 108.247C9.65923 108.247 9.65918 108.361 9.76995 108.361C10.1023 108.588 10.6561 108.361 10.4346 109.042C10.3238 109.27 10.7669 109.27 10.9884 109.27C11.21 109.497 11.4315 109.497 11.653 109.383C11.9853 109.27 11.9854 109.497 11.8746 109.724C11.653 110.065 11.3207 110.179 10.8776 110.179C10.7669 110.065 10.5453 109.838 10.5453 110.065C10.3238 110.52 10.5454 110.747 10.9884 110.86C10.9884 110.974 10.9884 110.974 11.0992 111.088C11.21 111.428 11.21 111.769 11.3207 112.11C11.0992 112.678 11.5423 112.678 11.8746 112.906C11.8746 113.133 11.8746 113.36 12.2069 113.36C12.8715 113.701 13.2038 113.36 13.6469 112.906C14.2007 113.474 14.7546 112.906 15.3084 112.792C15.5299 112.906 15.7515 112.906 15.9731 112.678H15.8622C15.8622 112.678 15.8623 112.678 15.9731 112.792C16.5269 112.338 17.1915 112.338 17.8561 112.11C18.0777 112.11 18.2992 111.997 18.41 111.997C18.6315 111.997 18.9638 111.883 19.1853 111.883C19.5176 112.11 19.8499 112.337 20.1823 112.565C20.6253 112.678 21.0684 112.792 21.5115 112.906C21.6223 112.906 21.8438 112.906 21.9545 112.906C22.0653 112.906 22.2869 113.019 22.3976 113.019C22.8407 113.133 23.173 113.247 23.6161 113.36C23.8376 113.587 24.17 113.474 24.5023 113.587C24.7238 113.701 24.9453 113.701 25.1669 113.474C25.2776 113.474 25.3884 113.474 25.61 113.474C26.2746 113.815 26.8284 113.815 27.7145 113.474C27.1607 113.133 26.6068 113.133 26.053 113.019C25.4992 112.792 25.1669 112.338 24.5023 112.224C24.17 112.11 23.6161 111.656 24.2807 111.201C24.613 111.429 24.8346 111.201 25.1669 111.201C25.8315 111.429 26.4961 111.201 27.0499 110.86C27.2715 110.974 27.493 110.974 27.7145 110.974C27.9361 111.088 28.1576 111.201 28.3792 111.201C28.7115 111.542 28.933 111.883 29.2653 112.338C29.3761 112.906 29.9299 113.133 30.2622 113.474C30.4837 113.928 30.9268 114.156 31.2592 114.383C31.4807 114.61 31.813 114.724 32.1453 114.837C32.3668 114.951 32.5884 115.065 32.8099 115.065C33.9176 115.86 35.136 116.087 36.3545 116.542C36.576 116.769 36.7976 116.655 37.0191 116.769C37.4622 116.996 38.016 117.11 38.5699 117.223C38.9022 117.451 39.2345 117.337 39.6776 117.223C40.1206 117.337 40.453 117.564 40.8961 117.678C42.0038 117.905 43.1114 118.019 44.2191 118.246C44.3299 118.246 44.5514 118.36 44.6622 118.36C44.9945 118.587 45.4375 118.587 45.7699 118.587C46.3237 118.928 46.9884 118.701 47.5422 118.814C47.7637 119.041 47.9852 118.928 48.2068 118.928C48.6499 119.269 49.093 119.269 49.536 119.155C49.8683 119.382 50.2006 119.155 50.6437 119.155C50.8653 119.382 51.0868 119.496 51.4191 119.496C52.3053 119.61 53.1914 119.837 54.0775 119.95L56.2929 120.405C56.2929 120.973 55.7391 120.973 55.4068 121.2C54.5206 121.314 53.5237 121.655 52.7484 122.109H52.8591C52.8591 122.109 52.8591 122.109 52.8591 121.996C52.0837 122.109 51.3083 122.337 50.6437 122.905C49.7576 123.018 48.9822 123.473 48.2068 124.041C47.7637 124.041 47.4314 124.382 47.0991 124.723C46.656 125.064 46.7668 125.745 47.4314 125.859C48.7606 125.632 49.7576 124.609 51.0868 124.723L51.3083 125.064C51.0868 125.632 50.8653 126.086 50.533 126.654C50.0899 126.995 49.4253 127.109 48.9822 127.677C47.8745 128.018 46.656 128.359 45.7699 129.154C45.3268 129.381 44.773 129.495 44.4407 129.95C43.2222 130.404 41.893 130.631 40.8961 131.54C40.3422 131.654 39.7884 131.768 39.2345 131.881C38.5699 131.995 38.016 132.336 37.4622 132.79C37.0191 133.017 35.9114 132.677 36.576 133.813C36.4653 133.926 36.4653 134.154 36.3545 134.267C36.0222 134.495 35.5792 134.267 35.3576 134.608C35.3576 134.722 35.2468 134.835 35.2468 134.835C35.136 135.858 35.8007 135.744 36.4653 135.631C36.2438 135.972 36.133 136.313 35.9115 136.653C34.9145 136.767 33.9176 136.881 33.1422 137.676C34.1392 137.562 34.4715 138.131 34.8038 138.812C35.0253 139.04 34.693 139.608 35.3576 139.381C35.4684 139.608 35.4683 139.949 35.2468 140.176C35.136 140.29 35.0253 140.403 34.9145 140.517C33.4745 140.63 34.2499 141.653 34.1391 142.335C34.1391 142.448 34.0284 142.448 34.0284 142.562C33.5853 142.789 33.3637 143.13 33.5853 143.585C33.9176 144.721 34.9145 144.266 35.6899 144.494C35.5791 144.607 35.4684 144.835 35.3576 144.948C34.5822 145.062 34.4715 145.403 34.8038 145.971C35.2468 146.653 35.6899 146.653 36.3545 146.425C37.2406 146.425 37.2407 146.88 37.0191 147.562C36.9084 147.902 36.4653 148.13 36.2438 148.357C36.133 148.357 36.133 148.357 36.0222 148.357C35.9114 148.243 36.0222 147.902 35.6899 148.016C35.4684 148.13 35.4684 148.357 35.5792 148.471C35.3576 149.039 35.1361 149.38 34.3607 149.039C33.9176 148.811 33.253 148.811 32.8099 148.811C32.5884 148.584 32.4776 148.698 32.2561 148.698C31.7023 148.811 31.2592 149.152 30.7053 148.811C30.5945 148.471 30.7053 148.016 30.2622 147.902C30.1514 147.902 29.9299 148.016 29.9299 148.016C29.9299 148.243 30.0407 148.584 30.2622 148.698C30.2622 148.811 30.1515 149.039 30.1515 149.152C29.3761 149.266 28.4899 149.38 27.7145 149.607C27.493 149.38 27.0499 149.834 26.9391 149.38C27.3822 148.698 26.7176 148.925 26.3853 148.698C26.1638 148.584 25.9423 148.357 25.9423 148.698C26.053 149.266 25.3884 149.38 25.2776 149.834C24.8345 149.834 24.2807 149.607 24.2807 150.402C24.0592 150.516 23.6161 150.061 23.5053 150.857C23.2838 151.879 23.173 153.357 21.4007 153.357C21.2899 153.357 21.29 153.584 21.1792 153.697C20.8469 153.811 20.6253 154.152 20.7361 154.493C19.8499 154.72 19.7392 155.856 18.853 155.97C18.4099 155.629 17.7454 156.197 17.3023 155.856C16.97 155.402 16.4161 155.515 15.9731 155.402C15.0869 155.515 14.9761 155.515 15.3084 156.197C15.4192 156.311 15.53 156.311 15.6408 156.424C15.9731 156.993 17.3023 157.561 15.7515 158.242C15.7515 158.356 15.8622 158.356 15.8622 158.47C15.8622 158.583 15.9731 158.583 15.9731 158.697C16.0838 159.379 15.8623 159.606 15.1977 159.265C15.0869 159.265 14.9761 159.379 14.7546 159.379C14.2007 159.265 13.6469 159.038 12.9823 159.038C12.5392 159.038 11.9853 159.265 11.653 158.811C11.3207 158.583 11.0992 158.697 10.7669 158.811C10.6561 158.811 10.5453 158.811 10.5453 158.811C9.9915 159.492 10.8777 159.72 11.0992 160.174C11.0992 160.288 10.9884 160.515 10.9884 160.629C10.7669 160.856 10.7669 161.083 10.6562 161.31C10.4346 161.538 10.2131 161.538 10.1023 161.878C9.88077 162.219 9.99149 162.333 10.3238 162.333C10.4346 162.333 10.4346 162.447 10.5453 162.447C10.5453 162.674 10.5453 163.015 10.5453 163.242C10.3238 163.356 10.1023 163.469 10.2131 163.696C10.3238 164.151 8.99457 164.719 10.3238 165.06C10.3238 165.06 10.3238 165.174 10.4346 165.174C10.3238 166.083 9.54844 166.764 9.65921 167.673C9.54844 168.128 9.76998 168.355 10.2131 168.469C10.6561 168.696 11.21 168.81 11.5423 169.264C11.7638 169.605 11.9854 169.832 12.0961 170.173C12.0961 170.514 12.3176 170.969 11.9853 171.082C11.0992 171.423 11.7638 171.65 11.9853 171.878C12.0961 172.673 12.3177 173.355 12.9823 173.809C13.4254 174.15 13.7576 174.491 14.2007 174.832C14.4222 175.173 14.7546 175.286 14.9761 175.514C15.5299 176.082 15.7515 177.104 16.7484 177.332C16.97 177.559 17.0808 177.672 17.3023 177.9C17.6346 178.809 18.41 179.263 19.0746 179.831C19.4069 180.172 19.7392 180.399 20.0715 180.74C20.1823 180.854 20.4038 180.854 20.5145 180.854C20.6253 180.968 20.6253 180.968 20.7361 181.081C20.7361 180.854 20.7361 180.74 20.7361 180.513C20.7361 180.74 20.7361 180.854 20.7361 181.081C20.9576 181.195 21.29 181.309 21.5115 181.536C21.8438 181.649 22.0653 181.763 22.3976 181.877C22.8407 181.99 23.2838 182.104 23.7269 182.218C23.8376 182.331 24.0591 182.445 24.1699 182.558C24.2807 182.786 24.3915 182.899 24.613 182.899C24.8346 183.013 25.0561 183.24 25.3884 183.354C25.6099 183.581 25.8315 183.808 26.1638 183.808C26.3853 184.036 26.7176 183.808 26.9391 183.695C27.6037 183.467 28.2684 183.467 28.8222 183.922C28.7115 184.376 28.8222 184.604 29.2653 184.831C29.2653 185.058 29.0438 185.399 29.3761 185.626C29.5976 185.854 30.0407 185.967 30.2622 186.081C30.7053 186.308 31.1484 186.422 31.5914 186.308C32.1453 186.194 32.6991 185.967 33.253 186.081C33.4745 186.194 33.6961 186.194 33.9176 186.308C34.1392 186.422 34.4714 186.422 34.693 186.535C35.136 186.876 35.5792 187.103 36.133 187.103C36.133 187.217 36.2438 187.444 36.4653 187.444C36.9084 188.012 37.573 188.353 38.2376 188.581C38.3484 188.694 38.5699 188.694 38.6807 188.808C38.7915 188.921 38.7915 188.921 38.9022 189.035C39.013 189.262 39.1237 189.376 39.3453 189.376C39.6776 189.49 40.0099 189.603 40.3422 189.717C40.453 189.83 40.453 189.83 40.5638 189.944C41.1176 190.285 41.5606 190.967 42.4468 190.626C42.5576 190.626 42.5576 190.626 42.6683 190.626C42.7791 190.739 43.0007 190.74 43.1114 190.853C43.6653 191.08 43.8868 191.876 44.6622 191.762C45.4375 191.876 45.8807 192.671 46.7668 192.671C47.4314 192.785 48.2068 193.012 48.8714 193.012C49.3145 193.239 49.7576 193.239 50.3114 193.126C50.533 193.126 50.7545 193.239 50.976 193.239C51.0868 193.353 51.3083 193.353 51.4191 193.353C52.3053 193.58 53.1914 193.694 54.0775 193.921C54.4098 194.035 54.8529 194.148 55.1852 194.262C55.4068 194.489 55.7391 194.603 55.8499 194.944C55.6283 195.853 54.8529 195.625 54.2991 195.966C53.1914 196.194 52.0837 196.421 50.976 196.534C48.8714 196.762 46.7668 196.875 44.6622 197.33C44.5514 197.33 44.5515 197.33 44.4407 197.33C43.5545 197.216 42.6684 197.557 41.7822 197.898C41.4499 198.012 41.0068 197.898 40.8961 198.352C40.8961 198.693 41.2284 198.807 41.4499 199.034C41.6714 199.375 41.893 199.489 42.2253 199.602C44.1084 200.17 46.1022 200.057 48.096 199.716C48.3176 199.716 48.4284 199.716 48.6499 199.716C49.3145 199.83 49.8683 199.943 50.4222 199.489C51.1975 199.602 51.973 199.375 52.7484 199.261C53.1914 199.261 53.7453 199.261 54.1883 199.034C54.4099 199.034 54.6314 199.034 54.7422 199.034C56.5145 198.921 58.176 198.466 59.8375 198.012C60.2806 198.012 60.5021 197.671 60.9452 197.557C62.1637 197.216 63.4929 197.216 64.6006 196.421C64.8221 196.421 65.0437 196.534 65.2652 196.307C65.7083 196.08 66.2621 196.194 66.7052 195.853C66.9268 195.853 67.1483 195.739 67.2591 195.739C67.5914 195.739 68.0344 195.853 68.3668 195.512C68.5883 195.398 68.8098 195.398 68.9206 195.171C69.3637 195.057 69.9175 195.285 70.3606 195.057C70.5821 195.057 70.9145 195.057 71.0252 194.716C71.2468 194.603 71.3575 194.489 71.5791 194.376C71.6898 194.376 71.9113 194.489 72.0221 194.376C73.019 194.376 73.7945 193.353 74.9021 193.353C75.0129 193.353 75.0129 193.353 75.1236 193.353C75.5667 193.694 75.899 193.466 76.2313 193.239C76.6744 193.012 77.2283 192.785 77.7821 192.785C78.2252 192.785 78.0037 191.762 78.7791 192.103C79.0006 192.103 79.3328 192.217 79.5544 192.217C80.5513 192.33 81.3267 191.421 82.3236 191.421C82.8775 191.308 83.5421 191.308 83.9851 190.967C84.4282 190.739 85.3144 190.853 85.3144 189.944C85.6467 189.717 86.0898 189.603 86.5329 189.717C86.5329 189.944 86.0898 190.512 86.8652 190.285C87.3083 190.171 87.7513 190.171 88.0836 189.83C88.3051 190.058 88.5267 189.83 88.7483 189.717C89.5236 189.83 90.1882 189.717 90.6313 189.149C90.7421 189.149 90.8528 189.035 91.0744 189.035C91.2959 189.035 91.5174 188.921 91.739 188.921H91.8498H91.9605C92.4036 189.035 92.8467 189.49 93.4005 189.149C93.9544 189.035 94.3975 189.376 94.9513 189.149C95.5051 189.262 95.9482 189.49 96.5021 189.262C100.933 189.149 105.253 188.012 109.573 187.444C110.127 187.672 110.681 187.331 111.234 187.331C114.004 186.649 116.884 186.763 119.653 186.194C121.093 186.081 122.644 186.081 124.084 185.626C124.859 185.854 125.413 185.285 126.077 185.285C127.407 185.285 128.736 184.945 130.065 184.717C130.397 184.831 130.619 184.831 130.951 184.717C133.056 184.49 135.16 184.263 137.265 184.036C137.376 184.036 137.487 184.149 137.597 184.149C140.477 183.695 143.357 183.467 146.348 183.24C148.896 183.013 151.443 182.786 153.88 182.558C155.431 182.445 157.093 182.445 158.643 182.104C159.308 182.218 159.973 181.99 160.527 181.763C162.41 181.536 164.293 181.536 166.065 181.081C166.951 181.195 167.837 181.195 168.834 180.968C169.499 181.081 170.163 180.854 170.828 180.74C171.714 180.627 172.49 180.627 173.376 180.513C173.597 180.513 173.819 180.513 173.93 180.513C175.37 180.4 176.699 180.286 178.139 180.059C178.25 180.059 178.36 179.945 178.582 179.945C178.803 180.059 179.136 180.059 179.357 180.059C179.8 180.286 180.243 180.059 180.686 179.945H180.797H180.908C181.905 180.059 182.902 179.945 183.899 179.831C184.12 180.059 184.453 179.945 184.785 179.831C185.117 180.059 185.56 179.831 185.893 179.831C186.336 180.059 186.779 179.945 187.222 179.831C188.662 179.604 189.991 179.49 191.431 179.718C191.542 179.718 191.653 179.718 191.763 179.718C192.428 179.945 193.093 179.604 193.646 179.491C193.868 179.491 194.2 179.377 194.422 179.377C194.643 179.491 194.865 179.491 195.086 179.491C196.305 179.604 197.523 179.036 198.742 179.036C198.963 179.036 199.185 179.036 199.406 179.036C199.517 179.15 199.628 179.263 199.85 179.15C200.182 179.377 200.625 179.15 200.957 179.15C201.954 178.922 202.951 178.581 204.059 178.581C204.502 178.809 205.056 178.922 205.61 178.695C206.163 178.809 206.828 178.809 207.382 178.695C207.603 178.809 207.825 178.922 208.046 178.809C208.6 178.922 209.043 178.922 209.597 178.809C209.929 178.922 210.151 178.922 210.483 178.809C210.816 178.809 211.148 178.809 211.591 178.809C211.702 178.809 211.702 178.809 211.813 178.809C212.588 178.695 213.474 178.581 214.249 178.468C215.357 179.15 216.576 178.695 217.683 178.581C218.126 178.809 218.459 178.581 218.902 178.468C219.456 178.354 219.899 177.9 220.452 178.127C220.563 178.241 220.785 178.241 220.896 178.241C221.449 178.468 222.003 178.127 222.668 178.127H222.779H222.889C223.776 178.354 224.662 177.9 225.548 177.786C225.769 177.786 225.991 177.786 226.213 177.9C226.434 178.127 226.766 178.013 227.099 178.013C228.428 178.127 229.646 178.241 230.976 177.672C231.64 177.445 232.194 177.218 232.859 177.332C234.409 177.9 235.849 177.445 237.289 176.877C238.286 176.423 239.283 176.309 240.169 177.104C240.28 177.104 240.28 177.218 240.391 177.218C240.391 177.332 240.391 177.332 240.391 177.445C240.612 177.445 240.945 177.332 241.166 177.332C241.609 177.218 242.163 176.991 242.606 177.104C243.825 177.332 245.043 177.104 246.262 176.763C246.705 176.65 247.259 176.536 247.702 176.423C248.145 176.65 248.588 176.536 248.92 176.423C249.031 176.195 249.474 176.423 249.252 175.968C249.031 175.968 248.699 176.082 248.477 176.082C248.255 175.968 248.034 175.968 247.812 175.968C247.591 175.968 247.148 176.082 247.037 175.854C246.926 175.514 247.259 175.286 247.48 175.059C247.591 174.945 247.812 174.718 248.034 174.718C248.809 174.718 249.252 174.377 249.363 173.582C250.139 173.127 250.914 173.014 251.8 173.241C252.465 173.468 252.797 173.241 252.908 172.673C253.24 172.673 253.462 172.673 253.794 172.673C254.016 172.787 254.126 172.9 254.569 172.787C255.123 172.559 255.566 171.991 256.231 172.218C256.563 172.446 257.006 172.787 257.117 172.673C257.671 171.764 258.557 171.65 259.443 171.764L259.554 171.65C260.994 171.196 262.655 171.65 263.874 170.4C263.985 170.514 264.095 170.628 264.206 170.741C264.428 171.082 264.649 170.969 264.871 170.628C265.203 170.514 265.646 170.287 265.425 169.832C265.203 169.491 264.649 169.378 264.317 169.832C264.206 169.832 264.095 169.832 263.985 169.946C263.763 169.719 263.542 169.491 263.431 169.264C263.209 169.264 263.209 169.378 263.209 169.491C263.209 169.719 263.209 169.832 262.988 169.832C262.766 169.946 262.545 169.946 262.323 170.173C262.212 170.287 262.212 170.287 262.212 170.173C262.212 170.173 262.102 170.173 262.102 170.06C261.991 170.06 261.991 170.06 261.88 170.06C261.659 170.06 261.437 169.946 261.88 169.605C262.102 169.491 262.545 169.605 262.656 169.264C262.877 169.151 262.988 169.037 263.209 168.923C263.32 168.81 263.32 168.81 263.431 168.696C263.542 168.696 263.652 168.696 263.874 168.582C263.763 167.901 264.428 167.673 264.76 167.333C264.982 167.105 265.092 166.992 265.092 166.764C265.092 166.651 265.203 166.537 265.203 166.537C265.314 166.537 265.425 166.537 265.535 166.424C265.646 166.424 265.646 166.537 265.757 166.537C266.2 166.651 266.643 166.651 266.975 166.424C267.308 166.196 267.529 166.31 267.862 166.424C268.194 165.742 268.859 165.628 269.412 165.174H269.523H269.634C270.077 165.174 270.299 164.719 270.52 164.378C270.852 164.037 271.628 163.924 271.185 163.242C272.071 162.674 272.514 161.538 273.511 161.197C273.843 161.083 273.843 160.742 273.954 160.401C274.286 160.288 274.508 159.833 274.619 159.606C275.394 159.265 274.951 158.811 274.84 158.356C274.84 158.242 274.951 158.242 274.951 158.129C275.283 157.561 275.062 156.879 275.726 156.538C275.837 156.424 275.837 156.311 275.837 156.084C276.723 156.424 276.502 155.743 276.612 155.288C277.277 155.175 277.388 154.606 277.831 154.266C277.942 154.266 278.052 154.152 278.163 154.152C278.495 153.697 278.606 153.129 279.271 153.129C279.492 152.902 279.825 152.675 279.603 152.334C279.825 152.22 280.046 152.107 280.379 152.107H280.489C280.6 152.22 280.711 152.22 280.822 152.22C280.932 152.107 280.932 151.993 281.043 151.766C281.708 151.538 281.154 150.97 281.375 150.629C281.486 150.402 281.154 150.061 281.486 149.834C282.04 149.834 282.483 149.834 282.262 150.743C282.705 150.061 283.148 149.493 283.923 149.38C284.255 149.266 284.809 149.607 285.142 149.152C284.699 148.925 284.255 149.152 283.923 149.266C283.369 149.266 282.483 149.607 282.705 148.471C282.815 148.471 283.037 148.584 283.148 148.357C284.034 147.789 284.809 147.221 285.695 146.653C285.806 146.653 285.917 146.539 286.028 146.539C286.692 146.653 287.135 146.198 287.689 145.857C287.246 145.857 286.914 145.857 286.582 145.857C286.139 145.857 286.249 145.63 286.36 145.403C286.692 145.289 287.135 145.289 287.357 144.948C287.468 144.721 287.579 144.494 287.689 144.266C287.911 143.698 287.689 142.903 288.575 142.448C287.246 142.676 287.246 142.676 286.692 142.562C286.692 142.448 286.803 142.335 286.803 142.221C286.914 142.221 287.025 142.108 287.246 142.108C287.578 141.994 287.911 141.88 288.243 141.653C288.908 141.312 288.797 140.403 289.462 139.949C289.905 139.835 290.348 139.949 290.68 139.494C290.902 139.494 291.123 139.608 291.345 139.608C292.563 139.04 293.892 139.04 295 138.131C294.778 138.017 294.668 137.903 294.446 137.676C292.785 136.54 292.342 136.767 292.12 136.767Z" fill="#FFDD00"/>
</svg>
