<svg width="80" height="80" viewBox="0 0 80 80" fill="none" xmlns="http://www.w3.org/2000/svg">
<circle cx="39.9877" cy="39.8723" r="36.5" fill="white" stroke="#004880" stroke-width="3"/>
<g clip-path="url(#clip0)">
<path fill-rule="evenodd" clip-rule="evenodd" d="M34.0269 51.5521L55.4463 30.1327C56.9523 28.6267 56.9229 26.1586 55.3808 24.6166C53.8391 23.0749 51.37 23.0458 49.8647 24.5511L28.4453 45.9705C26.9393 47.4765 26.9688 49.9446 28.5108 51.4866C30.0525 53.0284 32.5216 53.0574 34.0269 51.5521ZM36.0203 53.5455C33.4398 56.1261 29.2065 56.0766 26.5637 53.4338C23.9214 50.7915 23.8698 46.5592 26.4519 43.9771L47.8713 22.5577C50.4518 19.9772 54.6851 20.0267 57.3279 22.6695C59.9702 25.3117 60.0218 29.5441 57.4397 32.1261L36.0203 53.5455Z" fill="#46ABD5"/>
<path fill-rule="evenodd" clip-rule="evenodd" d="M34.4321 62.3101L29.7401 50.2844L17.6874 45.5653L16.6336 46.6191L33.3784 63.3638L34.4321 62.3101ZM33.4247 67.3044L12.6931 46.5728L16.9876 42.2782L31.9162 48.1084L37.7192 63.0098L33.4247 67.3044Z" fill="#004880"/>
<path fill-rule="evenodd" clip-rule="evenodd" d="M58.5649 52.7516L47.5818 32.4427L27.2733 21.46L24.5614 24.172L55.8529 55.4635L58.5649 52.7516ZM55.7884 59.2932L20.7042 24.209L26.8356 18.0775L49.6613 30.3632L61.9199 53.1618L55.7884 59.2932Z" fill="#004880"/>
<path fill-rule="evenodd" clip-rule="evenodd" d="M48.9943 55.2711C49.8041 56.0808 49.8201 57.3772 49.0292 58.1682C48.2379 58.9595 46.9406 58.9442 46.1309 58.1345C45.322 57.3255 45.3067 56.0283 46.098 55.237C46.8889 54.4461 48.1854 54.4621 48.9943 55.2711Z" fill="#46ABD5"/>
<path fill-rule="evenodd" clip-rule="evenodd" d="M53.039 59.3157C53.8479 60.1246 53.8639 61.421 53.073 62.2119C52.2817 63.0033 50.9845 62.988 50.1756 62.1791C49.3646 61.3681 49.3494 60.0709 50.1407 59.2796C50.9316 58.4887 52.2281 58.5047 53.039 59.3157Z" fill="#46ABD5"/>
<path fill-rule="evenodd" clip-rule="evenodd" d="M20.1237 27.3537C20.9339 28.1638 20.9491 29.4619 20.159 30.252C19.3689 31.0421 18.0701 31.0276 17.2599 30.2175C16.4506 29.4082 16.4365 28.1098 17.2267 27.3197C18.0168 26.5295 19.3144 26.5444 20.1237 27.3537Z" fill="#46ABD5"/>
<path fill-rule="evenodd" clip-rule="evenodd" d="M24.168 31.398C24.9781 32.2081 24.9918 33.5045 24.2017 34.2946C23.4115 35.0848 22.1143 35.0719 21.3042 34.2618C20.4949 33.4524 20.48 32.1533 21.2701 31.3631C22.0603 30.573 23.3587 30.5886 24.168 31.398Z" fill="#46ABD5"/>
<path fill-rule="evenodd" clip-rule="evenodd" d="M45.1877 59.2552C45.9974 60.0649 46.0134 61.3614 45.2225 62.1523C44.4312 62.9436 43.134 62.9283 42.3243 62.1186C41.5153 61.3097 41.5001 60.0125 42.2914 59.2212C43.0823 58.4302 44.3787 58.4463 45.1877 59.2552Z" fill="#46ABD5"/>
<path fill-rule="evenodd" clip-rule="evenodd" d="M49.2323 63.2998C50.0413 64.1087 50.0573 65.4052 49.2664 66.1961C48.4751 66.9874 47.1779 66.9721 46.3689 66.1632C45.558 65.3523 45.5428 64.0551 46.3341 63.2638C47.125 62.4728 48.4214 62.4889 49.2323 63.2998Z" fill="#46ABD5"/>
<path fill-rule="evenodd" clip-rule="evenodd" d="M16.3171 31.3378C17.1272 32.148 17.1425 33.446 16.3523 34.2361C15.5622 35.0263 14.2634 35.0118 13.4533 34.2016C12.644 33.3923 12.6299 32.0939 13.42 31.3038C14.2102 30.5137 15.5078 30.5285 16.3171 31.3378Z" fill="#46ABD5"/>
<path fill-rule="evenodd" clip-rule="evenodd" d="M20.3614 35.3821C21.1715 36.1922 21.1851 37.4886 20.395 38.2788C19.6049 39.0689 18.3077 39.056 17.4976 38.2459C16.6882 37.4366 16.6734 36.1374 17.4635 35.3473C18.2536 34.5571 19.552 34.5728 20.3614 35.3821Z" fill="#46ABD5"/>
</g>
<defs>
<clipPath id="clip0">
<rect width="55.6232" height="56.9464" fill="white" transform="translate(0 39.3315) rotate(-45)"/>
</clipPath>
</defs>
</svg>
